<?xml version="1.0" standalone="no"?>
<!DOCTYPE svg PUBLIC "-//W3C//DTD SVG 1.1//EN" "http://www.w3.org/Graphics/SVG/1.1/DTD/svg11.dtd" >
<svg xmlns="http://www.w3.org/2000/svg" xmlns:xlink="http://www.w3.org/1999/xlink" version="1.1">
<metadata>
Created by FontForge 20170731 at Thu Feb 20 18:54:32 2014
 By Aleksey,,,
extracted by PdfGrabber (extracted by PdfGrabber)
</metadata>
<defs>
<font id="TrajanPro3Regular" horiz-adv-x="500" >
  <font-face 
    font-family="Trajan Pro 3"
    font-weight="400"
    font-stretch="normal"
    units-per-em="1000"
    panose-1="0 0 0 0 0 0 0 0 0 0"
    ascent="800"
    descent="-200"
    x-height="640"
    cap-height="753"
    bbox="-170 -411 1928 1047"
    underline-thickness="0"
    underline-position="50"
    unicode-range="U+0020-25CA"
  />
<missing-glyph horiz-adv-x="513" 
d="M0 0v710h513v-710h-513zM82 51h349l-174 258zM287 355l174 -259v518zM52 614v-518l174 259zM82 659l175 -258l174 258h-349z" />
    <glyph glyph-name=".notdef" horiz-adv-x="513" 
d="M0 0v710h513v-710h-513zM82 51h349l-174 258zM287 355l174 -259v518zM52 614v-518l174 259zM82 659l175 -258l174 258h-349z" />
    <glyph glyph-name=".null" horiz-adv-x="0" 
 />
    <glyph glyph-name="nonmarkingreturn" horiz-adv-x="333" 
 />
    <glyph glyph-name="space" unicode=" " horiz-adv-x="325" 
 />
    <glyph glyph-name="space" unicode="&#xb7;" horiz-adv-x="325" 
 />
    <glyph glyph-name="exclam" unicode="!" horiz-adv-x="360" 
d="M198 184q-12 0 -14 34q-11 175 -16 255q-10 154 -19 188q-4 16 -4 19q0 6 5 14q12 20 43.5 46.5t51.5 26.5q6 0 6 -10q0 -2 -2 -19t-5.5 -49t-5.5 -64q-12 -219 -28 -409q-2 -32 -12 -32zM200 -17q-24 0 -37 15.5t-13 35.5q0 19 13 35t38 16q22 0 36.5 -13.5t14.5 -34.5
q0 -23 -14.5 -38.5t-37.5 -15.5z" />
    <glyph glyph-name="quotedbl" unicode="&#x22;" horiz-adv-x="367" 
d="M100 820q43 0 43 -14q0 -1 -6 -23.5t-14 -74t-12 -119.5q-2 -21 -10 -21t-10 21q-4 68 -12.5 120t-14.5 74t-6 23q0 14 42 14zM266 820q43 0 43 -14q0 -1 -6 -23.5t-14 -73.5t-12 -118q-2 -23 -10 -23t-10 22q-4 68 -12.5 119.5t-14.5 73.5t-6 23q0 14 42 14z" />
    <glyph glyph-name="numbersign" unicode="#" horiz-adv-x="591" 
d="M549 460h-123l-23 -164h116v-56h-124l-35 -240h-35l35 240h-163l-36 -240h-35l36 240h-120v56h128l25 164h-121v56h129l36 238h36l-36 -238h161l34 238h35l-34 -238h114v-56zM368 296l23 164h-160l-25 -164h162z" />
    <glyph glyph-name="dollar" unicode="$" horiz-adv-x="571" 
d="M347 724l-27 -296q88 -58 130.5 -107.5t42.5 -121.5q0 -50 -20 -89.5t-52.5 -61.5t-67.5 -34t-72 -14l-8 -82q-1 -6 -5 -7l-26 -6q-6 0 -5 9l8 86q-77 3 -131 26q-19 8 -23.5 14t-4.5 22q0 61 9 118q3 19 11 19q6 0 5 -22q-2 -59 27 -93q36 -43 110 -47l30 321
q-98 66 -134 112t-36 109q0 85 57 130.5t150 49.5l7 80q0 7 6 9l23 7q8 2 8 -5l-8 -92q27 -1 110 -15q9 -2 9 -16q0 -83 -4 -117q-1 -10 -8 -10q-8 0 -8 15q0 38 -23.5 70t-79.5 39zM286 451l26 275q-55 -2 -96 -29t-41 -92q0 -44 23 -77t88 -77zM311 335l-27 -299
q67 4 101.5 42.5t34.5 98.5q0 46 -26.5 82.5t-82.5 75.5z" />
    <glyph glyph-name="percent" unicode="%" horiz-adv-x="870" 
d="M647 0q-80 0 -123 54.5t-43 121.5q0 77 44 134t129 57q79 0 122.5 -54.5t43.5 -121.5q0 -76 -44.5 -133.5t-128.5 -57.5zM651 28q54 0 80.5 42t26.5 107q0 64 -29.5 113t-79.5 49q-54 0 -80 -41.5t-26 -107.5q0 -64 28.5 -113t79.5 -49zM300 -4l-51 -8q-5 -1 -6.5 1.5
t0.5 7.5q4 8 316 737q-38 -2 -121 -8t-115 -8v-2q29 -21 47 -59t18 -84q0 -76 -44.5 -133.5t-127.5 -57.5q-80 0 -123 54.5t-43 121.5q0 77 46.5 134.5t131.5 57.5q82 0 381 23q6 0 6 -4q0 -1 -11 -29l-294 -732q-5 -11 -10 -12zM220 410q54 0 80 41.5t26 107.5
q0 64 -29 113.5t-79 49.5q-54 0 -80 -42t-26 -108q0 -64 28.5 -113t79.5 -49z" />
    <glyph glyph-name="ampersand" unicode="&#x26;" horiz-adv-x="821" 
d="M293 -17q-62 0 -111 22t-76.5 56.5t-41.5 71t-14 71.5q0 152 151 241q-47 66 -47 138q0 66 60.5 125t154.5 59q70 0 112 -20q15 -7 18.5 -12.5t3.5 -17.5q0 -69 -6 -108q-4 -24 -11 -24q-6 0 -6 19q0 53 -31 85q-41 44 -100 44q-51 0 -89 -33t-38 -98q0 -54 35 -107.5
t123 -148.5q24 -26 93.5 -91.5t95.5 -87.5q22 30 36.5 76t14.5 90q0 30 -19 49q-10 10 -41 15q-20 4 -20 8q0 7 16 7q55 0 120 -7q18 -2 18 -20q0 -56 -30.5 -122.5t-68.5 -113.5q73 -62 138 -99q66 -39 117 -39q16 0 16 -7t-14 -7h-130q-42 3 -80 21t-101 68
q-103 -103 -248 -103zM329 38q121 0 187 68q-38 32 -97 89t-83 83q-90 97 -120 141q-84 -55 -84 -168q0 -93 56 -153t141 -60z" />
    <glyph glyph-name="quotesingle" unicode="'" horiz-adv-x="201" 
d="M100 820q43 0 43 -14q0 -1 -6 -23.5t-14 -74t-12 -119.5q-2 -21 -10 -21t-10 21q-4 68 -12.5 120t-14.5 74t-6 23q0 14 42 14z" />
    <glyph glyph-name="parenleft" unicode="(" horiz-adv-x="375" 
d="M136 351q0 -280 158 -443l2 -3q2 -3 3 -5t2 -4.5t0 -4t-5 -1.5q-3 0 -12 7q-36 27 -69 61.5t-70.5 89t-60 130.5t-22.5 162q0 69 17 134t41 111.5t57 89t58 67t51 44.5q10 6 13 6q3 -1 2.5 -3.5t-4.5 -7.5l-4 -5q-66 -70 -111.5 -178.5t-45.5 -246.5z" />
    <glyph glyph-name="parenright" unicode=")" horiz-adv-x="389" 
d="M254 331q0 280 -158 443q-4 4 -6.5 10t3.5 8q4 0 13 -7q36 -27 69 -61.5t70.5 -89t60 -130.5t22.5 -162q0 -69 -17 -134t-41 -111.5t-57 -89t-58 -67t-51 -44.5q-10 -6 -13 -6q-3 1 -2.5 3.5t4.5 7.5l4 5q66 70 111.5 178.5t45.5 246.5z" />
    <glyph glyph-name="plus" unicode="+" horiz-adv-x="661" 
d="M567 334h-209v-222h-53v222h-211v52h210v215h53v-215h210v-52z" />
    <glyph glyph-name="comma" unicode="," horiz-adv-x="264" 
d="M92 55q0 18 20 38t39 20q13 0 24.5 -20.5t11.5 -48.5q0 -62 -78 -144q-19 -21 -27 -21q-11 0 7 24q39 54 39 90q0 26 -28 50q-8 7 -8 12z" />
    <glyph glyph-name="hyphen" unicode="-" horiz-adv-x="345" 
d="M69 362h216q25 0 25 -8t-33 -15q-168 -30 -198 -39q-8 -2 -17.5 -5.5t-14.5 -5t-7 -1.5q-6 0 -4 14l13 52q2 8 20 8z" />
    <glyph glyph-name="period" unicode="." horiz-adv-x="250" 
d="M125 -8q-24 0 -38 16.5t-14 36.5t14 36.5t39 16.5q22 0 36.5 -14.5t14.5 -37.5t-15 -38.5t-37 -15.5z" />
    <glyph glyph-name="slash" unicode="/" horiz-adv-x="479" 
d="M48 4l339 752q6 14 13 14q4 0 15 -5.5t15 -9.5q5 -5 0 -17l-341 -758q-5 -9 -9 -9q-2 0 -15 6.5t-17 10.5q-5 5 0 16z" />
    <glyph glyph-name="zero" unicode="0" horiz-adv-x="623" 
d="M560 398q0 -180 -68.5 -297.5t-188.5 -117.5q-76 0 -132 56t-82 138t-26 175q0 186 68 300.5t188 114.5q66 0 116 -38.5t75.5 -98t37.5 -118.5t12 -114zM475 355q0 98 -19.5 182t-60.5 139t-96 55q-70 0 -110.5 -92t-40.5 -246q0 -69 10 -133t30 -119t55 -88t80 -33
q69 0 110.5 93t41.5 242z" />
    <glyph glyph-name="one" unicode="1" horiz-adv-x="401" 
d="M173 301v329q0 32 -15 32t-56 -16l-41 -15q-9 0 -9 5t7 10q32 21 83 54t83 55q18 12 24 12q8 0 8 -21l-1 -14q0 -13 -0.5 -36t-1 -54t-1 -71t-1 -82t-1 -91.5t-0.5 -96.5q0 -160 5 -233q2 -25 10.5 -37t31.5 -14q14 -1 27 -3q16 -2 16 -10q0 -7 -17 -7q-33 0 -60 0.5
t-40 1.5l-14 1h-18q-18 -1 -47.5 -2t-57.5 -1q-17 0 -17 7q0 8 14 8q5 0 38 3q27 2 36.5 15t11.5 44q3 44 3 227z" />
    <glyph glyph-name="two" unicode="2" horiz-adv-x="571" 
d="M421 -1h-181t-128 0.5t-70 0.5q-5 0 -9.5 4t-4.5 10q0 8 18 24q52 47 83 75t73 69.5t66 70.5t51.5 68t42 72.5t24 73t9.5 79.5q0 51 -15 89t-39.5 57.5t-51 29t-53.5 9.5q-66 0 -107 -38q-36 -35 -36 -97q0 -15 -8 -15q-7 0 -8 13q-6 54 -6 123q0 8 10 15q76 35 176 35
q108 0 167 -58.5t59 -143.5q0 -57 -24 -118t-57.5 -109.5t-83.5 -101t-88 -86.5t-84 -74q-7 -6 -11 -9t-3 -5t5 -2h73q126 0 171 5q54 5 81 28t37 68q3 15 11 15q6 0 6 -12q0 -32 -30 -134q-6 -20 -19 -25.5t-46 -5.5z" />
    <glyph glyph-name="three" unicode="3" horiz-adv-x="567" 
d="M198 -18q-31 0 -68.5 7.5t-53.5 16.5q-16 10 -16 28q0 74 7 125q1 15 8 15q6 0 7 -14q0 -3 1 -11.5t1 -11.5q18 -112 148 -112q80 0 130.5 45.5t50.5 131.5q0 47 -19 84t-50 59t-59 33.5t-57 17.5q-26 5 -26 13t23 12q22 4 46.5 15t51 31t44 53.5t17.5 74.5
q0 19 -6.5 39.5t-21 43.5t-45 37.5t-71.5 14.5q-56 0 -91 -31t-35 -87q0 -12 -7 -12q-6 0 -7 11q-7 56 -7 100q0 12 13 21q70 34 162 34q57 0 99 -16t62 -41t28.5 -48t8.5 -45q0 -35 -16 -67.5t-40 -55t-43.5 -36.5t-34.5 -21v-5q60 -14 112.5 -64t52.5 -128
q0 -107 -84 -182t-215 -75z" />
    <glyph glyph-name="four" unicode="4" horiz-adv-x="605" 
d="M362 225h-305q-21 0 -21 12q0 10 9 21q4 5 170.5 230t192.5 261q13 18 21 18q10 0 10 -17q0 -2 -0.5 -60t-0.5 -90v-321h76q12 0 21 2.5t14 5.5t6 3q5 0 5 -12q0 -8 -9 -39q-5 -14 -18 -14h-95q0 -132 2 -154q3 -31 18 -44t54 -14q24 0 24 -9q0 -7 -16 -7q-25 0 -55 0.5
t-50 1.5t-21 1q-2 0 -19.5 -0.5t-45 -1.5t-51.5 -1q-16 0 -16 7q0 8 17 8q45 0 62.5 12.5t18.5 46.5q2 44 2 154zM362 279v354l-60 -83q-61 -84 -125 -173t-71 -98h256z" />
    <glyph glyph-name="five" unicode="5" horiz-adv-x="550" 
d="M361 686h-189l-14 -154q50 -13 87 -25.5t82 -35.5t74 -50t49 -69.5t20 -93.5q0 -107 -79.5 -191.5t-220.5 -84.5q-60 0 -92 18q-19 10 -19 28q0 100 4 126q4 18 9 18q8 0 8 -17q0 -74 37 -101.5t100 -27.5q71 0 123.5 49t52.5 145q0 46 -17.5 85t-43.5 64.5t-62 45.5
t-67 31t-64 17q-16 3 -21.5 6.5t-4.5 11.5l23 255q1 13 19 13h235q34 0 58 4q7 1 13.5 2t7.5 1q7 0 7 -10q0 -31 -13 -126q-2 -11 -8 -11t-6 13q0 33 -17 48.5t-71 15.5z" />
    <glyph glyph-name="six" unicode="6" horiz-adv-x="604" 
d="M304 -17q-115 0 -178 77.5t-63 205.5q0 173 113 307.5t276 186.5q21 7 28 7q9 0 9 -6q0 -7 -26 -19q-59 -27 -111 -66.5t-99 -95.5t-75 -134.5t-28 -168.5q0 -109 44.5 -182.5t125.5 -73.5q60 0 100 47.5t40 129.5q0 86 -46.5 146.5t-109.5 60.5q-47 0 -82 -17
q-11 -5 -11 3q0 6 10 13q56 39 126 39q91 0 143.5 -62.5t52.5 -143.5q0 -109 -67 -181.5t-172 -72.5z" />
    <glyph glyph-name="seven" unicode="7" horiz-adv-x="540" 
d="M170 750h324q18 0 18 -10q0 -9 -6 -19q-63 -93 -156.5 -320t-104.5 -322q-1 -8 -1 -14t0.5 -11.5t0.5 -9.5q0 -14 -40.5 -37.5t-57.5 -23.5q-9 0 -9 10q0 16 6 34q34 114 114 297t184 363h-246q-63 0 -93 -25q-33 -26 -38 -77q-2 -14 -9 -14q-6 0 -6 16q0 19 7.5 88
t7.5 71q0 14 10 14q1 0 11.5 -2.5t32.5 -5t51 -2.5z" />
    <glyph glyph-name="eight" unicode="8" horiz-adv-x="589" 
d="M354 423q32 -16 56 -32.5t54 -43.5t46.5 -64t16.5 -80q0 -90 -67 -155t-171 -65q-96 0 -161.5 54t-65.5 142q0 134 176 219q-66 39 -102 83.5t-36 106.5q0 67 56 123t157 56q79 0 131 -44.5t52 -115.5q0 -37 -13.5 -68t-37.5 -53.5t-44 -36t-47 -26.5zM272 382
q-132 -68 -132 -194q0 -69 44.5 -118t112.5 -49t110.5 45.5t42.5 113.5q0 39 -13.5 69.5t-44 56t-53 39.5t-67.5 37zM320 439q50 30 68 48q38 42 38 108q0 59 -34.5 98.5t-90.5 39.5q-62 0 -96 -39.5t-34 -86.5q0 -30 10.5 -54.5t34 -45t45.5 -34.5t59 -34z" />
    <glyph glyph-name="nine" unicode="9" horiz-adv-x="594" 
d="M302 767q103 0 166 -77.5t63 -194.5q0 -86 -26 -163t-63.5 -130.5t-90 -100.5t-93.5 -73t-85 -48q-2 -1 -5.5 -2t-8 -2t-7.5 0.5t-3 5.5q0 8 13 14q48 26 94.5 69t89.5 101.5t70 137t27 162.5q0 125 -47.5 194.5t-117.5 69.5q-64 0 -100.5 -45t-36.5 -108
q0 -58 17.5 -100.5t44.5 -62t50 -28t43 -8.5q46 0 75 18q9 6 15 6q5 -1 4 -6t-5 -9q-43 -46 -120 -46q-98 0 -150 60t-52 133q0 103 67.5 168t171.5 65z" />
    <glyph glyph-name="colon" unicode=":" horiz-adv-x="284" 
d="M142 -8q-24 0 -38 16.5t-14 36.5t14 36.5t39 16.5q22 0 36.5 -14.5t14.5 -37.5t-15 -38.5t-37 -15.5zM142 377q-24 0 -38 16.5t-14 36.5t14 36.5t39 16.5q22 0 36.5 -14.5t14.5 -37.5t-15 -38.5t-37 -15.5z" />
    <glyph glyph-name="semicolon" unicode=";" horiz-adv-x="284" 
d="M142 377q-24 0 -38 16.5t-14 36.5t14 36.5t39 16.5q22 0 36.5 -14.5t14.5 -37.5t-15 -38.5t-37 -15.5zM97 55q0 18 20 38t39 20q13 0 24.5 -20.5t11.5 -48.5q0 -62 -78 -144q-19 -21 -27 -21q-11 0 7 24q39 54 39 90q0 26 -28 50q-8 7 -8 12z" />
    <glyph glyph-name="less" unicode="&#x3c;" horiz-adv-x="610" 
d="M517 95l-423 230v50l423 228v-57l-368 -196l368 -198v-57z" />
    <glyph glyph-name="equal" unicode="=" horiz-adv-x="661" 
d="M567 221h-473v54h473v-54zM567 429h-473v54h473v-54z" />
    <glyph glyph-name="greater" unicode="&#x3e;" horiz-adv-x="610" 
d="M94 604l423 -230v-50l-423 -228v57l367 197l-367 197v57z" />
    <glyph glyph-name="question" unicode="?" horiz-adv-x="538" 
d="M297 767q91 0 136 -47t45 -109q0 -34 -7.5 -62t-26 -56.5t-35.5 -48.5t-49.5 -56.5t-53.5 -63.5q-41 -52 -41 -80q0 -27 16 -52q8 -12 8 -17q0 -8 -6 -8q-15 0 -43 35q-29 36 -29 59q0 22 22 50q12 16 35.5 43t33.5 40q50 64 69 111t19 99q0 47 -28 88t-89 41
q-67 0 -98 -39q-30 -36 -35 -93q-2 -17 -8 -17q-7 0 -8 10q-4 19 -4 117q0 9 11 16q67 40 166 40zM274 -17q-24 0 -38 16.5t-14 36.5t14 36.5t39 16.5q22 0 36.5 -14.5t14.5 -37.5t-15 -38.5t-37 -15.5z" />
    <glyph glyph-name="bracketleft" unicode="@" horiz-adv-x="388" 
d="M183 658v-625q0 -70 7 -99q27 -11 105 -16q20 -2 20 -8t-16 -6h-158q-11 0 -13.5 2.5t-2.5 13.5v848q0 8 3 10.5t14 2.5h157q17 0 17 -7q0 -8 -22 -8q-70 -5 -104 -15q-7 -29 -7 -93z" />
    <glyph glyph-name="A" unicode="A" horiz-adv-x="700" 
d="M439 292h-215q-7 0 -10 -8l-60 -177q-14 -39 -14 -67q0 -14 11 -21.5t25 -7.5h9q13 0 13 -6q0 -8 -18 -8q-14 0 -42.5 1.5t-32.5 1.5q-1 0 -43 -1.5t-70 -1.5q-19 0 -19 8q0 6 14 6q8 0 24 2q32 4 50 27.5t34 66.5l227 621q14 39 22 39t22 -36q4 -10 50.5 -132t101 -263
t81.5 -208q40 -98 86 -111q18 -6 39 -6q11 0 11 -6q0 -8 -20 -8q-88 0 -157 2q-30 2 -30 7t7 7q14 5 6 27l-93 246q-3 6 -9 6zM235 328h191q6 0 4 7l-95 270q-7 23 -15 0l-88 -270q-3 -7 3 -7z" />
    <glyph glyph-name="B" unicode="B" horiz-adv-x="685" 
d="M178 287v176q0 184 -2 216q-2 27 -10.5 39.5t-32.5 17.5q-12 3 -29 3q-13 0 -13 6q0 8 16 8q20 0 47 -0.5t46 -1.5t20 -1q9 0 46 1.5t63 1.5q58 0 100 -16t62 -41t29 -48t9 -45q0 -38 -15.5 -73.5t-31.5 -54.5t-47 -52q66 -21 119.5 -76t53.5 -135q0 -88 -67 -153
t-188 -65q-5 0 -16.5 0.5t-27.5 1.5t-28 1q-43 3 -61 3q-16 0 -48 -1.5t-50 -1.5q-16 0 -16 7t15 7q11 0 24 3q21 4 28 56q5 42 5 217zM258 709v-268q0 -8 7 -11q24 -4 61 -4q44 0 60 4.5t31 21.5q36 41 36 101q0 70 -33.5 121t-101.5 51q-28 0 -48 -5q-12 -3 -12 -11z
M258 392v-57q0 -201 1 -216q2 -30 3.5 -40.5t8.5 -20.5t22 -17q31 -15 88 -15q23 0 45.5 6.5t45 21.5t36.5 44.5t14 69.5q0 54 -22.5 109t-74.5 91q-34 23 -83 29q-13 2 -78 2q-6 0 -6 -7z" />
    <glyph glyph-name="C" unicode="C" horiz-adv-x="805" 
d="M515 -17q-210 0 -330 108q-121 109 -121 296q0 63 26 138t86 135q107 107 305 107q80 0 145 -12q14 -3 106 -15q9 -1 9 -11q0 -3 -1 -9.5t-2 -19t-2 -27.5q-1 -18 -2 -57.5t-1 -45.5q-1 -21 -9 -21t-8 21q0 66 -42 102q-28 24 -82.5 40.5t-117.5 16.5q-155 0 -230 -73
q-51 -49 -70.5 -112.5t-19.5 -148.5q0 -148 102.5 -257t258.5 -109q125 0 174 50q28 29 37 84q3 15 10 15t7 -15q0 -8 -7.5 -57t-14.5 -71q-4 -14 -8 -18.5t-18 -10.5q-57 -23 -180 -23z" />
    <glyph glyph-name="D" unicode="D" horiz-adv-x="917" 
d="M178 287v176q0 184 -2 216q-2 28 -9.5 40t-30.5 17q-12 3 -34 3q-11 0 -11 6q0 8 16 8q20 0 47 -0.5t46 -1.5t20 -1q4 0 25.5 1t52.5 1.5t57 0.5h19q44 0 70 -0.5t75 -6.5t85 -17t78 -34t74 -56q97 -101 97 -254q0 -168 -108 -282q-110 -115 -303 -115q-53 0 -139 6
q-18 1 -38.5 2.5t-31.5 2.5t-13 1q-19 0 -40 -1q-11 0 -31 -1t-27 -1q-16 0 -16 8q0 6 10 6q17 2 28 4q22 4 29 55q5 42 5 217zM262 479v-124q0 -179 2 -217q3 -64 11 -76q27 -40 170 -40q145 0 238 93q38 37 59 102.5t21 136.5q0 151 -96 252q-64 68 -142.5 90.5
t-184.5 22.5q-51 0 -65 -7q-12 -5 -12 -20q-1 -34 -1 -213z" />
    <glyph glyph-name="E" unicode="E" horiz-adv-x="610" 
d="M178 287v176q0 184 -2 216q-2 27 -10.5 39.5t-32.5 17.5q-3 1 -8 1.5t-11.5 1t-9.5 0.5q-13 2 -13 6q0 8 16 8q50 0 113 -3q206 0 229 1q37 2 46 6q8 4 11 4q4 0 4 -9q0 -2 -3.5 -16.5t-4.5 -30.5l-4 -60q-2 -17 -8 -17q-8 0 -8 13q0 20 -5 33q-10 31 -72 37
q-26 3 -137 3q-6 0 -6 -10v-276q0 -10 6 -10q136 0 159 2q38 3 50 17q8 10 12 10q5 0 5 -8q0 -2 -1.5 -9t-3.5 -20t-3 -27q-2 -18 -3 -42.5t-1 -25.5q-2 -15 -7 -15q-7 0 -7 16t-4 28q-7 28 -52 33t-143 5q-7 0 -7 -7v-88v-51.5v-76.5v-43q2 -33 8.5 -49.5t24.5 -23.5
q22 -9 83 -9q60 0 90 9q23 7 34 23.5t17 50.5q3 15 9 15t6 -15q0 -7 -5 -45t-8 -52q-5 -19 -14 -22.5t-40 -3.5q-29 0 -146 3q-120 3 -125 3q-10 0 -35 -2t-39 -1q-16 0 -16 8q0 4 11 6q19 2 23 3q18 4 26.5 23t9.5 71q2 78 2 179z" />
    <glyph glyph-name="F" unicode="F" horiz-adv-x="592" 
d="M178 287v176q0 184 -2 216q-2 27 -10.5 39.5t-32.5 17.5q-3 1 -12 1.5t-13 0.5q-17 2 -17 7q0 8 16 8q20 0 57.5 -1.5t55.5 -1.5q223 0 246 1q42 2 49 6q6 4 9 4q6 0 6 -9q0 -2 -1 -7t-2.5 -12t-2.5 -12q-2 -12 -6 -73q0 -20 -9 -20q-6 0 -7 13q-3 36 -19 50
q-21 18 -59 19l-153 3q-9 0 -9 -11v-276q0 -9 7 -9q98 0 139 1q42 1 56 4t24 15q8 10 11 10q5 0 5 -8q0 -2 -1.5 -9t-3.5 -20t-3 -27q-2 -18 -3 -43l-1 -26q-2 -17 -7 -17q-6 0 -8 17q-1 16 -3.5 26t-16 22.5t-37.5 15.5q-25 3 -151 3q-7 0 -7 -9v-85q0 -156 3 -202
q4 -66 41 -70q4 -1 41 -4q12 -1 12 -7q0 -7 -16 -7q-25 0 -54 0.5t-48.5 1.5t-20.5 1h-9q-60 -3 -89 -3q-16 0 -16 8q0 5 11 6q18 2 26 4q16 4 22.5 18t8.5 47q4 57 4 207z" />
    <glyph glyph-name="G" unicode="G" horiz-adv-x="862" 
d="M737 194v-112q0 -33 -2 -41t-11 -13q-85 -45 -212 -45q-207 0 -329 107q-50 43 -84.5 120t-34.5 165q0 113 47 198t120 131q101 63 266 63q72 0 153 -17q34 -8 81 -10q12 -1 12 -9q0 -3 -1.5 -18.5t-3.5 -47.5t-2 -76q0 -21 -9 -21q-5 0 -7 15q-3 37 -21 66
q-21 32 -83 56.5t-152 24.5q-130 0 -214 -66q-45 -36 -72 -102.5t-27 -151.5q0 -93 34.5 -167t71.5 -110q110 -107 262 -107q78 0 114 21q20 11 20 35v170q0 61 -7.5 78t-37.5 25q-12 3 -34 3q-8 0 -8 6q0 8 16 8q20 0 47 -1t46 -1.5t20 -0.5t19.5 0.5t42 1.5t36.5 1
q16 0 16 -8q0 -6 -8 -6q-7 0 -25 -3q-20 -4 -27.5 -17t-9.5 -40q-2 -32 -2 -104z" />
    <glyph glyph-name="H" unicode="H" horiz-adv-x="958" 
d="M268 436h424q6 0 6 6v21q0 184 -2 216q-2 27 -10.5 39.5t-32.5 17.5q-12 3 -34 3q-8 0 -8 6q0 8 16 8q20 0 47 -0.5t46 -1.5t20 -1t19.5 1t42 1.5t36.5 0.5q16 0 16 -8q0 -6 -8 -6q-7 0 -25 -3q-20 -4 -27.5 -17t-9.5 -40q-2 -32 -2 -216v-176q0 -175 5 -217
q3 -25 10.5 -38.5t28.5 -16.5q28 -4 45 -4q8 0 8 -6q0 -8 -16 -8q-24 0 -53.5 0.5t-49 1.5t-20.5 1t-19.5 -0.5t-42 -1.5t-36.5 -1q-16 0 -16 8q0 6 8 6q12 0 30 4q22 4 29 55q5 42 5 217v105q0 6 -6 6h-424q-6 0 -6 -6v-105q0 -175 5 -217q3 -25 10.5 -38.5t28.5 -16.5
q28 -4 45 -4q8 0 8 -6q0 -8 -16 -8q-24 0 -53.5 0.5t-49 1.5t-20.5 1t-19.5 -0.5t-42 -1.5t-36.5 -1q-16 0 -16 8q0 6 8 6q12 0 30 4q22 4 29 55q5 42 5 217v176q0 184 -2 216q-2 27 -10.5 39.5t-32.5 17.5q-12 3 -34 3q-8 0 -8 6q0 8 16 8q20 0 47 -0.5t46 -1.5t20 -1
t19.5 1t42 1.5t36.5 0.5q16 0 16 -8q0 -6 -8 -6q-7 0 -25 -3q-20 -4 -27.5 -17t-9.5 -40q-2 -32 -2 -216v-21q0 -6 6 -6z" />
    <glyph glyph-name="I" unicode="I" horiz-adv-x="440" 
d="M178 287v176q0 184 -2 216q-3 49 -34 56q-15 4 -31 4q-8 0 -8 6q0 8 16 8q15 0 39 -0.5t42.5 -1.5t19.5 -1t19.5 1t42 1.5t36.5 0.5q16 0 16 -8q0 -6 -8 -6q-7 0 -25 -3q-20 -4 -27.5 -17t-9.5 -40q-2 -32 -2 -216v-176q0 -175 5 -217q3 -25 10.5 -38.5t28.5 -16.5
q28 -4 41 -4q12 0 12 -6q0 -8 -15 -8q-24 0 -54 0.5t-49.5 1.5t-20.5 1t-19.5 -0.5t-42 -1.5t-36.5 -1q-16 0 -16 8q0 6 11 6q13 0 26 3q23 5 30 56q5 42 5 217z" />
    <glyph glyph-name="J" unicode="J" horiz-adv-x="414" 
d="M262 463v-240q0 -137 -4.5 -191.5t-25.5 -103.5q-31 -73 -146 -153q-29 -20 -39 -25q-4 -2 -7 -2q-7 0 -7 6t14 15q17 10 35 28q37 37 55 70.5t29.5 107.5t11.5 199v289q0 184 -2 216q-2 27 -10.5 39.5t-32.5 17.5q-12 3 -31 3q-11 0 -11 7t15 7q20 0 47 -0.5t46.5 -1.5
t20.5 -1t19.5 1t42 1.5t36.5 0.5q16 0 16 -8q0 -6 -11 -6q-6 0 -24 -2q-19 -2 -26 -15.5t-9 -42.5q-2 -32 -2 -216z" />
    <glyph glyph-name="K" unicode="K" horiz-adv-x="773" 
d="M258 463v-64q14 13 55.5 56.5t96.5 101t76 78.5q42 43 53 58.5t11 25.5q0 14 -13 19q-9 4 -9 9q0 6 15 6q14 0 28 -1.5t32 -1.5q17 0 58.5 1.5t47.5 1.5q17 0 17 -7q0 -6 -11 -7q-30 -3 -51 -12q-36 -14 -104 -80q-183 -176 -228 -227q46 -50 150.5 -157t141.5 -141
q61 -57 95 -79t70 -29q13 -3 29 -3q14 0 14 -7t-15 -7h-74q-63 0 -91.5 9.5t-65.5 38.5q-43 34 -150.5 147.5t-177.5 197.5v-103q0 -175 5 -217q3 -25 10.5 -38.5t28.5 -16.5q28 -4 40 -4t12 -7t-15 -7q-24 0 -53.5 0.5t-49 1.5t-20.5 1t-18.5 -0.5t-40 -1.5t-35.5 -1
q-16 0 -16 7t11 7q13 0 26 3q23 5 30 56q5 42 5 217v176q0 184 -2 216q-3 49 -34 56q-15 4 -36 4q-11 0 -11 6q0 8 16 8q15 0 40 -0.5t44.5 -1.5t20.5 -1t19.5 1t42 1.5t36.5 0.5q16 0 16 -7q0 -6 -11 -7l-22 -2q-19 -2 -27 -16t-10 -42q-2 -32 -2 -216z" />
    <glyph glyph-name="L" unicode="L" horiz-adv-x="592" 
d="M262 463v-178q0 -115 4.5 -165.5t17.5 -63.5q23 -23 120 -23q49 0 77 5t44 25q21 25 26 60q2 13 9 13q6 0 6 -15q0 -46 -15 -100q-5 -18 -15 -22.5t-48 -4.5q-42 0 -130 3t-138 3q-15 0 -47 -1.5t-51 -1.5q-16 0 -16 8q0 6 8 6q12 0 30 4q22 4 29 55q5 42 5 217v176
q0 184 -2 216q-2 27 -10.5 39.5t-32.5 17.5q-12 3 -34 3q-8 0 -8 6q0 8 16 8q20 0 47 -0.5t46 -1.5t20 -1t22 1t47 1.5t39 0.5q16 0 16 -8q0 -6 -8 -6q-15 0 -33 -3q-21 -4 -29 -17t-10 -40q-2 -32 -2 -216z" />
    <glyph glyph-name="M" unicode="M" horiz-adv-x="1050" 
d="M855 740l67 -614q10 -92 54 -106q29 -9 62 -9q11 0 11 -6q0 -8 -15 -8q-99 0 -173 6q-28 2 -28 10q0 4 7 7q8 3 4 36l-48 522l-248 -526q-23 -49 -28 -52q-2 -1 -5 -1q-7 0 -31 46q-17 33 -117 232q-8 17 -68 145.5t-67 146.5l-41 -471q-2 -32 -2 -47q0 -31 27 -36
q17 -4 36 -4q10 0 10 -5q0 -9 -15 -9q-22 0 -59 1l-37 2q-2 0 -35 -1.5t-49 -1.5q-17 0 -17 8q0 6 10 6q15 0 30 3q28 5 36 51q1 5 4 32l72 650q2 20 11 20q8 0 15 -15l306 -629l294 628q7 16 15 16q9 0 12 -27z" />
    <glyph glyph-name="N" unicode="N" horiz-adv-x="947" 
d="M145 144v148q0 151 0.5 227.5t0.5 81v116.5q0 50 11 50q4 0 9.5 -5t14.5 -15t11 -12q37 -42 318 -343q52 -56 138.5 -151t101.5 -110l-11 508q-1 50 -8.5 69.5t-30.5 25.5q-22 5 -43 5q-14 0 -14 7t20 7q27 0 65 -1.5t39 -1.5q2 0 31.5 1.5t53.5 1.5q18 0 18 -7
q0 -5 -11 -7q-8 -1 -26 -4q-21 -5 -28 -22t-7 -68l-2 -584q0 -25 -0.5 -39t-1.5 -21t-2.5 -9t-4.5 -2q-9 0 -73 64q-6 6 -47 47.5t-103.5 106.5t-110.5 117q-140 151 -261 287l13 -479q1 -61 9.5 -85.5t29.5 -30.5q23 -6 50 -6q8 0 8 -6q0 -8 -18 -8q-25 0 -49.5 0.5
t-39.5 1.5t-17 1l-34 -2q-35 -1 -62 -1q-16 0 -16 8q0 6 8 6q23 0 41 6q18 5 24 31t6 96z" />
    <glyph glyph-name="O" unicode="O" horiz-adv-x="915" 
d="M452 -17q-79 0 -145 23.5t-110 62.5t-75 91t-44.5 106t-13.5 110q0 64 23.5 130t69 125.5t124.5 97.5t177 38q172 0 282.5 -101.5t110.5 -273.5t-111 -290.5t-288 -118.5zM479 21q31 0 63.5 7.5t72 30t69.5 58.5t50.5 100t20.5 147q0 172 -89 270.5t-215 98.5
q-130 0 -211 -85t-81 -244q0 -172 91 -277.5t229 -105.5z" />
    <glyph glyph-name="P" unicode="P" horiz-adv-x="642" 
d="M178 287v176q0 184 -2 216q-2 27 -10.5 39.5t-32.5 17.5q-12 3 -34 3q-8 0 -8 6q0 8 16 8q20 0 46 -0.5t45.5 -1.5t21.5 -1q8 0 54 1.5t72 1.5q125 0 186 -57q50 -48 50 -131q0 -98 -70 -162t-176 -64q-16 0 -21 1q-11 0 -11 7q0 9 27 9q74 0 123.5 47t49.5 124
q0 89 -56 146q-49 50 -137 50q-29 0 -43 -6q-8 -3 -8 -19v-411q0 -175 5 -217q3 -25 10.5 -38.5t28.5 -16.5q28 -4 45 -4q8 0 8 -6q0 -8 -16 -8q-24 0 -53.5 0.5t-49 1.5t-20.5 1h-18q-18 -1 -41.5 -2t-36.5 -1q-16 0 -16 8q0 6 8 6q12 0 30 4q22 4 29 55q5 42 5 217z" />
    <glyph glyph-name="Q" unicode="Q" horiz-adv-x="920" 
d="M612 17q-27 -14 -72 -24t-85 -10q-99 0 -177 35.5t-123 94t-68 125.5t-23 138q0 64 23.5 130t69 125.5t124.5 97.5t177 38q172 0 282.5 -102t110.5 -273q0 -62 -18 -119.5t-46.5 -99t-56.5 -70.5t-56 -47l205 -106q229 -118 421 -118q101 0 197 39q12 4 14 4q6 0 6 -6
t-8 -10q-151 -69 -317 -69q-171 0 -412 134zM479 21q31 0 63.5 7.5t72 30t69.5 58.5t50.5 100t20.5 147q0 172 -89 270.5t-215 98.5q-130 0 -211 -85t-81 -244q0 -172 91 -277.5t229 -105.5z" />
    <glyph glyph-name="R" unicode="R" horiz-adv-x="754" 
d="M178 287v176q0 184 -2 216q-2 27 -10.5 39.5t-32.5 17.5q-12 3 -34 3q-8 0 -8 6q0 8 16 8q20 0 47 -0.5t46 -1.5t20 -1q3 0 51.5 1.5t66.5 1.5q122 0 183 -44q25 -18 47 -54t22 -82q0 -119 -121 -231q159 -204 208 -256q59 -62 122 -72q19 -3 39 -3q9 0 9 -6q0 -8 -24 -8
h-71q-72 0 -107 19q-20 11 -44.5 36t-36.5 40.5t-54 70.5q-23 31 -62 84.5t-47 63.5q-6 6 -13 6l-123 2q-7 0 -7 -8v-24q0 -175 5 -217q3 -25 10.5 -38.5t28.5 -16.5q28 -4 45 -4q8 0 8 -6q0 -8 -16 -8q-24 0 -53.5 0.5t-49 1.5t-20.5 1h-7q-7 -1 -18 -1.5t-23 -0.5
t-25 -0.5t-21 -0.5q-16 0 -16 8q0 6 8 6q12 0 30 4q22 4 29 55q5 42 5 217zM258 703v-327q0 -8 7 -12q27 -16 105 -16q48 0 75 19q61 42 61 154q0 94 -46.5 147t-126.5 53q-47 0 -67 -6q-8 -3 -8 -12z" />
    <glyph glyph-name="S" unicode="S" horiz-adv-x="570" 
d="M248 -17q-79 0 -134 27q-10 5 -12.5 11t-2.5 27q0 26 5 106q1 16 8 16t7 -11q0 -23 3 -37q11 -52 52 -77t96 -25q68 0 105.5 40t37.5 93q0 51 -24.5 88t-90.5 92l-45 37q-75 61 -102.5 111t-27.5 106q0 81 56 130.5t151 49.5q51 0 93 -10q24 -5 35 -5q10 0 10 -7l-1 -13
q-1 -13 -2 -38t-1 -55q0 -23 -7 -23q-6 0 -8 13q-3 31 -13 50q-29 53 -125 53q-53 0 -88 -31.5t-35 -84.5q0 -43 25 -77.5t97 -90.5l28 -22q85 -67 115.5 -119t30.5 -116q0 -40 -19.5 -86.5t-65.5 -79.5q-60 -42 -151 -42z" />
    <glyph glyph-name="T" unicode="T" horiz-adv-x="691" 
d="M391 710v-423q0 -175 5 -217q3 -25 10.5 -38.5t28.5 -16.5q28 -4 45 -4q8 0 8 -6q0 -8 -16 -8q-24 0 -53.5 0.5t-49 1.5t-20.5 1t-19.5 -0.5t-42 -1.5t-36.5 -1q-16 0 -16 8q0 6 8 6q12 0 30 4q22 4 29 55q5 42 5 217v423q-24 0 -74 -1t-74 -1q-47 -1 -68.5 -7.5
t-33.5 -24.5q-11 -17 -17 -31q-4 -10 -10 -10q-5 0 -5 9q0 16 22 104q6 19 10 19q2 0 15 -5.5t29 -6.5q48 -5 79 -5h375q44 0 71 5q6 1 12.5 2t10 2t5.5 1q5 0 5 -12q0 -17 -1.5 -62t-1.5 -48q0 -13 -7 -13t-8 17q0 2 -0.5 5.5t-0.5 5.5q-5 53 -123 55q-21 0 -63 1t-63 1z
" />
    <glyph glyph-name="U" unicode="U" horiz-adv-x="830" 
d="M207 463v-140q0 -100 19.5 -156.5t55.5 -90.5q34 -32 69 -43.5t82 -11.5q45 0 87.5 19.5t69.5 52.5q58 72 58 245v125q0 184 -2 216q-2 27 -10.5 39.5t-32.5 17.5q-12 3 -34 3q-8 0 -8 6q0 8 16 8q20 0 45 -0.5t42.5 -1.5t18.5 -1t33.5 1.5t50.5 1.5q16 0 16 -8
q0 -6 -8 -6q-7 0 -25 -3q-20 -4 -27.5 -17t-9.5 -40q-2 -32 -2 -216v-107q0 -99 -19 -175t-73 -124q-83 -74 -206 -74q-131 0 -206 71q-87 83 -87 263v146q0 184 -2 216q-2 27 -10.5 39.5t-32.5 17.5q-12 3 -34 3q-8 0 -8 6q0 8 16 8q27 0 71 -1l44 -2q2 0 41.5 1.5
t57.5 1.5q16 0 16 -8q0 -6 -8 -6q-7 0 -25 -3q-19 -3 -27 -16t-10 -41q-2 -32 -2 -216z" />
    <glyph glyph-name="V" unicode="V" horiz-adv-x="741" 
d="M337 45l-245 613q-16 40 -30 54.5t-42 22.5q-15 4 -38 4q-8 0 -8 7t26 7q28 0 70 -1.5t44 -1.5t35 1.5t56 1.5q27 0 27 -7t-10 -7q-27 0 -38 -5q-13 -6 -13 -20q0 -13 20 -64l204 -531q43 99 120 299.5t94 255.5q9 27 9 38q0 16 -13 23q-12 4 -38 4q-11 0 -11 6q0 8 22 8
q24 0 60 -1.5t38 -1.5l30 2q31 1 48 1t17 -7t-12 -7q-29 0 -48 -12q-24 -17 -55 -94q-7 -17 -112 -271q-107 -256 -129 -303q-4 -9 -8.5 -18.5t-7 -15.5t-5.5 -12.5t-5 -10t-4 -7.5l-3 -6t-2.5 -3.5t-3 -2t-3.5 -0.5q-8 0 -14 11t-22 51z" />
    <glyph glyph-name="W" unicode="W" horiz-adv-x="1100" 
d="M276 62l-178 593q-12 39 -23.5 54.5t-31.5 23.5q-16 6 -45 6q-9 0 -9 7t16 7q31 0 75 -1l43 -2q3 0 18.5 1t39 1.5t45.5 0.5q18 0 18 -7t-10 -7q-27 0 -39 -6q-13 -7 -13 -24q0 -8 19 -92q19 -81 135 -487l213 573q17 46 25 46t25 -47l201 -573q4 15 69.5 227.5
t86.5 288.5q11 41 11 64q0 30 -57 30q-9 0 -9 7t17 7q22 0 45.5 -0.5t38.5 -1.5t18 -1l31 2q31 1 50 1q14 0 14 -6q0 -8 -9 -8q-20 0 -34 -5q-20 -7 -34 -32.5t-31 -75.5q-22 -64 -93.5 -283t-90.5 -274q-20 -57 -27 -71.5t-15 -14.5q-7 0 -13 10.5t-17 41.5l-197 559
q-168 -449 -210 -558q-20 -53 -33 -53q-8 0 -14 14t-21 65z" />
    <glyph glyph-name="X" unicode="X" horiz-adv-x="674" 
d="M114 97l181 286l-160 269q-39 66 -78 80q-22 7 -42 7q-9 0 -9 7t17 7t66 -1.5t51 -1.5q1 0 37.5 1.5t56.5 1.5q17 0 17 -7t-9 -7q-19 0 -27 -3q-12 -4 -12 -17q0 -15 10 -33q69 -130 135 -239q23 32 81.5 125.5t65.5 109.5q10 21 10 36q0 13 -17 18q-10 3 -30 3
q-9 0 -9 7t17 7q23 0 55.5 -1.5t33.5 -1.5t32.5 1.5t51.5 1.5q16 0 16 -7t-11 -7q-19 0 -33 -5q-14 -4 -27.5 -17t-22 -24.5t-27.5 -39.5l-161 -242q4 -7 55.5 -93.5t99 -165t56.5 -90.5q27 -35 59 -45q21 -6 35 -6q8 0 8 -6q0 -8 -14 -8q-109 0 -160 2q-31 1 -31 8t6 8
q5 2 7.5 8.5t-2.5 19.5q-64 117 -172 298l-156 -265q-13 -23 -13 -44q0 -15 16 -19q12 -2 19 -2q8 0 8 -7t-12 -7q-14 0 -53.5 1.5t-42.5 1.5q-2 0 -37 -1.5t-54 -1.5q-10 0 -10 7t8 7q19 0 38 5q39 10 83 81z" />
    <glyph glyph-name="Y" unicode="Y" horiz-adv-x="654" 
d="M289 170v86q0 54 -23 105q-5 12 -77.5 131t-98.5 157q-35 52 -68 74q-24 16 -43 16q-10 0 -10 7t13 7q11 0 54.5 -1.5t44.5 -1.5q2 0 15 1t32.5 1.5t36.5 0.5q13 0 13 -7q0 -2 -15 -9q-13 -7 -13 -18q0 -15 13 -39q13 -23 92 -159t92 -157q12 27 77.5 141.5t88.5 152.5
q17 27 17 51t-16 28q-15 5 -15 10q0 6 16 6q15 0 39.5 -1.5t26.5 -1.5q1 0 43.5 1.5t53.5 1.5q13 0 13 -6q0 -8 -13 -8q-24 0 -46 -14q-22 -13 -53 -51q-24 -29 -100.5 -157t-90.5 -161q-15 -36 -15 -100v-86q0 -58 3 -100q3 -50 41 -55q28 -4 45 -4q8 0 8 -6q0 -8 -16 -8
q-24 0 -53.5 0.5t-49 1.5t-20.5 1t-19.5 -0.5t-42 -1.5t-36.5 -1q-16 0 -16 8q0 6 8 6q12 0 30 4q28 6 31 55q3 42 3 100z" />
    <glyph glyph-name="Z" unicode="Z" horiz-adv-x="692" 
d="M184 40h272q73 0 106.5 12t51.5 37q15 22 20 54q3 16 9 16q8 0 8 -23q0 -32 -20 -115q-5 -18 -9 -22t-21 -4q-83 0 -252 2.5t-258 2.5q-18 0 -18 8q0 7 14 28q326 492 439 676h-217q-106 0 -144 -20q-25 -13 -39.5 -36t-17.5 -43q-2 -18 -11 -18q-6 0 -6 13t20 133
q3 19 10 19q3 0 14.5 -3t27.5 -4q71 -3 174 -3h279q20 0 20 -8q0 -6 -4 -12q-166 -263 -448 -690z" />
    <glyph glyph-name="circumflex.cyr" unicode="[" 
d="M428 788q0 -4 -4 -12q-7 -9 -17 -17t-14 -8q-5 0 -6 4q-5 26 -41.5 46.5t-97.5 20.5q-94 0 -149 -63q-7 -7 -12 -7q-2 0 -2.5 1.5t0.5 4.5t3 7q33 46 85 71.5t111 25.5q73 0 116 -32q28 -22 28 -42z" />
    <glyph glyph-name="backslash" unicode="\" horiz-adv-x="479" 
d="M92 756l339 -752q5 -11 -1 -17q-2 -2 -15.5 -9t-15.5 -7q-5 0 -9 9l-340 758q-7 13 -1 17q22 15 30 15q7 0 13 -14z" />
    <glyph glyph-name="bracketright" unicode="]" horiz-adv-x="388" 
d="M203 27v625q0 70 -7 99q-27 11 -105 16q-20 2 -20 8t16 6h158q11 0 13.5 -2.5t2.5 -13.5v-848q0 -8 -3 -10.5t-14 -2.5h-157q-17 0 -17 7q0 8 22 8q70 5 104 15q7 29 7 93z" />
    <glyph glyph-name="asciicircum" unicode="^" horiz-adv-x="579" 
d="M262 750h55l196 -375h-62l-163 320l-161 -320h-61z" />
    <glyph glyph-name="underscore" unicode="_" 
d="M0 -75h500v-50h-500v50z" />
    <glyph glyph-name="grave" unicode="`" 
d="M311 716q0 -2 -5 -2q-12 0 -78 37t-107 65q-15 12 -14 15q0 5 10 8q27 12 46 15q8 1 11.5 -0.5t12.5 -10.5q4 -4 27.5 -29t46.5 -47.5t42 -38.5q8 -7 8 -12z" />
    <glyph glyph-name="a" unicode="a" horiz-adv-x="616" 
d="M381 241h-182q-7 0 -10 -8l-44 -125q-17 -48 -17 -71q0 -26 33 -26h7q12 0 12 -7t-15 -7q-12 0 -43.5 1.5t-35.5 1.5q-1 0 -36 -1.5t-60 -1.5q-16 0 -16 7t12 7q14 0 20 1q29 3 45.5 22t31.5 57l200 527q8 22 12 28t9 6q7 0 20 -32q2 -5 87 -219t116 -288q34 -82 76 -97
q13 -5 34 -5q12 0 12 -7t-15 -7q-85 0 -152 2q-25 1 -25 7q0 5 7 7q11 5 4 22l-79 201q-3 5 -8 5zM209 276h160q5 0 3 6l-79 221q-5 15 -11 0l-75 -221q-3 -6 2 -6z" />
    <glyph glyph-name="b" unicode="b" horiz-adv-x="608" 
d="M155 244v150q0 156 -2 183q-2 22 -10 32.5t-29 14.5q-16 2 -24 2q-13 0 -13 7t15 7q12 0 26.5 -0.5t27.5 -1t24.5 -0.5h18.5l7 -1q10 0 42.5 1.5t53.5 1.5q53 0 91 -13t56 -34t25.5 -40.5t7.5 -38.5q0 -88 -84 -154q59 -18 106 -65t47 -114q0 -76 -59.5 -131t-167.5 -55
q-7 0 -27.5 1t-34.5 1q-42 3 -56 3q-15 0 -44 -1.5t-46 -1.5q-14 0 -14 6q0 8 14 8q10 0 18 2q20 4 26 48q5 37 5 183zM233 599v-223q0 -7 5 -10q18 -3 50 -3q39 0 55 4.5t30 19.5q26 31 26 80q0 59 -28.5 102.5t-87.5 43.5q-23 0 -38 -5q-12 -3 -12 -9zM233 329v-39
q0 -173 1 -181q2 -28 3 -36.5t7.5 -18t21.5 -15.5q26 -13 74 -13q43 0 80.5 26t37.5 87q0 47 -20 95t-66 79q-30 18 -68 22q-36 4 -66 0q-5 0 -5 -6z" />
    <glyph glyph-name="c" unicode="c" horiz-adv-x="709" 
d="M455 -14q-187 0 -293 91q-107 93 -107 255q0 52 24 116t77 115q92 89 269 89q55 0 132 -11q64 -10 88 -11q9 0 9 -10q0 -3 -2 -17t-3 -32q0 -13 -0.5 -49.5t-1.5 -42.5q-1 -19 -8 -19q-8 0 -8 19q0 23 -10.5 48t-28.5 39q-24 21 -73 36t-104 15q-128 0 -192 -58
q-46 -42 -63 -94t-17 -125q0 -126 90.5 -219t220.5 -93q111 0 153 41q25 26 33 72q3 15 11 15q5 0 5 -14q0 -7 -7.5 -51.5t-12.5 -59.5q-4 -12 -8 -16t-15 -9q-47 -20 -158 -20z" />
    <glyph glyph-name="d" unicode="d" horiz-adv-x="810" 
d="M155 246v148q0 157 -2 183q-2 21 -10 32t-29 15q-12 2 -29 2q-10 0 -10 6q0 8 15 8q18 0 44 -1t44 -1l19 -1q2 0 19 0.5t44 1.5t52 1h28h33.5t34 -1t38.5 -2.5t37.5 -5t40.5 -8.5t38 -12.5t39 -17t35 -22.5t34 -29q85 -85 85 -215q0 -142 -95 -239q-98 -98 -267 -98
q-62 0 -125 5q-17 1 -34.5 2t-27 2t-10.5 1q-15 0 -34 -1q-10 0 -30.5 -1t-27.5 -1q-14 0 -14 7t11 7t23 3q20 4 26 46q5 31 5 186zM237 410v-101q0 -40 0.5 -82t0.5 -69.5v-31.5q2 -56 10 -67q25 -38 147 -38q130 0 208 78q65 65 65 199q0 132 -86 215q-58 58 -125 76.5
t-157 18.5q-40 0 -51 -7q-11 -5 -11 -17q-1 -29 -1 -174z" />
    <glyph glyph-name="e" unicode="e" horiz-adv-x="542" 
d="M155 244v150q0 155 -2 182q-2 22 -9.5 33t-28.5 15q-12 2 -24 2q-13 0 -13 6q0 8 15 8q9 0 41 -1t62 -2q183 0 203 1q30 1 39 5q9 3 11 3q4 0 4 -7q0 -2 -3.5 -16.5t-4.5 -28.5q-3 -43 -3 -52q0 -15 -7 -15t-7 11q-1 19 -7 32q-5 16 -17 22t-48 8q-26 2 -114 2
q-5 0 -5 -8v-227q0 -10 6 -10q103 0 135 3q36 2 46 15q5 8 11 8q4 0 4 -6q0 -2 -1 -9t-3 -19.5t-3 -24.5q-2 -17 -3 -38.5t-1 -22.5q-1 -11 -7 -11t-6 13q0 12 -3 24q-8 27 -48 30q-46 4 -120 4q-7 0 -7 -7v-73v-43v-59.5v-33.5q2 -30 7.5 -44.5t20.5 -20.5q19 -9 73 -9
q55 0 76 6t29.5 20.5t15.5 45.5q3 14 9 14t6 -15q0 -25 -11 -87q-3 -15 -11 -18.5t-33 -3.5q-37 0 -76 1t-53 1q-105 3 -118 3q-11 0 -32.5 -1.5t-33.5 -1.5q-14 0 -14 7t9 7t20 3q15 3 23 19.5t9 59.5q2 68 2 151z" />
    <glyph glyph-name="f" unicode="f" horiz-adv-x="525" 
d="M155 244v150q0 155 -2 182q-2 23 -9 34t-29 13q-4 1 -12 1t-13 1q-13 2 -13 8q0 7 15 7q18 0 52 -1.5t50 -1.5q197 0 218 1q31 2 45 7q7 3 10 3q6 0 3 -9q-4 -16 -6 -31t-3.5 -40t-1.5 -30q0 -15 -7 -15q-6 0 -8 12q0 34 -16 50q-13 12 -56 14q-86 2 -126 2q-9 0 -9 -10
v-226q0 -9 7 -9q89 0 122 1q32 1 45 4t22 15q6 8 10 8t4 -9q0 -2 -1 -8.5t-3 -18.5t-3 -25q-4 -36 -4 -58q0 -15 -7 -15q-5 0 -7 15q-3 48 -52 54q-20 3 -126 3q-7 0 -7 -9v-70q0 -87 2 -167q1 -36 7.5 -47t28.5 -14q13 -2 31 -4q12 -1 12 -7q0 -7 -13 -7q-23 0 -49.5 0.5
t-43.5 1.5l-18 1h-7q-57 -3 -81 -3q-14 0 -14 7q0 6 10 7q3 0 10.5 0.5t10.5 1.5q16 2 21 13.5t7 41.5q4 49 4 176z" />
    <glyph glyph-name="g" unicode="g" horiz-adv-x="761" 
d="M652 161v-90q0 -29 -2 -35.5t-10 -11.5q-75 -38 -184 -38q-185 0 -293 90q-46 38 -77 101t-31 142q0 97 42.5 169.5t108.5 112.5q87 51 223 51q59 0 143 -14q38 -7 76 -9q8 0 8 -8q0 -3 -2 -17.5t-3.5 -44t-1.5 -68.5q0 -18 -8 -18q-5 0 -7 12q0 34 -19 62t-74 49
t-133 21q-35 0 -58 -2t-59 -14.5t-67 -36.5q-39 -30 -61.5 -85.5t-22.5 -128.5q0 -78 30.5 -140.5t60.5 -91.5q96 -93 227 -93q62 0 95 17q17 10 17 30v144q0 50 -7 65t-33 19q-12 2 -24 2t-12 7t15 7q18 0 42.5 -0.5t41.5 -1t18 -0.5t18 0.5t38.5 1t33.5 0.5q14 0 14 -7
t-12 -7q-9 0 -17 -1q-17 -2 -23.5 -14t-8.5 -36q-2 -29 -2 -90z" />
    <glyph glyph-name="h" unicode="h" horiz-adv-x="846" 
d="M243 372h362q6 0 6 5v18q0 155 -2 182q-2 23 -9 33t-30 14q-14 2 -25 2q-12 0 -12 7t14 7q19 0 44 -1t42.5 -1.5t18.5 -0.5t17.5 0.5t38 1.5t34.5 1q16 0 16 -7t-11 -7q-8 0 -20 -2q-19 -3 -25 -13.5t-8 -34.5q-1 -27 -1 -182v-150q0 -147 4 -183q5 -44 34 -47
q19 -3 35 -3q13 0 13 -7t-15 -7q-22 0 -49 0.5t-45 1.5t-19 1t-18 -0.5t-38 -1.5t-33 -1q-15 0 -15 8q0 6 11 6q15 0 23 2q19 3 25 48q5 36 5 180v89q0 6 -6 6h-363q-5 0 -5 -6v-89q0 -146 5 -182q6 -42 34 -45q20 -3 36 -3q12 0 12 -7t-13 -7q-23 0 -50 0.5t-45.5 1.5
t-19.5 1t-18 -0.5t-39 -1.5t-33 -1q-16 0 -16 7t11 7q12 0 24 3q19 4 25 45q5 30 5 185v148q0 158 -2 185q-3 44 -38 48q-18 2 -27 2q-11 0 -11 6q0 7 15 7q25 0 63 -1.5t41 -1.5q1 0 18 0.5t38.5 1.5t33.5 1q15 0 15 -7q0 -6 -10 -6q-9 0 -20 -2q-18 -3 -24.5 -14.5
t-8.5 -34.5q-1 -27 -1 -181v-18q0 -5 6 -5z" />
    <glyph glyph-name="i" unicode="i" horiz-adv-x="392" 
d="M155 244v150q0 156 -2 183q-3 41 -29 46q-6 1 -13.5 2t-9.5 1q-11 2 -11 7q0 7 15 7q14 0 36 -1t39 -1l16 -1q1 0 18 0.5t38.5 1.5t33.5 1q15 0 15 -7q0 -6 -11 -7q-3 -1 -9 -1.5t-9 -0.5q-14 -2 -21.5 -8.5t-9.5 -14.5t-3 -25q-1 -14 -1 -182v-150q0 -154 4 -183
q3 -23 9 -32.5t25 -13.5q17 -4 38 -4q11 -1 11 -7q0 -7 -14 -7q-23 0 -50 0.5t-45 1.5t-19 1t-17.5 -0.5t-38.5 -1.5t-34 -1q-16 0 -16 7t13 7q12 0 24 3q18 4 23 48q5 36 5 182z" />
    <glyph glyph-name="j" unicode="j" horiz-adv-x="372" 
d="M238 394v-191q0 -90 -1 -123t-6.5 -71.5t-19.5 -69.5q-26 -61 -136 -135q-5 -2 -17.5 -10.5t-17.5 -10.5q-1 -1 -6 -1q-7 0 -7 5q0 4 13 13q14 7 28 21q34 33 50.5 61t27.5 92.5t11 175.5v244q0 155 -2 182q-2 21 -10.5 32t-28.5 16q-12 2 -30 2q-7 0 -7 6q0 8 15 8
q19 0 43.5 -1t42.5 -1l17 -1q1 0 18 0.5t39 1.5t34 1q14 0 14 -8q0 -6 -6 -6q-1 0 -23 -2q-30 -7 -33 -49q-2 -27 -2 -181z" />
    <glyph glyph-name="k" unicode="k" horiz-adv-x="688" 
d="M237 394v-47q120 107 200 194q36 40 44 50.5t8 18.5q0 11 -16 16q-11 3 -11 8q0 6 10 6q2 0 12.5 -1t26 -1.5t29.5 -0.5q17 0 55.5 1.5t42.5 1.5q16 0 16 -6q0 -7 -11 -8q-29 -2 -49 -10q-17 -6 -32.5 -17.5t-56.5 -48.5t-114 -106t-90 -85q156 -161 258 -254
q85 -78 144 -91q5 -1 23 -3q14 -2 14 -8t-16 -6h-65q-56 0 -81 7.5t-57 29.5q-33 24 -128.5 121t-155.5 168v-79q0 -154 4 -183q3 -23 9 -32.5t25 -13.5q17 -4 38 -4q11 -1 11 -7q0 -7 -14 -7q-23 0 -50 0.5t-45 1.5t-19 1t-17.5 -0.5t-38.5 -1.5t-34 -1q-16 0 -16 7t13 7
q12 0 24 3q18 4 23 48q5 36 5 182v150q0 156 -2 183q-3 41 -29 46q-6 1 -13.5 2t-9.5 1q-11 2 -11 7q0 7 15 7q14 0 36 -1t39 -1l16 -1q1 0 18 0.5t38.5 1.5t33.5 1q15 0 15 -7q0 -6 -11 -7q-3 -1 -9 -1.5t-9 -0.5q-14 -2 -21.5 -8.5t-9.5 -14.5t-3 -25q-1 -14 -1 -182z" />
    <glyph glyph-name="l" unicode="l" horiz-adv-x="524" 
d="M237 394v-152q0 -169 21 -189q23 -20 105 -20q29 0 43.5 1t33.5 7.5t29 19.5q15 23 19 50q2 12 8 12t6 -13q0 -44 -12 -90q-3 -10 -4 -12.5t-6.5 -7t-15 -5t-27.5 -0.5q-30 0 -109.5 2.5t-133.5 2.5q-16 0 -43 -1.5t-45 -1.5q-16 0 -16 8q0 6 11 6q16 0 24 2q21 4 26 47
q4 25 4 184v150q0 154 -2 181q-1 16 -3.5 25t-11.5 16t-25 9q-6 1 -25 1q-11 0 -11 7t15 7q12 0 26.5 -0.5t27.5 -1t24.5 -0.5h18.5l7 -1q5 0 46 1.5t57 1.5q13 0 13 -7t-11 -7q-7 0 -27 -2q-20 -3 -27 -14t-9 -35q-1 -14 -1 -181z" />
    <glyph glyph-name="m" unicode="m" horiz-adv-x="924" 
d="M752 627l63 -520q10 -80 48 -89q20 -5 51 -7q13 0 13 -6q0 -8 -15 -8q-62 0 -158 6q-30 3 -30 9q0 5 9 9t6 28l-44 428l-212 -430q-22 -44 -26 -47q-2 -1 -5 -1q-6 0 -30 43q-7 12 -31.5 60t-46 91t-24.5 47q-107 214 -112 227l-37 -385q-1 -14 -1 -38q0 -25 25 -30
q2 0 28 -3q10 -1 10 -6q0 -8 -17 -8q-19 0 -50.5 1.5t-32.5 1.5q-3 0 -33 -1.5t-44 -1.5q-15 0 -15 8q0 6 13 6q8 0 19 1q30 3 38 66l67 549q3 25 11 25q6 0 15 -16l268 -519l255 518q8 17 15 17q8 0 10 -25z" />
    <glyph glyph-name="n" unicode="n" horiz-adv-x="839" 
d="M128 122v489q0 41 11 41q4 0 31 -27q9 -10 288 -295q40 -39 116 -115l88 -88l-11 416q-1 41 -7.5 57.5t-26.5 21.5q-23 4 -39 4q-12 0 -12 8q0 6 18 6q26 0 60 -2l34 -1q1 0 29 1.5t51 1.5q14 0 14 -6t-9 -8q-2 0 -10.5 -1t-14.5 -2q-18 -4 -24 -18t-6 -57l-2 -502
q0 -19 -0.5 -29.5t-1.5 -16.5t-2.5 -7.5t-4.5 -1.5q-10 0 -66 53q-2 1 -38.5 36.5t-98 96.5t-93.5 92q-104 108 -229 238l13 -391q2 -54 8.5 -75.5t24.5 -25.5q16 -4 41 -4q12 0 12 -7t-16 -7q-24 0 -46.5 0.5t-35.5 1.5t-15 1t-15 -0.5t-33 -1.5t-39 -1q-15 0 -15 7t14 7
q18 0 31 4q16 5 21.5 28t5.5 79z" />
    <glyph glyph-name="o" unicode="o" horiz-adv-x="810" 
d="M400 -14q-88 0 -156.5 30.5t-108.5 80t-60 106.5t-20 117q0 42 12.5 86t40 88.5t67 79t99.5 56.5t131 22q152 0 250.5 -86t98.5 -233q0 -146 -98.5 -246.5t-255.5 -100.5zM425 20q25 0 51 5t60.5 23.5t60.5 48t44.5 84.5t18.5 127q0 145 -76.5 229t-184.5 84
q-111 0 -181 -70t-70 -205q0 -147 75.5 -236.5t201.5 -89.5z" />
    <glyph glyph-name="p" unicode="p" horiz-adv-x="570" 
d="M156 244v150q0 156 -2 183q-3 41 -38 48q-14 2 -31 2q-6 0 -6 5q0 8 14 8q19 0 43.5 -1t42 -1.5t18.5 -0.5q8 0 49 1.5t64 1.5q108 0 164 -48q44 -39 44 -112q0 -83 -61.5 -137.5t-155.5 -54.5q-14 0 -19 1q-9 0 -9 6t4.5 7t20.5 1q61 0 103 39t42 103q0 76 -43 121
q-44 47 -124 47q-24 0 -34 -5q-6 -2 -6 -16v-346q0 -149 4 -185q5 -44 35 -47q24 -4 40 -4q6 0 6 -5q0 -8 -14 -8q-23 0 -50 0.5t-44.5 1.5t-18.5 1h-6q-7 -1 -17.5 -1.5t-21.5 -0.5t-23 -0.5t-20 -0.5q-14 0 -14 8q0 5 7 5q10 0 26 4q21 3 26 47q5 36 5 183z" />
    <glyph glyph-name="q" unicode="q" horiz-adv-x="814" 
d="M539 14q-52 -28 -136 -28q-89 0 -158 30t-109 80t-60.5 107.5t-20.5 117.5q0 53 20.5 108.5t61 106.5t110.5 83.5t158 32.5q153 0 251 -86.5t98 -232.5q0 -54 -16.5 -104t-43 -85t-50 -58t-46.5 -37l186 -93q194 -97 365 -97q85 0 169 33q8 3 13 3q6 0 6 -4q0 -5 -11 -10
q-120 -60 -280 -60q-152 0 -360 114zM425 20q26 0 52.5 5.5t61 24.5t60 48.5t43.5 84.5t18 126q0 143 -76 227.5t-186 84.5t-180 -70t-70 -206q0 -143 78.5 -234t198.5 -91z" />
    <glyph glyph-name="r" unicode="r" horiz-adv-x="667" 
d="M156 244v150q0 156 -2 183q-2 22 -10 33t-30 15q-12 2 -24 2q-11 0 -11 6q0 7 12 7t27 -0.5t28.5 -1t24.5 -0.5h19l7 -1q2 0 45.5 1.5t59.5 1.5q110 0 164 -38q60 -44 60 -122q0 -103 -106 -189q133 -164 184 -217q52 -53 106 -61q14 -2 31 -2q11 0 11 -7t-18 -7h-70
q-62 0 -91 12q-9 4 -17 9t-17 13.5t-15.5 15t-17.5 19.5t-17 20.5t-19.5 25.5t-20.5 27q-22 28 -56.5 72t-39.5 51q-6 6 -12 6l-103 1q-5 0 -5 -5v-14q0 -153 5 -189q2 -15 4 -23t10.5 -15.5t24.5 -9.5q20 -2 29 -2q13 0 13 -6q0 -8 -14 -8q-23 0 -50 0.5t-45 1.5l-17 1
q-7 0 -39.5 -1.5t-47.5 -1.5q-14 0 -14 8q0 6 12 6q14 0 22 2q22 4 26 38q4 29 4 193zM233 595v-272q0 -9 5 -12q24 -13 89 -13q44 0 67 15q50 32 50 127q0 81 -39.5 125t-107.5 44q-38 0 -58 -5q-6 -2 -6 -9z" />
    <glyph glyph-name="s" unicode="s" horiz-adv-x="512" 
d="M224 -14q-70 0 -119 22q-9 4 -11 9.5t-2 24.5q0 38 4 94q2 14 8 14q7 0 7 -10q0 -18 3 -30q9 -46 45.5 -68t84.5 -22q58 0 90.5 32.5t32.5 74.5t-21.5 74t-77.5 77l-40 31q-68 54 -92 97t-24 92q0 69 50.5 111.5t134.5 42.5q46 0 81 -8q24 -5 34 -5q9 0 9 -6l-1 -13
q-1 -12 -2 -35t-1 -49q0 -21 -7 -21q-5 0 -7 11q-3 31 -12 47q-26 47 -112 47q-46 0 -75.5 -26t-29.5 -70q0 -35 22 -63t85 -76l23 -18q75 -58 103 -103t28 -101q0 -35 -17.5 -74.5t-58.5 -67.5q-55 -35 -135 -35z" />
    <glyph glyph-name="t" unicode="t" horiz-adv-x="612" 
d="M350 601v-357q0 -139 5 -185q2 -15 3.5 -21.5t8 -13t18.5 -9.5q16 -4 39 -4q12 0 12 -6q0 -8 -13 -8q-23 0 -50 0.5t-45 1.5l-19 1q-1 0 -18 -0.5t-38.5 -1.5t-32.5 -1q-15 0 -15 7t11 7q14 0 22 1q14 2 18.5 12t7.5 37q4 36 4 183v357q-86 0 -126 -1q-45 -1 -62.5 -8
t-29.5 -24q-7 -11 -15 -31q-3 -8 -9 -8q-5 0 -5 9q-1 5 20 99q4 16 9 16q3 0 18.5 -5t25.5 -6q44 -5 64 -5h328q49 0 72 5q17 4 19 4q6 0 6 -9q0 -17 -1 -59t-1 -43q0 -12 -7 -12t-7 12q0 4 -1 14q-3 31 -23.5 40.5t-94.5 10.5q-20 0 -52.5 0.5t-45.5 0.5z" />
    <glyph glyph-name="u" unicode="u" horiz-adv-x="727" 
d="M187 394v-119q0 -87 15 -134t46 -74q52 -46 132 -46q87 0 137 58q49 56 49 209v106q0 154 -2 181q-1 17 -3.5 25t-10.5 15t-23 9q-14 2 -28 2q-10 0 -10 6q0 8 14 8q19 0 42 -1t38.5 -1.5t16.5 -0.5t14.5 0.5t31.5 1.5t30 1q14 0 14 -7t-10 -7q-8 0 -18 -1
q-19 -2 -25.5 -13.5t-8.5 -36.5q-1 -27 -1 -181v-89q0 -189 -81 -259q-71 -60 -183 -60q-122 0 -187 60q-74 69 -74 224v124q0 155 -3 182q-1 23 -8 34t-29 14q-12 2 -26 2q-11 0 -11 6q0 8 15 8q19 0 43.5 -1t41.5 -1.5t19 -0.5t40 1.5t54 1.5q14 0 14 -7t-12 -7
q-6 0 -22 -2q-17 -2 -22.5 -13t-7.5 -35q-1 -27 -1 -182z" />
    <glyph glyph-name="v" unicode="v" horiz-adv-x="654" 
d="M296 42l-216 516q-16 37 -26.5 49t-36.5 16q-21 3 -30 3q-12 0 -12 7t16 7q27 0 70 -1.5t44 -1.5t36 1.5t57 1.5q16 0 16 -6q0 -8 -15 -8q-18 0 -31 -5q-9 -5 -9 -17t16 -50l176 -442q37 83 103 249.5t80 211.5q8 21 8 33q0 13 -9 16q-11 4 -32 4q-13 0 -13 6q0 8 15 8
q21 0 57 -1.5t38 -1.5q1 0 13 0.5t28.5 1.5t27.5 1q15 0 15 -6q0 -8 -11 -8q-25 0 -43 -10q-21 -15 -47 -78q-10 -24 -100 -230q-88 -207 -111 -252q-5 -10 -10 -21t-8 -17t-6 -12.5t-4.5 -9.5t-3.5 -5.5t-4 -3.5t-4 -1q-9 0 -14.5 10t-19.5 46z" />
    <glyph glyph-name="w" unicode="w" horiz-adv-x="966" 
d="M238 62l-154 493q-11 35 -20 48t-29 19q-15 4 -36 4q-12 0 -12 8q0 6 15 6q23 0 47.5 -1t41 -1.5t19.5 -0.5q2 0 17 0.5t37.5 1.5t43.5 1q14 0 14 -7q0 -8 -14 -8q-21 0 -32 -4q-10 -3 -10 -21q0 -5 17 -77q9 -37 55 -196.5t59 -202.5l185 470q16 43 24 43t24 -44
l177 -470q9 29 64.5 204t70.5 231q8 30 8 42q0 13 -9 19.5t-39 6.5q-13 0 -13 8q0 6 15 6q16 0 35.5 -1t33 -1.5t15.5 -0.5l33 1q33 2 49 2q12 0 12 -6q0 -8 -13 -8q-11 0 -26 -3q-6 -1 -11.5 -4.5t-10 -9.5t-8 -11.5t-7.5 -15.5t-6 -16t-6.5 -18.5t-6.5 -18.5
q-21 -57 -82.5 -238.5t-75.5 -220.5q-31 -84 -41 -84q-11 0 -29 51l-172 456q-79 -193 -183 -456q-20 -51 -31 -51q-7 0 -13 13.5t-22 62.5z" />
    <glyph glyph-name="x" unicode="x" horiz-adv-x="598" 
d="M98 83l160 241l-142 230q-15 23 -22 33t-18 19.5t-25 13.5q-18 6 -35 6q-13 0 -13 7t15 7q14 0 60.5 -1.5t47.5 -1.5t34.5 1.5t51.5 1.5q16 0 16 -6q0 -8 -12 -8q-15 0 -24 -3q-10 -3 -10 -12q0 -10 12 -31q53 -97 116 -197q24 34 72.5 108t53.5 87q11 20 11 30
q0 14 -18 16q-14 2 -22 2q-12 0 -12 8q0 6 14 6q16 0 35 -1t32.5 -1.5t15.5 -0.5q1 0 30.5 1.5t48.5 1.5q12 0 12 -6q0 -8 -11 -8q-14 0 -32 -5q-5 -1 -9.5 -4t-10 -7.5t-9 -8t-9 -11t-8.5 -11t-10 -13.5t-9 -13l-141 -203q5 -7 49.5 -80t86.5 -139.5t50 -76.5
q9 -12 13 -16.5t14.5 -12t22.5 -10.5q17 -4 27 -4q12 0 12 -7t-13 -7q-128 0 -161 2q-11 1 -13 2.5t-2 6.5q0 3 10 6q12 3 -1 24q-50 89 -147 248l-135 -220q-15 -26 -15 -37q0 -14 18 -17q6 -1 12 -1q12 0 12 -7t-11 -7q-12 0 -49 1.5t-39 1.5t-15 -0.5t-30.5 -1.5
t-31.5 -1q-13 0 -13 7t11 7q10 0 29 4q34 9 73 68z" />
    <glyph glyph-name="y" unicode="y" horiz-adv-x="579" 
d="M252 142v73q0 54 -22 92q-7 14 -70 114.5t-83 128.5q-34 47 -51 61q-19 14 -47 15q-11 0 -11 8q0 6 12 6q7 0 30 -1t44 -1l20 -1q2 0 13.5 0.5t29 1.5t33.5 1q13 0 13 -6q0 -5 -11 -8q-16 -3 -16 -16q0 -9 13 -33q6 -11 42 -70t75 -122t43 -70q7 15 39 69.5t65.5 110
t37.5 63.5q23 40 23 53q0 3 -1 5.5t-2 4t-4.5 2.5t-4.5 1t-5.5 1t-5.5 1q-11 1 -11 8q0 6 12 6q13 0 33.5 -1.5t27.5 -1.5q6 0 42.5 1.5t45.5 1.5q12 0 12 -6q0 -8 -12 -8q-34 -2 -50 -13q-14 -9 -37 -41q-41 -56 -99.5 -152.5t-70.5 -125.5q-10 -26 -10 -79v-73
q0 -44 2 -80q1 -15 3 -22t9.5 -14.5t22.5 -10.5q17 -4 37 -4q11 0 11 -6q0 -8 -12 -8q-14 0 -30.5 0.5t-30.5 0.5t-26 0.5t-19.5 1t-8.5 0.5h-17q-17 -1 -39 -2t-34 -1q-14 0 -14 8q0 6 10 6q13 0 25 3q22 4 26 48q3 36 3 80z" />
    <glyph glyph-name="z" unicode="z" horiz-adv-x="612" 
d="M173 37h232q68 0 98.5 8.5t42.5 32.5q9 16 15 47q3 14 8 14q7 0 7 -15q0 -41 -18 -104q-5 -17 -9.5 -20.5t-20.5 -3.5q-72 0 -219 2t-227 2q-16 0 -16 7q0 6 12 24q294 433 380 571h-183q-102 0 -133 -11t-44 -75q-4 -16 -10 -16q-5 0 -5 12q0 6 17 117q3 17 10 17
q3 0 14 -2.5t26 -3.5q95 -3 151 -3h244q20 0 20 -6t-7 -16q-336 -506 -385 -578z" />
    <glyph glyph-name="breve.cyr" unicode="{" 
d="M83 809q0 4 4 12q7 9 17 17t14 8q5 0 6 -4q5 -26 41.5 -46.5t97.5 -20.5q94 0 149 63q7 7 12 7q2 0 2.5 -1.5t-0.5 -4.5t-3 -7q-33 -46 -85 -71.5t-111 -25.5q-73 0 -116 32q-28 22 -28 42z" />
    <glyph glyph-name="bar" unicode="|" horiz-adv-x="495" 
d="M269 -250h-42v1000h42v-1000z" />
    <glyph glyph-name="braceright" unicode="}" horiz-adv-x="404" 
d="M282 361q-108 32 -108 139q0 11 2 38.5t2 63.5q0 48 -8.5 81t-25.5 50.5t-29.5 24.5t-33.5 14q-11 5 -11 7q0 6 14 6q23 0 54 -11.5t54 -33.5q30 -30 42 -67.5t12 -95.5q0 -19 -3.5 -54.5t-3.5 -67.5q0 -71 75 -84q15 -3 15 -8q0 -6 -18 -10q-72 -14 -72 -91
q0 -19 3.5 -81.5t3.5 -82.5q0 -54 -18.5 -95.5t-46 -62.5t-53.5 -31.5t-48 -10.5q-9 0 -9 5q0 4 9 7q98 29 98 133q0 27 -2 85t-2 72q0 55 29 100t79 61z" />
    <glyph glyph-name="asciitilde" unicode="~" horiz-adv-x="661" 
d="M144 278h-50q-3 70 27 107.5t84 37.5q31 0 56 -10t75 -39q74 -43 109 -43q33 0 46.5 20t14.5 71h49q4 -145 -110 -145q-31 0 -57.5 10.5t-73.5 38.5q-73 44 -107 44q-32 0 -47 -20.5t-16 -71.5z" />
    <glyph glyph-name="exclamdown" unicode="&#xa1;" horiz-adv-x="360" 
d="M162 566q12 0 14 -34q11 -175 16 -255q10 -154 19 -188q4 -16 4 -19q0 -6 -5 -14q-12 -20 -43.5 -46.5t-51.5 -26.5q-6 0 -6 10q0 2 2 19t5.5 49t5.5 64q12 219 28 409q2 32 12 32zM160 767q24 0 37 -15.5t13 -35.5q0 -19 -13 -35t-38 -16q-22 0 -36.5 13.5t-14.5 34.5
q0 23 14.5 38.5t37.5 15.5z" />
    <glyph glyph-name="cent" unicode="&#xa2;" horiz-adv-x="571" 
d="M372 599l-41 -444q19 -3 42 -3q106 0 128 85q4 17 10 17q5 0 5 -11q0 -20 -15 -91q-4 -16 -14 -18q-57 -20 -131 -20q-19 0 -29 1l-12 -133q0 -6 -10 -8l-19 -6q-4 -1 -6 1.5t-1 8.5l13 141q-103 16 -169 82.5t-66 179.5q0 110 82 181q78 65 200 70l9 101q0 7 6 9l23 7
q8 2 8 -5l-10 -111q69 0 137 -26q7 -4 7 -14q0 -52 -6 -94q-1 -15 -8 -15t-7 14q-5 43 -18 59q-30 35 -108 42zM296 163l40 438q-91 -1 -141.5 -57t-50.5 -148q0 -86 40 -148t112 -85z" />
    <glyph glyph-name="sterling" unicode="&#xa3;" horiz-adv-x="571" 
d="M251 0h-233q-29 0 -29 10q0 13 20 17q36 8 61 27.5t39 52t21.5 64.5t13.5 81l13 105h-75q-7 0 -13.5 -1t-7.5 -1q-8 0 -3 9l12 21q3 8 14 8h79l10 70q12 86 34.5 147t69.5 101q64 56 151 56q45 0 87 -12q11 -3 27 -5q7 -1 7 -12q0 -84 -5 -114q-2 -12 -8 -12q-7 0 -8 15
q-4 42 -22 66q-29 39 -101 39q-63 0 -98.5 -52t-45.5 -133l-18 -154h109q12 0 22.5 1.5t17 2.5t7.5 1q9 0 5 -10l-11 -24q-4 -8 -16 -8h-140l-5 -42q-5 -37 -14.5 -76t-36.5 -93.5t-64 -86.5l2 -2l312 3q42 1 64 19.5t29 62.5q1 10 8 10t7 -15q0 -36 -17 -121
q-3 -13 -12 -16.5t-49 -3.5q-34 0 -110.5 2.5t-99.5 2.5z" />
    <glyph glyph-name="currency" unicode="&#xa4;" horiz-adv-x="571" 
d="M519 553l-79 -71q38 -48 38 -125q0 -85 -40 -134l76 -73l-33 -35l-71 80q-50 -50 -124 -50q-79 0 -125 48l-66 -77l-31 34l71 70q-40 49 -40 130q0 77 42 132l-75 71l33 37l67 -80q47 49 127 49q79 0 124 -48l73 77zM429 354q0 67 -39 115t-104 48q-66 0 -104.5 -45
t-38.5 -120q0 -80 43.5 -122.5t99.5 -42.5q61 0 102 41.5t41 125.5z" />
    <glyph glyph-name="yen" unicode="&#xa5;" horiz-adv-x="571" 
d="M106 397h127q-16 30 -67 127t-67 128q-23 44 -39 62t-40 22q-14 2 -24 3q-9 1 -9 8q0 6 12 6q13 0 45 -1.5t46 -1.5q2 0 36 1.5t51 1.5q13 0 13 -6q0 -7 -12 -8q-27 -2 -27 -17q0 -6 19 -42q50 -99 134 -257q17 33 62.5 128t51.5 106q22 46 22 62q0 18 -39 20
q-12 1 -12 8q0 6 14 6q13 0 42 -1.5t39 -1.5q13 0 42.5 1.5t37.5 1.5q12 0 12 -6q0 -7 -13 -8q-34 -4 -49.5 -15.5t-38.5 -49.5q-39 -65 -144 -277h134h4t2 -1.5t0 -4.5l-5 -22q-1 -5 -9 -5h-133v-72h141q4 0 5 -1t0 -6l-4 -21q-1 -5 -12 -5h-130v-69q0 -78 3 -120
q3 -50 41 -55q28 -4 41 -4q12 0 12 -6q0 -8 -15 -8q-24 0 -54 0.5t-49.5 1.5t-20.5 1t-19.5 -0.5t-42 -1.5t-36.5 -1q-16 0 -16 8q0 6 11 6q12 0 26 3q29 6 32 56q3 40 3 120v69h-139q-9 0 -6 9l5 20q1 4 7 4h133v72h-139q-7 0 -8 2t2 11l5 16q1 4 6 4z" />
    <glyph glyph-name="brokenbar" unicode="&#xa6;" horiz-adv-x="495" 
d="M269 325h-42v350h42v-350zM269 -175h-42v350h42v-350z" />
    <glyph glyph-name="uni0424.alt" unicode="&#xa7;" horiz-adv-x="926" 
d="M507 679v-604q0 -2 3 -2q121 4 190 88.5t69 218.5q0 133 -67.5 213.5t-190.5 90.5q-3 0 -4 -5zM429 76v607q0 3 -6 3q-141 -8 -204 -82t-63 -188q0 -139 73.5 -234.5t195.5 -107.5q4 -1 4 2zM427 3v33q0 3 -4 3q-94 5 -165.5 37t-112.5 82t-61 109t-20 125
q0 62 19.5 116.5t60.5 101t113 75.5t168 32q4 0 4 22v8q0 48 -7 61.5t-26 19.5q-2 1 -27 3q-13 1 -13 8q0 6 17 6q15 0 53.5 -1t40.5 -1t40.5 1t52.5 1q16 0 16 -6q0 -7 -14 -8q-1 0 -6.5 -1t-10.5 -2q-22 -5 -29.5 -18.5t-7.5 -60.5v-10q0 -22 2 -22q176 -10 264 -94.5
t88 -220.5q0 -161 -93 -256.5t-257 -105.5q-4 0 -4 -2v-33q1 -49 8.5 -66.5t29.5 -22.5q2 0 28 -3q15 -1 15 -7t-17 -6q-24 0 -58.5 1t-45.5 1q-8 0 -43 -1t-50 -1q-16 0 -16 6t14 7q22 2 24 3q17 4 23 22.5t7 64.5z" />
    <glyph glyph-name="dieresis" unicode="&#xa8;" 
d="M361 750q-19 0 -29 12t-10 27q0 14 10.5 26.5t29.5 12.5q17 0 27.5 -10.5t10.5 -26.5q0 -18 -10.5 -29.5t-28.5 -11.5zM138 750q-19 0 -28.5 12t-9.5 27t10 27t29 12q17 0 27.5 -10.5t10.5 -26.5q0 -18 -10.5 -29.5t-28.5 -11.5z" />
    <glyph glyph-name="uni040F.alt" unicode="&#xa9;" horiz-adv-x="950" 
d="M730 0h-230q-3 0 -3 -3q3 -53 14.5 -95t21.5 -56q3 -4 0 -9q-13 -20 -37 -39.5t-35 -20.5q-9 -2 -10 18q-3 57 14 201q0 4 -3 4h-244q-5 0 -38.5 -1.5t-54.5 -1.5q-19 0 -19 6t13 9q18 2 26 4q17 5 22 20.5t7 48.5q4 64 4 200v178q0 184 -2 216q-2 27 -10.5 39.5
t-32.5 17.5q-12 3 -34 3q-8 0 -8 6q0 8 16 8q20 0 47 -0.5t46 -1.5t20 -1t19.5 1t42 1.5t36.5 0.5q16 0 16 -8q0 -6 -8 -6q-7 0 -25 -3q-20 -4 -27.5 -17t-9.5 -40q-2 -32 -2 -216v-159q0 -203 4 -246q1 -12 10 -13q20 -2 100 -2h131q151 0 169 3q9 1 9 10q3 30 3 235v172
q0 184 -2 216q-2 27 -10.5 39.5t-32.5 17.5q-12 3 -34 3q-8 0 -8 6q0 8 16 8q20 0 47 -0.5t46 -1.5t20 -1t19.5 1t42 1.5t36.5 0.5q16 0 16 -8q0 -6 -8 -6q-7 0 -25 -3q-20 -4 -27.5 -17t-9.5 -40q-2 -32 -2 -216v-175q0 -176 5 -218q3 -25 10.5 -38.5t28.5 -16.5
q28 -4 41 -4q12 0 12 -6q0 -8 -16 -8q-24 0 -53.5 0.5t-49 1.5t-20.5 1z" />
    <glyph glyph-name="ordfeminine" unicode="&#xaa;" horiz-adv-x="438" 
d="M330 553l-2 -133q0 -64 34 -64q10 0 20 3q7 3 7 -2q0 -3 -4 -9q-23 -21 -56 -21q-27 0 -43 13t-18 32q-47 -47 -104 -47q-45 0 -70 27t-25 66q0 92 202 119v27q0 41 -18.5 72.5t-65.5 31.5q-77 0 -88 -70q-2 -10 -6 -10q-5 0 -5 11q0 5 1 29t1 29q0 10 7 14q8 4 24 10
t19 7q36 13 69 13q66 0 94.5 -42.5t26.5 -105.5zM268 413l3 98q-83 -10 -112 -31.5t-29 -54.5q0 -30 20 -45.5t47 -15.5q37 0 65 30q6 7 6 19z" />
    <glyph glyph-name="guillemotleft" unicode="&#xab;" horiz-adv-x="588" 
d="M292 134l-26 -28q-5 -5 -9 -5q-5 0 -26 25q-18 22 -71.5 81.5t-70.5 76.5t-17 22q0 4 16 18q21 18 98 91t94 89q12 12 18 12q6 -3 1.5 -10.5t-9.5 -12.5q-21 -27 -82 -94t-75 -85q9 -12 148 -158l15 -15q0 -3 -4 -7zM506 134l-26 -27q-6 -6 -9 -6q-5 0 -26 25
q-18 22 -71.5 81.5t-70.5 76.5t-17 22q0 4 16 18q21 18 98 91t94 89q12 12 18 12q8 0 -8 -23q-21 -27 -82 -94t-75 -85q9 -12 148 -158l15 -15q0 -3 -4 -7z" />
    <glyph glyph-name="logicalnot" unicode="&#xac;" horiz-adv-x="661" 
d="M567 141h-52v195h-422v53h474v-248z" />
    <glyph glyph-name="braceleft" unicode="&#xad;" horiz-adv-x="404" 
d="M121 363q108 -29 108 -139q0 -12 -1.5 -58t-1.5 -82q0 -48 8.5 -81.5t25.5 -51.5t30.5 -25.5t33.5 -14.5q10 -3 10 -8t-10 -5q-24 0 -57 11t-56 34q-53 53 -53 166q0 19 3.5 74t3.5 86q0 41 -20 59.5t-56 24.5q-15 3 -15 9q0 5 19 9q72 16 72 91q0 20 -3.5 63t-3.5 62
q0 54 18 95t45.5 62t53 31t47.5 10q11 0 11 -5q0 -4 -9 -7q-98 -30 -98 -134q0 -27 1.5 -65.5t1.5 -52.5q0 -55 -29 -98.5t-79 -59.5z" />
    <glyph glyph-name="uni04F2.alt" unicode="&#xae;" horiz-adv-x="739" 
d="M187 -139q-17 0 -17 7t15 7q51 2 76.5 18.5t55.5 70.5q7 13 36 76q3 8 -1 21q-15 39 -125.5 289.5t-138.5 307.5q-26 50 -42 63.5t-58 17.5q-14 2 -14 7q0 7 16 7q15 0 52 -1.5t51 -1.5q3 0 38.5 1.5t53.5 1.5q13 0 13 -6q0 -8 -13 -9q-28 -2 -28 -16q0 -8 14 -40
q28 -69 231 -530q101 253 194 507q17 47 17 62q0 12 -19 16q-13 3 -13 10q0 5 18 5q8 0 27.5 -1t31.5 -1q14 0 48 1.5t43 1.5q16 0 16 -6q0 -7 -14 -8q-25 -3 -39 -8q-21 -7 -32.5 -21t-25.5 -46q-42 -98 -281 -699q-20 -52 -25 -70q0 -2 -2 -9t-3 -11q0 -7 -7 -9
q-25 -5 -149 -5zM343 933q15 19 19 19q6 0 14 -3q34 -15 44 -22q3 -2 4 -3.5t1 -2.5t-2 -2q-14 -7 -28 -16q-62 -39 -101 -75q-8 -9 -16 -9q-6 0 -2 8q3 7 30.5 50t36.5 56zM528 934q16 18 19 18q8 0 15 -4q23 -10 43 -23q10 -8 1 -11q-6 -2 -29 -13q-70 -40 -108 -74
q-9 -8 -15 -8q-7 0 -2 7q3 16 76 108z" />
    <glyph glyph-name="breve.cyrcap" unicode="&#xaf;" 
d="M68 902q0 6 5 14q7 10 18 19.5t15 9.5q5 0 6 -6q6 -30 45.5 -54t105.5 -24q101 0 162 74q8 9 13 9q2 0 3 -2t0 -5.5t-4 -7.5q-35 -52 -92 -81.5t-121 -29.5q-76 0 -125 36q-31 25 -31 48z" />
    <glyph glyph-name="circumflex.cyrcap" unicode="&#xb0;" 
d="M443 861q0 -7 -5 -14q-7 -10 -18 -19.5t-15 -9.5q-5 0 -6 6q-6 30 -45.5 54t-105.5 24q-101 0 -162 -74q-8 -9 -13 -9q-2 0 -3 2t0 5.5t4 7.5q35 52 92 81.5t121 29.5q76 0 125 -36q31 -25 31 -48z" />
    <glyph glyph-name="plusminus" unicode="&#xb1;" horiz-adv-x="661" 
d="M567 53h-472l-1 52h473v-52zM567 393h-209v-212h-53v212h-211v52h210v205h53v-205h210v-52z" />
    <glyph glyph-name="twosuperior" unicode="&#xb2;" horiz-adv-x="370" 
d="M283 478q-40 0 -124.5 0.5t-125.5 0.5q-10 0 -10 5q0 4 15 17q105 85 158 152.5t53 142.5q0 56 -27.5 81.5t-70.5 25.5q-41 0 -67 -20q-20 -12 -20 -51q-2 -12 -7 -12q-3 0 -6 9q0 1 -1.5 29t-1.5 38q0 6 6 10q61 22 114 22q73 0 113.5 -34t40.5 -89q0 -24 -5.5 -46.5
t-19.5 -45t-25 -38.5t-36 -39.5t-37 -34.5t-44.5 -37t-42.5 -35q-2 -1 -1.5 -2t2.5 -1h41q72 0 121 3q29 2 41 12t18 37q2 11 6 11q3 0 3 -9q0 -8 -5.5 -42.5t-10.5 -47.5q-2 -7 -10.5 -9.5t-33.5 -2.5z" />
    <glyph glyph-name="threesuperior" unicode="&#xb3;" horiz-adv-x="371" 
d="M136 471q-55 0 -85 15q-12 6 -12 17q-2 49 4 77q2 11 7 11q6 0 6 -12q2 -38 24.5 -60t64.5 -22q48 0 80.5 28t32.5 80q0 51 -31.5 76.5t-81.5 30.5q-18 2 -18 8q0 7 17 9q96 12 96 94q0 31 -19.5 55.5t-63.5 24.5q-40 0 -59 -22t-22 -55q-1 -12 -6 -12q-7 0 -7 10
q-4 21 -4 68q0 12 9 15q50 21 106 21q68 0 101.5 -29t33.5 -63q0 -46 -29 -70.5t-72 -38.5q-3 -1 0 -3q29 -6 53.5 -16t47 -35t22.5 -60q0 -61 -54 -101.5t-141 -40.5z" />
    <glyph glyph-name="acute" unicode="&#xb4;" 
d="M353 850q22 -18 33 -35q8 -12 -3 -12q-1 0 -7.5 -1.5t-15 -4t-14.5 -5.5q-59 -27 -128 -69l-3 -1q-3 -2 -5.5 -3.5t-5.5 -2.5t-5 -0.5t-2 3.5q0 5 7 12q97 101 106 108q20 17 26 17q10 0 17 -6z" />
    <glyph glyph-name="uni00B5" unicode="&#xb5;" horiz-adv-x="672" 
d="M125 175v34q0 189 -6 269q0 6 6 6q45 0 77 4q3 1 4 -0.5t1 -5.5q-5 -68 -5 -251v-54q0 -61 27 -99t81 -38q53 0 90.5 33t37.5 89v43q0 206 -5 273q0 6 5 6q46 0 78 4q3 1 4.5 -0.5t0.5 -5.5q-4 -55 -4 -243v-123q0 -48 14 -68.5t42 -20.5q16 0 38 9q9 3 9 -3q0 -4 -4 -9
q-33 -36 -88 -36q-84 0 -86 99q-61 -97 -158 -97q-68 0 -104 50q4 -192 32 -233q4 -5 -4 -12q-16 -15 -40.5 -23.5t-35.5 -8.5q-12 0 -12 45q0 67 2.5 190.5t2.5 176.5z" />
    <glyph glyph-name="cedilla" unicode="&#xb8;" 
d="M268 1h36q-11 -10 -36.5 -32.5t-31.5 -27.5q105 -16 105 -77q0 -40 -44.5 -64.5t-106.5 -24.5q-13 0 -13 8q0 4 19 8q77 15 77 66q0 50 -79 62q-11 2 -11 7t12 13z" />
    <glyph glyph-name="onesuperior" unicode="&#xb9;" horiz-adv-x="277" 
d="M122 658v181q0 23 -10 23q-14 0 -52 -13q-19 -5 -19 2q0 5 9 9q60 27 117 59q18 9 20 9q3 0 3 -12q0 -1 -0.5 -9.5t-1 -23.5t-0.5 -33t-0.5 -41t-0.5 -45v-106q0 -111 2 -137q1 -25 23 -29q6 -1 17.5 -2t13.5 -1q11 0 11 -6t-13 -6q-18 0 -50.5 1t-33.5 1l-37 -1
q-36 -1 -53 -1q-14 0 -14 6q0 7 13 7q16 0 30 2q13 2 17.5 8.5t6.5 22.5q2 27 2 135z" />
    <glyph glyph-name="ordmasculine" unicode="&#xba;" horiz-adv-x="478" 
d="M236 326q-87 0 -136.5 56t-49.5 131q0 73 49.5 130.5t142.5 57.5q81 0 133.5 -49.5t52.5 -130.5q0 -84 -53 -139.5t-139 -55.5zM363 507q0 75 -38 119t-93 44q-52 0 -84 -36.5t-32 -109.5q0 -76 37.5 -121t92.5 -45q45 0 81 34.5t36 114.5z" />
    <glyph glyph-name="guillemotright" unicode="&#xbb;" horiz-adv-x="588" 
d="M296 485l26 28q5 5 9 5q5 0 26 -25q18 -22 71.5 -81.5t70.5 -76.5t17 -22q0 -4 -16 -18q-21 -18 -98 -91t-94 -89q-12 -12 -18 -12q-6 3 -1.5 10.5t9.5 12.5q21 27 82 94t75 85q-9 12 -148 158l-15 15q0 3 4 7zM82 485l26 27q6 6 9 6q5 0 26 -25q18 -22 71.5 -81.5
t70.5 -76.5t17 -22q0 -4 -16 -18q-21 -18 -98 -91t-94 -89q-12 -12 -18 -12q-8 0 8 23q21 27 82 94t75 85q-9 12 -148 158l-15 15q0 3 4 7z" />
    <glyph glyph-name="onequarter" unicode="&#xbc;" horiz-adv-x="874" 
d="M701 781l21 -17q4 -4 0 -8l-542 -771q-3 -5 -7 -1l-20 16q-3 3 0 8l541 771q4 5 7 2zM144 497v181q0 23 -10 23q-14 0 -52 -13q-19 -5 -19 2q0 5 9 9q60 27 117 59q18 9 20 9q3 0 3 -12q0 -1 -0.5 -9.5t-1 -23.5t-0.5 -33t-0.5 -41t-0.5 -45v-106q0 -111 2 -137
q1 -25 23 -29q6 -1 17.5 -2t13.5 -1q11 0 11 -6t-13 -6q-18 0 -50.5 1t-33.5 1l-37 -1q-36 -1 -53 -1q-14 0 -14 6q0 7 13 7q16 0 30 2q13 2 17.5 8.5t6.5 22.5q2 27 2 135zM721 343v-184h48q23 1 33 11q3 3 5 3.5t3.5 -1t0.5 -6.5q-3 -17 -11 -36q-5 -6 -13 -6
q-11 -1 -66 -1q0 -66 2 -86q1 -12 2.5 -17t6.5 -9.5t15 -6.5q3 -1 10 -1.5t10 -0.5q11 -1 11 -7t-13 -6q-20 0 -48 1t-32 1q-5 0 -28.5 -1t-40.5 -1q-14 0 -14 7q0 6 11 6q5 1 19 1q15 1 20.5 9t7.5 25q1 22 1 86q-137 0 -191 2q-16 2 -16 6t9 17q16 20 109.5 131t126.5 148
q13 13 18 13t5 -16q0 -2 -0.5 -32t-0.5 -49zM661 159v189q-145 -177 -153 -189h153z" />
    <glyph glyph-name="onehalf" unicode="&#xbd;" horiz-adv-x="900" 
d="M675 781l21 -17q4 -4 0 -8l-542 -771q-3 -5 -7 -1l-20 16q-3 3 0 8l541 771q4 5 7 2zM144 497v181q0 23 -10 23q-14 0 -52 -13q-19 -5 -19 2q0 5 9 9q60 27 117 59q18 9 20 9q3 0 3 -12q0 -1 -0.5 -9.5t-1 -23.5t-0.5 -33t-0.5 -41t-0.5 -45v-106q0 -111 2 -137
q1 -25 23 -29q6 -1 17.5 -2t13.5 -1q11 0 11 -6t-13 -6q-18 0 -50.5 1t-33.5 1l-37 -1q-36 -1 -53 -1q-14 0 -14 6q0 7 13 7q16 0 30 2q13 2 17.5 8.5t6.5 22.5q2 27 2 135zM778 -11q-40 0 -124.5 0.5t-125.5 0.5q-10 0 -10 5q0 4 15 17q105 85 158 152.5t53 142.5
q0 56 -27.5 81.5t-70.5 25.5q-41 0 -67 -20q-20 -12 -20 -51q-1 -12 -7 -12q-3 0 -6 9q0 1 -1.5 29t-1.5 38q0 6 6 10q61 22 114 22q73 0 113.5 -34t40.5 -89q0 -24 -5.5 -46.5t-19.5 -45t-25 -38.5t-36 -39.5t-37 -34.5t-44.5 -37t-42.5 -35q-2 -1 -1.5 -2t2.5 -1h41
q72 0 121 3q29 2 41 12t18 37q2 11 6 11q3 0 3 -9q0 -8 -5.5 -42.5t-10.5 -47.5q-2 -7 -10.5 -9.5t-33.5 -2.5z" />
    <glyph glyph-name="threequarters" unicode="&#xbe;" horiz-adv-x="911" 
d="M743 781l21 -17q4 -4 0 -8l-542 -771q-3 -5 -7 -1l-20 16q-3 3 0 8l541 771q4 5 7 2zM758 343v-184h48q23 1 33 11q3 3 5 3.5t3.5 -1t0.5 -6.5q-3 -17 -11 -36q-5 -6 -13 -6q-11 -1 -66 -1q0 -66 2 -86q1 -12 2.5 -17t6.5 -9.5t15 -6.5q3 -1 10 -1.5t10 -0.5q11 -1 11 -7
t-13 -6q-20 0 -48 1t-32 1q-5 0 -28.5 -1t-40.5 -1q-14 0 -14 7q0 6 11 6q5 1 19 1q15 1 20.5 9t7.5 25q1 22 1 86q-137 0 -191 2q-16 2 -16 6t9 17q16 20 109.5 131t126.5 148q13 13 18 13t5 -16q0 -2 -0.5 -32t-0.5 -49zM698 159v189q-146 -177 -153 -189h153zM159 310
q-55 0 -85 15q-12 6 -12 17q-2 49 4 77q2 11 7 11q6 0 6 -12q2 -38 24.5 -60t64.5 -22q48 0 80.5 28t32.5 80q0 51 -31.5 76.5t-81.5 30.5q-18 1 -18 8t17 9q96 12 96 94q0 31 -19.5 55.5t-63.5 24.5q-40 0 -59 -22t-22 -55q-1 -12 -6 -12q-7 0 -7 10q-4 21 -4 68q0 12 9 15
q50 21 106 21q68 0 101.5 -29t33.5 -63q0 -46 -29 -70.5t-72 -38.5q-3 -2 0 -3q29 -6 53.5 -16t47 -35t22.5 -60q0 -61 -54 -101.5t-141 -40.5z" />
    <glyph glyph-name="questiondown" unicode="&#xbf;" horiz-adv-x="538" 
d="M241 -17q-91 0 -136 47t-45 109q0 34 7.5 62t26 56.5t35.5 48.5t49.5 56.5t53.5 63.5q41 52 41 80q0 27 -16 52q-8 12 -8 17q0 8 6 8q15 0 43 -35q29 -36 29 -59q0 -22 -22 -50q-12 -16 -35.5 -43t-33.5 -40q-50 -64 -69 -111t-19 -99q0 -47 28 -88t89 -41q67 0 98 39
q30 36 35 93q2 17 8 17q7 0 8 -10q4 -19 4 -117q0 -9 -11 -16q-67 -40 -166 -40zM264 767q24 0 38 -16.5t14 -36.5t-14 -36.5t-39 -16.5q-22 0 -36.5 14.5t-14.5 37.5t15 38.5t37 15.5z" />
    <glyph glyph-name="Agrave" unicode="&#xc0;" horiz-adv-x="700" 
d="M439 292h-215q-7 0 -10 -8l-60 -177q-14 -39 -14 -67q0 -14 11 -21.5t25 -7.5h9q13 0 13 -6q0 -8 -18 -8q-14 0 -42.5 1.5t-32.5 1.5q-1 0 -43 -1.5t-70 -1.5q-19 0 -19 8q0 6 14 6q8 0 24 2q32 4 50 27.5t34 66.5l227 621q14 39 22 39t22 -36q4 -10 50.5 -132t101 -263
t81.5 -208q40 -98 86 -111q18 -6 39 -6q11 0 11 -6q0 -8 -20 -8q-88 0 -157 2q-30 2 -30 7t7 7q14 5 6 27l-93 246q-3 6 -9 6zM235 328h191q6 0 4 7l-95 270q-7 23 -15 0l-88 -270q-3 -7 3 -7zM391 815q0 -4 -6 -4q-12 0 -85.5 33t-119.5 59q-17 10 -17 14t11 10
q27 15 44 19q11 3 16 3t14 -11q14 -15 57 -52t76 -60q10 -7 10 -11z" />
    <glyph glyph-name="Aacute" unicode="&#xc1;" horiz-adv-x="700" 
d="M439 292h-215q-7 0 -10 -8l-60 -177q-14 -39 -14 -67q0 -14 11 -21.5t25 -7.5h9q13 0 13 -6q0 -8 -18 -8q-14 0 -42.5 1.5t-32.5 1.5q-1 0 -43 -1.5t-70 -1.5q-19 0 -19 8q0 6 14 6q8 0 24 2q32 4 50 27.5t34 66.5l227 621q14 39 22 39t22 -36q4 -10 50.5 -132t101 -263
t81.5 -208q40 -98 86 -111q18 -6 39 -6q11 0 11 -6q0 -8 -20 -8q-88 0 -157 2q-30 2 -30 7t7 7q14 5 6 27l-93 246q-3 6 -9 6zM235 328h191q6 0 4 7l-95 270q-7 23 -15 0l-88 -270q-3 -7 3 -7zM463 939q22 -20 32 -40q7 -13 -4 -13q-20 0 -41 -8q-53 -19 -142 -61
q-14 -6 -16 -6q-6 0 -6 4t8 12q86 80 123 104q22 16 29 16q9 0 17 -8z" />
    <glyph glyph-name="Acircumflex" unicode="&#xc2;" horiz-adv-x="700" 
d="M439 292h-215q-7 0 -10 -8l-60 -177q-14 -39 -14 -67q0 -14 11 -21.5t25 -7.5h9q13 0 13 -6q0 -8 -18 -8q-14 0 -42.5 1.5t-32.5 1.5q-1 0 -43 -1.5t-70 -1.5q-19 0 -19 8q0 6 14 6q8 0 24 2q32 4 50 27.5t34 66.5l227 621q14 39 22 39t22 -36q4 -10 50.5 -132t101 -263
t81.5 -208q40 -98 86 -111q18 -6 39 -6q11 0 11 -6q0 -8 -20 -8q-88 0 -157 2q-30 2 -30 7t7 7q14 5 6 27l-93 246q-3 6 -9 6zM235 328h191q6 0 4 7l-95 270q-7 23 -15 0l-88 -270q-3 -7 3 -7zM353 932q6 0 19 -8q111 -74 129 -87q12 -9 12 -12t-5 -6l-34 -19q-6 -4 -12 0
q-55 44 -106 71q-8 5 -11 5l-16 -7q-70 -35 -119 -63q-16 -9 -21 -9q-8 0 -4 9q2 3 7 7q120 89 143 109q14 10 18 10z" />
    <glyph glyph-name="Atilde" unicode="&#xc3;" horiz-adv-x="700" 
d="M439 292h-215q-7 0 -10 -8l-60 -177q-14 -39 -14 -67q0 -14 11 -21.5t25 -7.5h9q13 0 13 -6q0 -8 -18 -8q-14 0 -42.5 1.5t-32.5 1.5q-1 0 -43 -1.5t-70 -1.5q-19 0 -19 8q0 6 14 6q8 0 24 2q32 4 50 27.5t34 66.5l227 621q14 39 22 39t22 -36q4 -10 50.5 -132t101 -263
t81.5 -208q40 -98 86 -111q18 -6 39 -6q11 0 11 -6q0 -8 -20 -8q-88 0 -157 2q-30 2 -30 7t7 7q14 5 6 27l-93 246q-3 6 -9 6zM235 328h191q6 0 4 7l-95 270q-7 23 -15 0l-88 -270q-3 -7 3 -7zM420 821q-21 0 -79.5 22.5t-81.5 22.5q-40 0 -65 -31q-9 -10 -15 -10
q-2 0 -2.5 1.5t0 5t3.5 8.5q45 73 98 73q28 0 91 -25q46 -18 68 -18q24 0 39.5 7.5t34.5 28.5q7 9 12 9q10 0 1 -15q-51 -79 -104 -79z" />
    <glyph glyph-name="Adieresis" unicode="&#xc4;" horiz-adv-x="700" 
d="M439 292h-215q-7 0 -10 -8l-60 -177q-14 -39 -14 -67q0 -14 11 -21.5t25 -7.5h9q13 0 13 -6q0 -8 -18 -8q-14 0 -42.5 1.5t-32.5 1.5q-1 0 -43 -1.5t-70 -1.5q-19 0 -19 8q0 6 14 6q8 0 24 2q32 4 50 27.5t34 66.5l227 621q14 39 22 39t22 -36q4 -10 50.5 -132t101 -263
t81.5 -208q40 -98 86 -111q18 -6 39 -6q11 0 11 -6q0 -8 -20 -8q-88 0 -157 2q-30 2 -30 7t7 7q14 5 6 27l-93 246q-3 6 -9 6zM235 328h191q6 0 4 7l-95 270q-7 23 -15 0l-88 -270q-3 -7 3 -7zM455 819q-19 0 -29 12t-10 27q0 14 10.5 26.5t29.5 12.5q17 0 27.5 -10.5
t10.5 -26.5q0 -18 -10.5 -29.5t-28.5 -11.5zM232 819q-19 0 -28.5 12t-9.5 27t10 27t29 12q17 0 27.5 -10.5t10.5 -26.5q0 -18 -10.5 -29.5t-28.5 -11.5z" />
    <glyph glyph-name="Aring" unicode="&#xc5;" horiz-adv-x="700" 
d="M439 292h-215q-7 0 -10 -8l-60 -177q-14 -39 -14 -67q0 -14 11 -21.5t25 -7.5h9q13 0 13 -6q0 -8 -18 -8q-14 0 -42.5 1.5t-32.5 1.5q-1 0 -43 -1.5t-70 -1.5q-19 0 -19 8q0 6 14 6q8 0 24 2q32 4 50 27.5t34 66.5l227 621q14 39 22 39t22 -36q4 -10 50.5 -132t101 -263
t81.5 -208q40 -98 86 -111q18 -6 39 -6q11 0 11 -6q0 -8 -20 -8q-88 0 -157 2q-30 2 -30 7t7 7q14 5 6 27l-93 246q-3 6 -9 6zM235 328h191q6 0 4 7l-95 270q-7 23 -15 0l-88 -270q-3 -7 3 -7zM324 794q-33 0 -52.5 17.5t-19.5 43.5q0 34 31 58.5t79 24.5q35 0 54.5 -16
t19.5 -42q0 -39 -34 -62.5t-78 -23.5zM291 866q0 -22 15.5 -35.5t35.5 -13.5q25 0 39.5 14t14.5 36q0 20 -13.5 33.5t-38.5 13.5q-21 0 -37 -12t-16 -36z" />
    <glyph glyph-name="AE" unicode="&#xc6;" horiz-adv-x="912" 
d="M522 750q206 0 229 1q37 2 46 6q8 4 11 4q4 0 4 -9q0 -2 -3.5 -16.5t-4.5 -30.5l-4 -60q-2 -17 -8 -17q-8 0 -8 13q0 20 -5 33q-10 31 -72 37q-26 3 -137 3q-6 0 -6 -10v-317q0 -10 6 -10q136 0 159 2q38 3 50 17q8 10 12 10q5 0 5 -8q0 -2 -1.5 -9t-3.5 -20t-3 -27
q-2 -18 -3 -42.5t-1 -25.5q-2 -15 -7 -15q-7 0 -7 16t-4 28q-7 28 -52 33t-143 5q-7 0 -7 -7v-88v-41.5v-55.5v-33q2 -33 8.5 -49.5t24.5 -23.5q22 -9 83 -9q60 0 90 9q23 7 34 23.5t17 50.5q3 15 9 15t6 -15q0 -7 -5 -45t-8 -52q-5 -19 -14 -22.5t-40 -3.5q-29 0 -146 3
q-11 0 -43 1.5t-58 1.5q-23 0 -53 -1.5t-43 -1.5q-16 0 -16 8q0 4 11 6q19 2 23 3q18 4 26.5 23t9.5 71q2 78 2 179v46q0 8 -9 8h-176q-13 0 -18 -7q-28 -38 -114 -185q-43 -71 -43 -101q0 -37 64 -37q12 0 12 -7t-17 -7q-25 0 -53.5 0.5t-48.5 1.5t-23 1q-2 0 -20.5 -0.5
t-45 -1.5t-47.5 -1q-13 0 -13 8q0 6 11 6q29 0 58 19.5t45.5 39.5t43.5 58q34 47 367 569q18 28 22 42q3 14 10 14q3 0 15.5 -1.5t19.5 -1.5zM313 377h160q9 0 9 8v270q0 3 -1.5 4t-3.5 0t-4 -4q-14 -21 -86 -139t-78 -130q-5 -9 4 -9z" />
    <glyph glyph-name="Ccedilla" unicode="&#xc7;" horiz-adv-x="805" 
d="M398 -61l55 46q-164 13 -268 106q-121 109 -121 296q0 63 26 138t86 135q107 107 305 107q80 0 145 -12q14 -3 106 -15q9 -1 9 -11q0 -3 -1 -9.5t-2 -19t-2 -27.5q-1 -18 -2 -57.5t-1 -45.5q-1 -21 -9 -21t-8 21q0 66 -42 102q-28 24 -82.5 40.5t-117.5 16.5
q-155 0 -230 -73q-51 -49 -70.5 -112.5t-19.5 -148.5q0 -148 102.5 -257t258.5 -109q125 0 174 50q28 29 37 84q3 15 10 15t7 -15q0 -8 -7.5 -57t-14.5 -71q-4 -14 -8 -18.5t-18 -10.5q-57 -23 -180 -23h-28q-14 -12 -48 -42q105 -16 105 -77q0 -40 -44.5 -64.5
t-106.5 -24.5q-13 0 -13 8q0 4 19 8q77 15 77 66q0 50 -79 62q-11 2 -11 7t12 13z" />
    <glyph glyph-name="Egrave" unicode="&#xc8;" horiz-adv-x="610" 
d="M178 287v176q0 184 -2 216q-2 27 -10.5 39.5t-32.5 17.5q-3 1 -8 1.5t-11.5 1t-9.5 0.5q-13 2 -13 6q0 8 16 8q50 0 113 -3q206 0 229 1q37 2 46 6q8 4 11 4q4 0 4 -9q0 -2 -3.5 -16.5t-4.5 -30.5l-4 -60q-2 -17 -8 -17q-8 0 -8 13q0 20 -5 33q-10 31 -72 37
q-26 3 -137 3q-6 0 -6 -10v-276q0 -10 6 -10q136 0 159 2q38 3 50 17q8 10 12 10q5 0 5 -8q0 -2 -1.5 -9t-3.5 -20t-3 -27q-2 -18 -3 -42.5t-1 -25.5q-2 -15 -7 -15q-7 0 -7 16t-4 28q-7 28 -52 33t-143 5q-7 0 -7 -7v-88v-51.5v-76.5v-43q2 -33 8.5 -49.5t24.5 -23.5
q22 -9 83 -9q60 0 90 9q23 7 34 23.5t17 50.5q3 15 9 15t6 -15q0 -7 -5 -45t-8 -52q-5 -19 -14 -22.5t-40 -3.5q-29 0 -146 3q-120 3 -125 3q-10 0 -35 -2t-39 -1q-16 0 -16 8q0 4 11 6q19 2 23 3q18 4 26.5 23t9.5 71q2 78 2 179zM364 818q0 -4 -6 -4q-12 0 -85.5 33
t-119.5 59q-17 10 -17 14t11 10q27 15 44 19q10 3 16 3q5 0 14 -11q14 -15 57 -52t76 -60q10 -7 10 -11z" />
    <glyph glyph-name="Eacute" unicode="&#xc9;" horiz-adv-x="610" 
d="M178 287v176q0 184 -2 216q-2 27 -10.5 39.5t-32.5 17.5q-3 1 -8 1.5t-11.5 1t-9.5 0.5q-13 2 -13 6q0 8 16 8q50 0 113 -3q206 0 229 1q37 2 46 6q8 4 11 4q4 0 4 -9q0 -2 -3.5 -16.5t-4.5 -30.5l-4 -60q-2 -17 -8 -17q-8 0 -8 13q0 20 -5 33q-10 31 -72 37
q-26 3 -137 3q-6 0 -6 -10v-276q0 -10 6 -10q136 0 159 2q38 3 50 17q8 10 12 10q5 0 5 -8q0 -2 -1.5 -9t-3.5 -20t-3 -27q-2 -18 -3 -42.5t-1 -25.5q-2 -15 -7 -15q-7 0 -7 16t-4 28q-7 28 -52 33t-143 5q-7 0 -7 -7v-88v-51.5v-76.5v-43q2 -33 8.5 -49.5t24.5 -23.5
q22 -9 83 -9q60 0 90 9q23 7 34 23.5t17 50.5q3 15 9 15t6 -15q0 -7 -5 -45t-8 -52q-5 -19 -14 -22.5t-40 -3.5q-29 0 -146 3q-120 3 -125 3q-10 0 -35 -2t-39 -1q-16 0 -16 8q0 4 11 6q19 2 23 3q18 4 26.5 23t9.5 71q2 78 2 179zM448 934q22 -20 32 -40q6 -13 -4 -13
q-20 0 -41 -8q-53 -19 -142 -61q-14 -6 -16 -6q-6 0 -6 4t8 12q86 80 123 104q22 16 29 16q9 0 17 -8z" />
    <glyph glyph-name="Ecircumflex" unicode="&#xca;" horiz-adv-x="610" 
d="M178 287v176q0 184 -2 216q-2 27 -10.5 39.5t-32.5 17.5q-3 1 -8 1.5t-11.5 1t-9.5 0.5q-13 2 -13 6q0 8 16 8q50 0 113 -3q206 0 229 1q37 2 46 6q8 4 11 4q4 0 4 -9q0 -2 -3.5 -16.5t-4.5 -30.5l-4 -60q-2 -17 -8 -17q-8 0 -8 13q0 20 -5 33q-10 31 -72 37
q-26 3 -137 3q-6 0 -6 -10v-276q0 -10 6 -10q136 0 159 2q38 3 50 17q8 10 12 10q5 0 5 -8q0 -2 -1.5 -9t-3.5 -20t-3 -27q-2 -18 -3 -42.5t-1 -25.5q-2 -15 -7 -15q-7 0 -7 16t-4 28q-7 28 -52 33t-143 5q-7 0 -7 -7v-88v-51.5v-76.5v-43q2 -33 8.5 -49.5t24.5 -23.5
q22 -9 83 -9q60 0 90 9q23 7 34 23.5t17 50.5q3 15 9 15t6 -15q0 -7 -5 -45t-8 -52q-5 -19 -14 -22.5t-40 -3.5q-29 0 -146 3q-120 3 -125 3q-10 0 -35 -2t-39 -1q-16 0 -16 8q0 4 11 6q19 2 23 3q18 4 26.5 23t9.5 71q2 78 2 179zM324 952q6 0 19 -8q111 -74 129 -87
q12 -9 12 -12t-5 -6l-34 -19q-6 -4 -12 0q-55 44 -106 71q-8 5 -11 5l-16 -7q-70 -35 -119 -63q-16 -9 -21 -9q-8 0 -4 9q2 3 7 7q120 89 143 109q14 10 18 10z" />
    <glyph glyph-name="Edieresis" unicode="&#xcb;" horiz-adv-x="610" 
d="M178 287v176q0 184 -2 216q-2 27 -10.5 39.5t-32.5 17.5q-3 1 -8 1.5t-11.5 1t-9.5 0.5q-13 2 -13 6q0 8 16 8q50 0 113 -3q206 0 229 1q37 2 46 6q8 4 11 4q4 0 4 -9q0 -2 -3.5 -16.5t-4.5 -30.5l-4 -60q-2 -17 -8 -17q-8 0 -8 13q0 20 -5 33q-10 31 -72 37
q-26 3 -137 3q-6 0 -6 -10v-276q0 -10 6 -10q136 0 159 2q38 3 50 17q8 10 12 10q5 0 5 -8q0 -2 -1.5 -9t-3.5 -20t-3 -27q-2 -18 -3 -42.5t-1 -25.5q-2 -15 -7 -15q-7 0 -7 16t-4 28q-7 28 -52 33t-143 5q-7 0 -7 -7v-88v-51.5v-76.5v-43q2 -33 8.5 -49.5t24.5 -23.5
q22 -9 83 -9q60 0 90 9q23 7 34 23.5t17 50.5q3 15 9 15t6 -15q0 -7 -5 -45t-8 -52q-5 -19 -14 -22.5t-40 -3.5q-29 0 -146 3q-120 3 -125 3q-10 0 -35 -2t-39 -1q-16 0 -16 8q0 4 11 6q19 2 23 3q18 4 26.5 23t9.5 71q2 78 2 179zM430 840q-19 0 -29 12t-10 27
q0 14 10.5 26.5t29.5 12.5q17 0 27.5 -10.5t10.5 -26.5q0 -18 -10.5 -29.5t-28.5 -11.5zM207 840q-19 0 -28.5 12t-9.5 27t10 27t29 12q17 0 27.5 -10.5t10.5 -26.5q0 -18 -10.5 -29.5t-28.5 -11.5z" />
    <glyph glyph-name="Igrave" unicode="&#xcc;" horiz-adv-x="440" 
d="M178 287v176q0 184 -2 216q-3 49 -34 56q-15 4 -31 4q-8 0 -8 6q0 8 16 8q15 0 39 -0.5t42.5 -1.5t19.5 -1t19.5 1t42 1.5t36.5 0.5q16 0 16 -8q0 -6 -8 -6q-7 0 -25 -3q-20 -4 -27.5 -17t-9.5 -40q-2 -32 -2 -216v-176q0 -175 5 -217q3 -25 10.5 -38.5t28.5 -16.5
q28 -4 41 -4q12 0 12 -6q0 -8 -15 -8q-24 0 -54 0.5t-49.5 1.5t-20.5 1t-19.5 -0.5t-42 -1.5t-36.5 -1q-16 0 -16 8q0 6 11 6q13 0 26 3q23 5 30 56q5 42 5 217zM260 818q0 -4 -6 -4q-12 0 -85.5 33t-119.5 59q-17 10 -17 14t11 10q27 15 44 19q11 3 16 3t14 -11
q14 -15 57 -52t76 -60q10 -7 10 -11z" />
    <glyph glyph-name="Iacute" unicode="&#xcd;" horiz-adv-x="440" 
d="M178 287v176q0 184 -2 216q-3 49 -34 56q-15 4 -31 4q-8 0 -8 6q0 8 16 8q15 0 39 -0.5t42.5 -1.5t19.5 -1t19.5 1t42 1.5t36.5 0.5q16 0 16 -8q0 -6 -8 -6q-7 0 -25 -3q-20 -4 -27.5 -17t-9.5 -40q-2 -32 -2 -216v-176q0 -175 5 -217q3 -25 10.5 -38.5t28.5 -16.5
q28 -4 41 -4q12 0 12 -6q0 -8 -15 -8q-24 0 -54 0.5t-49.5 1.5t-20.5 1t-19.5 -0.5t-42 -1.5t-36.5 -1q-16 0 -16 8q0 6 11 6q13 0 26 3q23 5 30 56q5 42 5 217zM353 950q22 -20 32 -40q7 -13 -4 -13q-20 0 -41 -8q-53 -19 -142 -61q-14 -6 -16 -6q-6 0 -6 4t8 12
q86 80 123 104q22 16 29 16q9 0 17 -8z" />
    <glyph glyph-name="Icircumflex" unicode="&#xce;" horiz-adv-x="440" 
d="M178 287v176q0 184 -2 216q-3 49 -34 56q-15 4 -31 4q-8 0 -8 6q0 8 16 8q15 0 39 -0.5t42.5 -1.5t19.5 -1t19.5 1t42 1.5t36.5 0.5q16 0 16 -8q0 -6 -8 -6q-7 0 -25 -3q-20 -4 -27.5 -17t-9.5 -40q-2 -32 -2 -216v-176q0 -175 5 -217q3 -25 10.5 -38.5t28.5 -16.5
q28 -4 41 -4q12 0 12 -6q0 -8 -15 -8q-24 0 -54 0.5t-49.5 1.5t-20.5 1t-19.5 -0.5t-42 -1.5t-36.5 -1q-16 0 -16 8q0 6 11 6q13 0 26 3q23 5 30 56q5 42 5 217zM226 951q6 0 19 -8q111 -74 129 -87q12 -9 12 -12t-5 -6l-34 -19q-6 -4 -12 0q-55 44 -106 71q-8 5 -11 5
l-16 -7q-70 -35 -119 -63q-16 -9 -21 -9q-8 0 -4 9q2 3 7 7q120 89 143 109q14 10 18 10z" />
    <glyph glyph-name="Idieresis" unicode="&#xcf;" horiz-adv-x="440" 
d="M178 287v176q0 184 -2 216q-3 49 -34 56q-15 4 -31 4q-8 0 -8 6q0 8 16 8q15 0 39 -0.5t42.5 -1.5t19.5 -1t19.5 1t42 1.5t36.5 0.5q16 0 16 -8q0 -6 -8 -6q-7 0 -25 -3q-20 -4 -27.5 -17t-9.5 -40q-2 -32 -2 -216v-176q0 -175 5 -217q3 -25 10.5 -38.5t28.5 -16.5
q28 -4 41 -4q12 0 12 -6q0 -8 -15 -8q-24 0 -54 0.5t-49.5 1.5t-20.5 1t-19.5 -0.5t-42 -1.5t-36.5 -1q-16 0 -16 8q0 6 11 6q13 0 26 3q23 5 30 56q5 42 5 217zM331 839q-19 0 -29 12t-10 27q0 14 10.5 26.5t29.5 12.5q17 0 27.5 -10.5t10.5 -26.5q0 -18 -10.5 -29.5
t-28.5 -11.5zM108 839q-19 0 -28.5 12t-9.5 27t10 27t29 12q17 0 27.5 -10.5t10.5 -26.5q0 -18 -10.5 -29.5t-28.5 -11.5z" />
    <glyph glyph-name="periodcentered" unicode="&#xd0;" horiz-adv-x="244" 
d="M74 397q24 0 94 -16q21 -5 21 -12q0 -4 -5 -14q-17 -29 -78 -83q-12 -10 -14 -10q-4 0 -4 4t5 14q7 24 7 56q0 35 -24 47q-10 5 -10 8q0 6 8 6z" />
    <glyph glyph-name="Ntilde" unicode="&#xd1;" horiz-adv-x="947" 
d="M145 144v148q0 151 0.5 227.5t0.5 81v116.5q0 50 11 50q4 0 9.5 -5t14.5 -15t11 -12q37 -42 318 -343q52 -56 138.5 -151t101.5 -110l-11 508q-1 50 -8.5 69.5t-30.5 25.5q-22 5 -43 5q-14 0 -14 7t20 7q27 0 65 -1.5t39 -1.5q2 0 31.5 1.5t53.5 1.5q18 0 18 -7
q0 -5 -11 -7q-8 -1 -26 -4q-21 -5 -28 -22t-7 -68l-2 -584q0 -25 -0.5 -39t-1.5 -21t-2.5 -9t-4.5 -2q-9 0 -73 64q-6 6 -47 47.5t-103.5 106.5t-110.5 117q-140 151 -261 287l13 -479q1 -61 9.5 -85.5t29.5 -30.5q23 -6 50 -6q8 0 8 -6q0 -8 -18 -8q-25 0 -49.5 0.5
t-39.5 1.5t-17 1l-34 -2q-35 -1 -62 -1q-16 0 -16 8q0 6 8 6q23 0 41 6q18 5 24 31t6 96zM543 830q-21 0 -79.5 22.5t-81.5 22.5q-40 0 -65 -31q-9 -10 -15 -10q-2 0 -2.5 1.5t0 5t3.5 8.5q45 73 98 73q28 0 91 -25q47 -18 68 -18q24 0 39.5 7.5t34.5 28.5q8 9 12 9
q10 0 1 -15q-51 -79 -104 -79z" />
    <glyph glyph-name="Ograve" unicode="&#xd2;" horiz-adv-x="915" 
d="M452 -17q-79 0 -145 23.5t-110 62.5t-75 91t-44.5 106t-13.5 110q0 64 23.5 130t69 125.5t124.5 97.5t177 38q172 0 282.5 -101.5t110.5 -273.5t-111 -290.5t-288 -118.5zM479 21q31 0 63.5 7.5t72 30t69.5 58.5t50.5 100t20.5 147q0 172 -89 270.5t-215 98.5
q-130 0 -211 -85t-81 -244q0 -172 91 -277.5t229 -105.5zM516 827q0 -4 -6 -4q-12 0 -85.5 33t-119.5 59q-17 10 -17 14t11 10q27 15 44 19q11 3 16 3t14 -11q14 -15 57 -52t76 -60q10 -7 10 -11z" />
    <glyph glyph-name="Oacute" unicode="&#xd3;" horiz-adv-x="915" 
d="M452 -17q-79 0 -145 23.5t-110 62.5t-75 91t-44.5 106t-13.5 110q0 64 23.5 130t69 125.5t124.5 97.5t177 38q172 0 282.5 -101.5t110.5 -273.5t-111 -290.5t-288 -118.5zM479 21q31 0 63.5 7.5t72 30t69.5 58.5t50.5 100t20.5 147q0 172 -89 270.5t-215 98.5
q-130 0 -211 -85t-81 -244q0 -172 91 -277.5t229 -105.5zM570 949q22 -20 32 -40q6 -13 -4 -13q-20 0 -41 -8q-53 -19 -142 -61q-14 -6 -16 -6q-6 0 -6 4t8 12q86 80 123 104q22 16 29 16q9 0 17 -8z" />
    <glyph glyph-name="Ocircumflex" unicode="&#xd4;" horiz-adv-x="915" 
d="M452 -17q-79 0 -145 23.5t-110 62.5t-75 91t-44.5 106t-13.5 110q0 64 23.5 130t69 125.5t124.5 97.5t177 38q172 0 282.5 -101.5t110.5 -273.5t-111 -290.5t-288 -118.5zM479 21q31 0 63.5 7.5t72 30t69.5 58.5t50.5 100t20.5 147q0 172 -89 270.5t-215 98.5
q-130 0 -211 -85t-81 -244q0 -172 91 -277.5t229 -105.5zM463 964q6 0 19 -8q111 -74 129 -87q12 -9 12 -12t-5 -6l-34 -19q-6 -4 -12 0q-55 44 -106 71q-8 5 -11 5l-16 -7q-70 -35 -119 -63q-16 -9 -21 -9q-8 0 -4 9q2 3 7 7q120 89 143 109q14 10 18 10z" />
    <glyph glyph-name="Otilde" unicode="&#xd5;" horiz-adv-x="915" 
d="M452 -17q-79 0 -145 23.5t-110 62.5t-75 91t-44.5 106t-13.5 110q0 64 23.5 130t69 125.5t124.5 97.5t177 38q172 0 282.5 -101.5t110.5 -273.5t-111 -290.5t-288 -118.5zM479 21q31 0 63.5 7.5t72 30t69.5 58.5t50.5 100t20.5 147q0 172 -89 270.5t-215 98.5
q-130 0 -211 -85t-81 -244q0 -172 91 -277.5t229 -105.5zM527 842q-21 0 -79.5 22.5t-81.5 22.5q-40 0 -65 -31q-9 -10 -15 -10q-2 0 -2.5 1.5t0 5t3.5 8.5q45 73 98 73q28 0 91 -25q46 -18 68 -18q24 0 39.5 7.5t34.5 28.5q8 9 12 9q10 0 1 -15q-51 -79 -104 -79z" />
    <glyph glyph-name="Odieresis" unicode="&#xd6;" horiz-adv-x="915" 
d="M452 -17q-79 0 -145 23.5t-110 62.5t-75 91t-44.5 106t-13.5 110q0 64 23.5 130t69 125.5t124.5 97.5t177 38q172 0 282.5 -101.5t110.5 -273.5t-111 -290.5t-288 -118.5zM479 21q31 0 63.5 7.5t72 30t69.5 58.5t50.5 100t20.5 147q0 172 -89 270.5t-215 98.5
q-130 0 -211 -85t-81 -244q0 -172 91 -277.5t229 -105.5zM568 845q-19 0 -29 12t-10 27q0 14 10.5 26.5t29.5 12.5q17 0 27.5 -10.5t10.5 -26.5q0 -18 -10.5 -29.5t-28.5 -11.5zM345 845q-19 0 -28.5 12t-9.5 27t10 27t29 12q17 0 27.5 -10.5t10.5 -26.5q0 -18 -10.5 -29.5
t-28.5 -11.5z" />
    <glyph glyph-name="multiply" unicode="&#xd7;" horiz-adv-x="661" 
d="M498 155l-167 166l-168 -168l-42 42l169 168l-169 168l42 42l167 -169l169 169l41 -41l-168 -169l167 -167z" />
    <glyph glyph-name="Oslash" unicode="&#xd8;" horiz-adv-x="915" 
d="M829 741l-79 -85q101 -103 101 -264q0 -172 -111 -290.5t-288 -118.5q-151 0 -250 83l-88 -95q-4 -3 -7 0q-14 10 -24 23q-3 5 0 9l86 93q-52 56 -78.5 130t-26.5 150q0 64 23.5 130t69 125.5t124.5 97.5t177 38q155 0 260 -82l77 83q3 3 9 0q10 -5 24 -19q4 -5 1 -8z
M227 158l441 474q-87 101 -217 101t-211 -85t-81 -244q0 -146 68 -246zM694 596l-440 -474q90 -101 225 -101q31 0 63.5 7.5t72 30t69.5 58.5t50.5 100t20.5 147q0 137 -61 232z" />
    <glyph glyph-name="Ugrave" unicode="&#xd9;" horiz-adv-x="830" 
d="M207 463v-140q0 -100 19.5 -156.5t55.5 -90.5q34 -32 69 -43.5t82 -11.5q45 0 87.5 19.5t69.5 52.5q58 72 58 245v125q0 184 -2 216q-2 27 -10.5 39.5t-32.5 17.5q-12 3 -34 3q-8 0 -8 6q0 8 16 8q20 0 45 -0.5t42.5 -1.5t18.5 -1t33.5 1.5t50.5 1.5q16 0 16 -8
q0 -6 -8 -6q-7 0 -25 -3q-20 -4 -27.5 -17t-9.5 -40q-2 -32 -2 -216v-107q0 -99 -19 -175t-73 -124q-83 -74 -206 -74q-131 0 -206 71q-87 83 -87 263v146q0 184 -2 216q-2 27 -10.5 39.5t-32.5 17.5q-12 3 -34 3q-8 0 -8 6q0 8 16 8q27 0 71 -1l44 -2q2 0 41.5 1.5
t57.5 1.5q16 0 16 -8q0 -6 -8 -6q-7 0 -25 -3q-19 -3 -27 -16t-10 -41q-2 -32 -2 -216zM465 818q0 -4 -6 -4q-12 0 -85.5 33t-119.5 59q-17 10 -17 14t11 10q27 15 44 19q11 3 16 3t14 -11q14 -15 57 -52t76 -60q10 -7 10 -11z" />
    <glyph glyph-name="Uacute" unicode="&#xda;" horiz-adv-x="830" 
d="M207 463v-140q0 -100 19.5 -156.5t55.5 -90.5q34 -32 69 -43.5t82 -11.5q45 0 87.5 19.5t69.5 52.5q58 72 58 245v125q0 184 -2 216q-2 27 -10.5 39.5t-32.5 17.5q-12 3 -34 3q-8 0 -8 6q0 8 16 8q20 0 45 -0.5t42.5 -1.5t18.5 -1t33.5 1.5t50.5 1.5q16 0 16 -8
q0 -6 -8 -6q-7 0 -25 -3q-20 -4 -27.5 -17t-9.5 -40q-2 -32 -2 -216v-107q0 -99 -19 -175t-73 -124q-83 -74 -206 -74q-131 0 -206 71q-87 83 -87 263v146q0 184 -2 216q-2 27 -10.5 39.5t-32.5 17.5q-12 3 -34 3q-8 0 -8 6q0 8 16 8q27 0 71 -1l44 -2q2 0 41.5 1.5
t57.5 1.5q16 0 16 -8q0 -6 -8 -6q-7 0 -25 -3q-19 -3 -27 -16t-10 -41q-2 -32 -2 -216zM538 946q22 -20 32 -40q6 -13 -4 -13q-20 0 -41 -8q-53 -19 -142 -61q-14 -6 -16 -6q-6 0 -6 4t8 12q86 80 123 104q22 16 29 16q9 0 17 -8z" />
    <glyph glyph-name="Ucircumflex" unicode="&#xdb;" horiz-adv-x="830" 
d="M207 463v-140q0 -100 19.5 -156.5t55.5 -90.5q34 -32 69 -43.5t82 -11.5q45 0 87.5 19.5t69.5 52.5q58 72 58 245v125q0 184 -2 216q-2 27 -10.5 39.5t-32.5 17.5q-12 3 -34 3q-8 0 -8 6q0 8 16 8q20 0 45 -0.5t42.5 -1.5t18.5 -1t33.5 1.5t50.5 1.5q16 0 16 -8
q0 -6 -8 -6q-7 0 -25 -3q-20 -4 -27.5 -17t-9.5 -40q-2 -32 -2 -216v-107q0 -99 -19 -175t-73 -124q-83 -74 -206 -74q-131 0 -206 71q-87 83 -87 263v146q0 184 -2 216q-2 27 -10.5 39.5t-32.5 17.5q-12 3 -34 3q-8 0 -8 6q0 8 16 8q27 0 71 -1l44 -2q2 0 41.5 1.5
t57.5 1.5q16 0 16 -8q0 -6 -8 -6q-7 0 -25 -3q-19 -3 -27 -16t-10 -41q-2 -32 -2 -216zM421 960q6 0 19 -8q111 -74 129 -87q12 -9 12 -12t-5 -6l-34 -19q-6 -4 -12 0q-55 44 -106 71q-8 5 -11 5l-16 -7q-70 -35 -119 -63q-16 -9 -21 -9q-8 0 -4 9q2 3 7 7q120 89 143 109
q14 10 18 10z" />
    <glyph glyph-name="Udieresis" unicode="&#xdc;" horiz-adv-x="830" 
d="M207 463v-140q0 -100 19.5 -156.5t55.5 -90.5q34 -32 69 -43.5t82 -11.5q45 0 87.5 19.5t69.5 52.5q58 72 58 245v125q0 184 -2 216q-2 27 -10.5 39.5t-32.5 17.5q-12 3 -34 3q-8 0 -8 6q0 8 16 8q20 0 45 -0.5t42.5 -1.5t18.5 -1t33.5 1.5t50.5 1.5q16 0 16 -8
q0 -6 -8 -6q-7 0 -25 -3q-20 -4 -27.5 -17t-9.5 -40q-2 -32 -2 -216v-107q0 -99 -19 -175t-73 -124q-83 -74 -206 -74q-131 0 -206 71q-87 83 -87 263v146q0 184 -2 216q-2 27 -10.5 39.5t-32.5 17.5q-12 3 -34 3q-8 0 -8 6q0 8 16 8q27 0 71 -1l44 -2q2 0 41.5 1.5
t57.5 1.5q16 0 16 -8q0 -6 -8 -6q-7 0 -25 -3q-19 -3 -27 -16t-10 -41q-2 -32 -2 -216zM532 839q-19 0 -29 12t-10 27q0 14 10.5 26.5t29.5 12.5q17 0 27.5 -10.5t10.5 -26.5q0 -18 -10.5 -29.5t-28.5 -11.5zM309 839q-19 0 -28.5 12t-9.5 27t10 27t29 12q17 0 27.5 -10.5
t10.5 -26.5q0 -18 -10.5 -29.5t-28.5 -11.5z" />
    <glyph glyph-name="Yacute" unicode="&#xdd;" horiz-adv-x="654" 
d="M289 170v86q0 54 -23 105q-5 12 -77.5 131t-98.5 157q-35 52 -68 74q-24 16 -43 16q-10 0 -10 7t13 7q11 0 54.5 -1.5t44.5 -1.5q2 0 15 1t32.5 1.5t36.5 0.5q13 0 13 -7q0 -2 -15 -9q-13 -7 -13 -18q0 -15 13 -39q13 -23 92 -159t92 -157q12 27 77.5 141.5t88.5 152.5
q17 27 17 51t-16 28q-15 5 -15 10q0 6 16 6q15 0 39.5 -1.5t26.5 -1.5q1 0 43.5 1.5t53.5 1.5q13 0 13 -6q0 -8 -13 -8q-24 0 -46 -14q-22 -13 -53 -51q-24 -29 -100.5 -157t-90.5 -161q-15 -36 -15 -100v-86q0 -58 3 -100q3 -50 41 -55q28 -4 45 -4q8 0 8 -6q0 -8 -16 -8
q-24 0 -53.5 0.5t-49 1.5t-20.5 1t-19.5 -0.5t-42 -1.5t-36.5 -1q-16 0 -16 8q0 6 8 6q12 0 30 4q28 6 31 55q3 42 3 100zM461 945q22 -20 32 -40q7 -13 -4 -13q-20 0 -41 -8q-53 -19 -142 -61q-14 -6 -16 -6q-6 0 -6 4t8 12q86 80 123 104q22 16 29 16q9 0 17 -8z" />
    <glyph glyph-name="Thorn" unicode="&#xde;" horiz-adv-x="646" 
d="M262 679q-2 -84 -2 -91q58 4 87 4q57 0 100.5 -13t55.5 -21.5t28 -22.5q51 -44 51 -130q0 -98 -69.5 -162t-176.5 -64q-16 0 -21 1q-11 0 -11 7q0 9 27 9q73 0 123 46t50 117q0 97 -56 154q-49 50 -137 50q-29 0 -43 -6q-8 -3 -8 -19v-251q0 -175 5 -217
q3 -25 10.5 -38.5t28.5 -16.5q28 -4 41 -4q12 0 12 -6q0 -8 -15 -8q-24 0 -53.5 0.5t-48.5 1.5t-20 1t-19.5 -0.5t-42 -1.5t-36.5 -1q-16 0 -16 8q0 6 11 6q13 0 26 3q23 5 30 56q5 42 5 217v176q0 184 -2 216q-3 49 -34 56q-15 4 -31 4q-8 0 -8 6q0 8 16 8q15 0 39 -0.5
t42.5 -1.5t19.5 -1t22.5 1t48 1.5t39.5 0.5q16 0 16 -8q0 -6 -8 -6q-15 0 -33 -3q-42 -8 -43 -57z" />
    <glyph glyph-name="germandbls" unicode="&#xdf;" horiz-adv-x="700" 
d="M150 244v200q0 126 -5 173q0 9 7 9q117 20 182 20q119 0 172 -40t53 -93q0 -95 -126 -139q106 -53 149 -100.5t43 -111.5q0 -89 -79 -139q-53 -36 -131 -36q-67 0 -103 20q-15 9 -15 24q0 38 5 88q1 14 8 14t7 -12q1 -18 5 -34q8 -33 40 -48.5t68 -15.5q55 0 88 32t33 74
q0 39 -19 70t-67 66q-25 18 -49 33t-36.5 21t-31.5 14t-23 10q-12 6 -12 11q0 9 13 11q88 24 121 54.5t33 74.5q0 48 -41.5 80.5t-133.5 32.5q-32 0 -66 -7q-4 -2 -4 -9t-2 -64.5t-2 -84.5v-198q0 -197 14 -237q5 -9 -3 -9q-4 0 -28.5 1t-26.5 1q-3 0 -38 -1.5t-49 -1.5
t-14 6q0 7 10 8q4 1 9.5 1.5t9.5 0.5q26 3 30 48q5 60 5 183z" />
    <glyph glyph-name="agrave" unicode="&#xe0;" horiz-adv-x="616" 
d="M381 241h-182q-7 0 -10 -8l-44 -125q-17 -48 -17 -71q0 -26 33 -26h7q12 0 12 -7t-15 -7q-12 0 -43.5 1.5t-35.5 1.5q-1 0 -36 -1.5t-60 -1.5q-16 0 -16 7t12 7q14 0 20 1q29 3 45.5 22t31.5 57l200 527q8 22 12 28t9 6q7 0 20 -32q2 -5 87 -219t116 -288q34 -82 76 -97
q13 -5 34 -5q12 0 12 -7t-15 -7q-85 0 -152 2q-25 1 -25 7q0 5 7 7q11 5 4 22l-79 201q-3 5 -8 5zM209 276h160q5 0 3 6l-79 221q-5 15 -11 0l-75 -221q-3 -6 2 -6zM349 716q0 -2 -5 -2q-12 0 -78 37t-107 65q-15 12 -14 15q0 5 10 8q27 12 46 15q8 1 11.5 -0.5t12.5 -10.5
q4 -4 27.5 -29t46.5 -47.5t42 -38.5q8 -7 8 -12z" />
    <glyph glyph-name="aacute" unicode="&#xe1;" horiz-adv-x="616" 
d="M381 241h-182q-7 0 -10 -8l-44 -125q-17 -48 -17 -71q0 -26 33 -26h7q12 0 12 -7t-15 -7q-12 0 -43.5 1.5t-35.5 1.5q-1 0 -36 -1.5t-60 -1.5q-16 0 -16 7t12 7q14 0 20 1q29 3 45.5 22t31.5 57l200 527q8 22 12 28t9 6q7 0 20 -32q2 -5 87 -219t116 -288q34 -82 76 -97
q13 -5 34 -5q12 0 12 -7t-15 -7q-85 0 -152 2q-25 1 -25 7q0 5 7 7q11 5 4 22l-79 201q-3 5 -8 5zM209 276h160q5 0 3 6l-79 221q-5 15 -11 0l-75 -221q-3 -6 2 -6zM421 846q22 -18 33 -35q8 -12 -3 -12q-1 0 -7.5 -1.5t-15 -4t-14.5 -5.5q-59 -27 -128 -69l-3 -1
q-3 -2 -5.5 -3.5t-5.5 -2.5t-5 -0.5t-2 3.5q0 5 7 12q97 101 106 108q20 17 26 17q10 0 17 -6z" />
    <glyph glyph-name="acircumflex" unicode="&#xe2;" horiz-adv-x="616" 
d="M381 241h-182q-7 0 -10 -8l-44 -125q-17 -48 -17 -71q0 -26 33 -26h7q12 0 12 -7t-15 -7q-12 0 -43.5 1.5t-35.5 1.5q-1 0 -36 -1.5t-60 -1.5q-16 0 -16 7t12 7q14 0 20 1q29 3 45.5 22t31.5 57l200 527q8 22 12 28t9 6q7 0 20 -32q2 -5 87 -219t116 -288q34 -82 76 -97
q13 -5 34 -5q12 0 12 -7t-15 -7q-85 0 -152 2q-25 1 -25 7q0 5 7 7q11 5 4 22l-79 201q-3 5 -8 5zM209 276h160q5 0 3 6l-79 221q-5 15 -11 0l-75 -221q-3 -6 2 -6zM316 832q3 0 17 -7q3 -2 32 -21.5t54 -37t32 -22.5q11 -8 11 -11q0 -2 -5 -5l-35 -22q-6 -4 -10 0
q-47 41 -98 68q-7 4 -12 4q-4 0 -14 -5q-29 -16 -107 -62q-13 -8 -19 -8q-9 0 -3 7q1 2 5 5q65 49 135 108q13 9 17 9z" />
    <glyph glyph-name="atilde" unicode="&#xe3;" horiz-adv-x="616" 
d="M381 241h-182q-7 0 -10 -8l-44 -125q-17 -48 -17 -71q0 -26 33 -26h7q12 0 12 -7t-15 -7q-12 0 -43.5 1.5t-35.5 1.5q-1 0 -36 -1.5t-60 -1.5q-16 0 -16 7t12 7q14 0 20 1q29 3 45.5 22t31.5 57l200 527q8 22 12 28t9 6q7 0 20 -32q2 -5 87 -219t116 -288q34 -82 76 -97
q13 -5 34 -5q12 0 12 -7t-15 -7q-85 0 -152 2q-25 1 -25 7q0 5 7 7q11 5 4 22l-79 201q-3 5 -8 5zM209 276h160q5 0 3 6l-79 221q-5 15 -11 0l-75 -221q-3 -6 2 -6zM373 721q-20 0 -74 21.5t-75 21.5q-35 0 -61 -29q-7 -9 -13 -9q-2 0 -2.5 1.5t0 5t3.5 7.5q45 69 90 69
q29 0 87 -23q43 -17 61 -17q37 0 70 34q7 8 11 8q3 0 3.5 -4.5t-2.5 -8.5q-48 -77 -98 -77z" />
    <glyph glyph-name="adieresis" unicode="&#xe4;" horiz-adv-x="616" 
d="M381 241h-182q-7 0 -10 -8l-44 -125q-17 -48 -17 -71q0 -26 33 -26h7q12 0 12 -7t-15 -7q-12 0 -43.5 1.5t-35.5 1.5q-1 0 -36 -1.5t-60 -1.5q-16 0 -16 7t12 7q14 0 20 1q29 3 45.5 22t31.5 57l200 527q8 22 12 28t9 6q7 0 20 -32q2 -5 87 -219t116 -288q34 -82 76 -97
q13 -5 34 -5q12 0 12 -7t-15 -7q-85 0 -152 2q-25 1 -25 7q0 5 7 7q11 5 4 22l-79 201q-3 5 -8 5zM209 276h160q5 0 3 6l-79 221q-5 15 -11 0l-75 -221q-3 -6 2 -6zM416 730q-19 0 -29 12t-10 27q0 14 10.5 26.5t29.5 12.5q17 0 27.5 -10.5t10.5 -26.5q0 -18 -10.5 -29.5
t-28.5 -11.5zM193 730q-19 0 -28.5 12t-9.5 27t10 27t29 12q17 0 27.5 -10.5t10.5 -26.5q0 -18 -10.5 -29.5t-28.5 -11.5z" />
    <glyph glyph-name="aring" unicode="&#xe5;" horiz-adv-x="616" 
d="M381 241h-182q-7 0 -10 -8l-44 -125q-17 -48 -17 -71q0 -26 33 -26h7q12 0 12 -7t-15 -7q-12 0 -43.5 1.5t-35.5 1.5q-1 0 -36 -1.5t-60 -1.5q-16 0 -16 7t12 7q14 0 20 1q29 3 45.5 22t31.5 57l200 527q8 22 12 28t9 6q7 0 20 -32q2 -5 87 -219t116 -288q34 -82 76 -97
q13 -5 34 -5q12 0 12 -7t-15 -7q-85 0 -152 2q-25 1 -25 7q0 5 7 7q11 5 4 22l-79 201q-3 5 -8 5zM209 276h160q5 0 3 6l-79 221q-5 15 -11 0l-75 -221q-3 -6 2 -6zM283 688q-33 0 -52.5 16.5t-19.5 41.5q0 33 31 56.5t79 23.5q35 0 54.5 -15.5t19.5 -40.5q0 -37 -34 -59.5
t-78 -22.5zM250 757q0 -22 15.5 -35.5t35.5 -13.5q25 0 39.5 14t14.5 36q0 20 -13.5 33.5t-38.5 13.5q-21 0 -37 -12t-16 -36z" />
    <glyph glyph-name="ae" unicode="&#xe6;" horiz-adv-x="807" 
d="M458 637q186 0 206 1q32 2 39 6q8 4 12 4q3 0 3 -7q0 -2 -3.5 -17.5t-4.5 -29.5q0 -4 -1 -21.5t-2 -28.5q0 -15 -7 -15q-5 0 -7 11q-3 23 -5 27q-5 16 -18.5 23.5t-48.5 9.5q-26 2 -114 2q-5 0 -5 -8v-265q0 -10 6 -10q104 0 135 3q36 2 46 15q5 8 11 8q4 0 4 -6
q0 -2 -1 -9t-3 -19.5t-3 -24.5q-2 -17 -3 -38.5t-1 -22.5q-1 -11 -7 -11t-6 13q0 12 -3 24q-8 27 -48 30q-46 4 -120 4q-7 0 -7 -7v-35v-136q2 -30 7.5 -44.5t20.5 -20.5q19 -9 73 -9q55 0 76 6t29.5 20.5t15.5 45.5q3 14 9 14t6 -15q0 -25 -11 -87q-3 -15 -11 -18.5
t-33 -3.5q-37 0 -76 1t-53 1q-105 3 -118 3q-11 0 -32.5 -1.5t-33.5 -1.5q-14 0 -14 7t9 7q16 2 20 3q15 3 23 19.5t11 59.5q2 68 2 149v36q0 7 -8 7h-151q-14 0 -17 -5q-64 -93 -97 -149q-41 -62 -41 -86q0 -18 13 -25.5t48 -8.5q11 0 11 -7t-12 -7q-23 0 -50.5 0.5
t-47 1.5t-21.5 1h-17q-16 -1 -41 -2t-46 -1q-11 0 -11 7t10 7q38 0 69 28.5t66 77.5q46 57 319 474q12 19 19 35q5 14 10 14q2 0 13.5 -1.5t17.5 -1.5zM276 319h138q8 0 8 7v226q0 6 -5 2q-2 -1 -3 -3q-11 -15 -73 -115t-66 -108q-6 -9 1 -9z" />
    <glyph glyph-name="ccedilla" unicode="&#xe7;" horiz-adv-x="709" 
d="M339 -61l58 49q-146 12 -235 89q-107 93 -107 255q0 52 24 116t77 115q92 89 269 89q55 0 132 -11q64 -10 88 -11q9 0 9 -10q0 -3 -2 -17t-3 -32q0 -13 -0.5 -49.5t-1.5 -42.5q-1 -19 -8 -19q-8 0 -8 19q0 23 -10.5 48t-28.5 39q-24 21 -73 36t-104 15q-128 0 -192 -58
q-46 -42 -63 -94t-17 -125q0 -126 90.5 -219t220.5 -93q111 0 153 41q25 26 33 72q3 15 11 15q5 0 5 -14q0 -7 -7.5 -51.5t-12.5 -59.5q-4 -12 -8 -16t-15 -9q-47 -20 -158 -20h-24q-44 -40 -51 -45q105 -16 105 -77q0 -40 -44.5 -64.5t-106.5 -24.5q-13 0 -13 8q0 4 19 8
q77 15 77 66q0 50 -79 62q-11 2 -11 7t12 13z" />
    <glyph glyph-name="egrave" unicode="&#xe8;" horiz-adv-x="542" 
d="M155 244v150q0 155 -2 182q-2 22 -9.5 33t-28.5 15q-12 2 -24 2q-13 0 -13 6q0 8 15 8q9 0 41 -1t62 -2q183 0 203 1q30 1 39 5q9 3 11 3q4 0 4 -7q0 -2 -3.5 -16.5t-4.5 -28.5q-3 -43 -3 -52q0 -15 -7 -15t-7 11q-1 19 -7 32q-5 16 -17 22t-48 8q-26 2 -114 2
q-5 0 -5 -8v-227q0 -10 6 -10q103 0 135 3q36 2 46 15q5 8 11 8q4 0 4 -6q0 -2 -1 -9t-3 -19.5t-3 -24.5q-2 -17 -3 -38.5t-1 -22.5q-1 -11 -7 -11t-6 13q0 12 -3 24q-8 27 -48 30q-46 4 -120 4q-7 0 -7 -7v-73v-43v-59.5v-33.5q2 -30 7.5 -44.5t20.5 -20.5q19 -9 73 -9
q55 0 76 6t29.5 20.5t15.5 45.5q3 14 9 14t6 -15q0 -25 -11 -87q-3 -15 -11 -18.5t-33 -3.5q-37 0 -76 1t-53 1q-105 3 -118 3q-11 0 -32.5 -1.5t-33.5 -1.5q-14 0 -14 7t9 7t20 3q15 3 23 19.5t9 59.5q2 68 2 151zM328 706q0 -2 -5 -2q-12 0 -78 37t-107 65q-15 12 -14 15
q0 5 10 8q27 12 46 15q8 1 11.5 -0.5t12.5 -10.5q4 -4 27.5 -29t46.5 -47.5t42 -38.5q8 -7 8 -12z" />
    <glyph glyph-name="eacute" unicode="&#xe9;" horiz-adv-x="542" 
d="M155 244v150q0 155 -2 182q-2 22 -9.5 33t-28.5 15q-12 2 -24 2q-13 0 -13 6q0 8 15 8q9 0 41 -1t62 -2q183 0 203 1q30 1 39 5q9 3 11 3q4 0 4 -7q0 -2 -3.5 -16.5t-4.5 -28.5q-3 -43 -3 -52q0 -15 -7 -15t-7 11q-1 19 -7 32q-5 16 -17 22t-48 8q-26 2 -114 2
q-5 0 -5 -8v-227q0 -10 6 -10q103 0 135 3q36 2 46 15q5 8 11 8q4 0 4 -6q0 -2 -1 -9t-3 -19.5t-3 -24.5q-2 -17 -3 -38.5t-1 -22.5q-1 -11 -7 -11t-6 13q0 12 -3 24q-8 27 -48 30q-46 4 -120 4q-7 0 -7 -7v-73v-43v-59.5v-33.5q2 -30 7.5 -44.5t20.5 -20.5q19 -9 73 -9
q55 0 76 6t29.5 20.5t15.5 45.5q3 14 9 14t6 -15q0 -25 -11 -87q-3 -15 -11 -18.5t-33 -3.5q-37 0 -76 1t-53 1q-105 3 -118 3q-11 0 -32.5 -1.5t-33.5 -1.5q-14 0 -14 7t9 7t20 3q15 3 23 19.5t9 59.5q2 68 2 151zM404 835q22 -18 33 -35q8 -12 -3 -12q-1 0 -7.5 -1.5
t-15 -4t-14.5 -5.5q-58 -27 -128 -69l-3 -2q-3 -1 -5.5 -2.5t-5.5 -2.5t-5 -0.5t-2 3.5q0 5 7 12q97 101 106 108q20 17 26 17q10 0 17 -6z" />
    <glyph glyph-name="ecircumflex" unicode="&#xea;" horiz-adv-x="542" 
d="M155 244v150q0 155 -2 182q-2 22 -9.5 33t-28.5 15q-12 2 -24 2q-13 0 -13 6q0 8 15 8q9 0 41 -1t62 -2q183 0 203 1q30 1 39 5q9 3 11 3q4 0 4 -7q0 -2 -3.5 -16.5t-4.5 -28.5q-3 -43 -3 -52q0 -15 -7 -15t-7 11q-1 19 -7 32q-5 16 -17 22t-48 8q-26 2 -114 2
q-5 0 -5 -8v-227q0 -10 6 -10q103 0 135 3q36 2 46 15q5 8 11 8q4 0 4 -6q0 -2 -1 -9t-3 -19.5t-3 -24.5q-2 -17 -3 -38.5t-1 -22.5q-1 -11 -7 -11t-6 13q0 12 -3 24q-8 27 -48 30q-46 4 -120 4q-7 0 -7 -7v-73v-43v-59.5v-33.5q2 -30 7.5 -44.5t20.5 -20.5q19 -9 73 -9
q55 0 76 6t29.5 20.5t15.5 45.5q3 14 9 14t6 -15q0 -25 -11 -87q-3 -15 -11 -18.5t-33 -3.5q-37 0 -76 1t-53 1q-105 3 -118 3q-11 0 -32.5 -1.5t-33.5 -1.5q-14 0 -14 7t9 7t20 3q15 3 23 19.5t9 59.5q2 68 2 151zM280 843q3 0 17 -7q3 -2 32 -21.5t54 -37t32 -22.5
q11 -8 11 -11q0 -2 -5 -5l-35 -22q-6 -4 -10 0q-47 41 -98 68q-7 4 -12 4q-4 0 -14 -5q-29 -16 -107 -62q-13 -8 -19 -8q-9 0 -3 7q1 2 5 5q65 49 135 108q13 9 17 9z" />
    <glyph glyph-name="edieresis" unicode="&#xeb;" horiz-adv-x="542" 
d="M155 244v150q0 155 -2 182q-2 22 -9.5 33t-28.5 15q-12 2 -24 2q-13 0 -13 6q0 8 15 8q9 0 41 -1t62 -2q183 0 203 1q30 1 39 5q9 3 11 3q4 0 4 -7q0 -2 -3.5 -16.5t-4.5 -28.5q-3 -43 -3 -52q0 -15 -7 -15t-7 11q-1 19 -7 32q-5 16 -17 22t-48 8q-26 2 -114 2
q-5 0 -5 -8v-227q0 -10 6 -10q103 0 135 3q36 2 46 15q5 8 11 8q4 0 4 -6q0 -2 -1 -9t-3 -19.5t-3 -24.5q-2 -17 -3 -38.5t-1 -22.5q-1 -11 -7 -11t-6 13q0 12 -3 24q-8 27 -48 30q-46 4 -120 4q-7 0 -7 -7v-73v-43v-59.5v-33.5q2 -30 7.5 -44.5t20.5 -20.5q19 -9 73 -9
q55 0 76 6t29.5 20.5t15.5 45.5q3 14 9 14t6 -15q0 -25 -11 -87q-3 -15 -11 -18.5t-33 -3.5q-37 0 -76 1t-53 1q-105 3 -118 3q-11 0 -32.5 -1.5t-33.5 -1.5q-14 0 -14 7t9 7t20 3q15 3 23 19.5t9 59.5q2 68 2 151zM396 733q-19 0 -29 12t-10 27q0 14 10.5 26.5t29.5 12.5
q17 0 27.5 -10.5t10.5 -26.5q0 -18 -10.5 -29.5t-28.5 -11.5zM173 733q-19 0 -28.5 12t-9.5 27t10 27t29 12q17 0 27.5 -10.5t10.5 -26.5q0 -18 -10.5 -29.5t-28.5 -11.5z" />
    <glyph glyph-name="igrave" unicode="&#xec;" horiz-adv-x="392" 
d="M155 244v150q0 156 -2 183q-3 41 -29 46q-6 1 -13.5 2t-9.5 1q-11 2 -11 7q0 7 15 7q14 0 36 -1t39 -1l16 -1q1 0 18 0.5t38.5 1.5t33.5 1q15 0 15 -7q0 -6 -11 -7q-3 -1 -9 -1.5t-9 -0.5q-14 -2 -21.5 -8.5t-9.5 -14.5t-3 -25q-1 -14 -1 -182v-150q0 -154 4 -183
q3 -23 9 -32.5t25 -13.5q17 -4 38 -4q11 -1 11 -7q0 -7 -14 -7q-23 0 -50 0.5t-45 1.5t-19 1t-17.5 -0.5t-38.5 -1.5t-34 -1q-16 0 -16 7t13 7q12 0 24 3q18 4 23 48q5 36 5 182zM237 716q0 -2 -5 -2q-12 0 -78 37t-107 65q-15 12 -14 15q0 5 10 8q27 12 46 15
q8 1 11.5 -0.5t12.5 -10.5q4 -4 27.5 -29t46.5 -47.5t42 -38.5q8 -7 8 -12z" />
    <glyph glyph-name="iacute" unicode="&#xed;" horiz-adv-x="392" 
d="M155 244v150q0 156 -2 183q-3 41 -29 46q-6 1 -13.5 2t-9.5 1q-11 2 -11 7q0 7 15 7q14 0 36 -1t39 -1l16 -1q1 0 18 0.5t38.5 1.5t33.5 1q15 0 15 -7q0 -6 -11 -7q-3 -1 -9 -1.5t-9 -0.5q-14 -2 -21.5 -8.5t-9.5 -14.5t-3 -25q-1 -14 -1 -182v-150q0 -154 4 -183
q3 -23 9 -32.5t25 -13.5q17 -4 38 -4q11 -1 11 -7q0 -7 -14 -7q-23 0 -50 0.5t-45 1.5t-19 1t-17.5 -0.5t-38.5 -1.5t-34 -1q-16 0 -16 7t13 7q12 0 24 3q18 4 23 48q5 36 5 182zM319 840q22 -18 33 -35q8 -12 -3 -12q-1 0 -7.5 -1.5t-15 -4t-14.5 -5.5q-59 -27 -128 -69
l-3 -1q-3 -2 -5.5 -3.5t-5.5 -2.5t-5 -0.5t-2 3.5q0 5 7 12q97 101 106 108q20 17 26 17q10 0 17 -6z" />
    <glyph glyph-name="icircumflex" unicode="&#xee;" horiz-adv-x="392" 
d="M155 244v150q0 156 -2 183q-3 41 -29 46q-6 1 -13.5 2t-9.5 1q-11 2 -11 7q0 7 15 7q14 0 36 -1t39 -1l16 -1q1 0 18 0.5t38.5 1.5t33.5 1q15 0 15 -7q0 -6 -11 -7q-3 -1 -9 -1.5t-9 -0.5q-14 -2 -21.5 -8.5t-9.5 -14.5t-3 -25q-1 -14 -1 -182v-150q0 -154 4 -183
q3 -23 9 -32.5t25 -13.5q17 -4 38 -4q11 -1 11 -7q0 -7 -14 -7q-23 0 -50 0.5t-45 1.5t-19 1t-17.5 -0.5t-38.5 -1.5t-34 -1q-16 0 -16 7t13 7q12 0 24 3q18 4 23 48q5 36 5 182zM205 838q3 0 17 -7q3 -2 32 -21.5t54 -37t32 -22.5q11 -8 11 -11q0 -2 -5 -5l-35 -22
q-6 -4 -10 0q-47 41 -98 68q-7 4 -12 4q-4 0 -14 -5q-29 -16 -107 -62q-13 -8 -19 -8q-9 0 -3 7q1 2 5 5q65 49 135 108q14 9 17 9z" />
    <glyph glyph-name="idieresis" unicode="&#xef;" horiz-adv-x="392" 
d="M155 244v150q0 156 -2 183q-3 41 -29 46q-6 1 -13.5 2t-9.5 1q-11 2 -11 7q0 7 15 7q14 0 36 -1t39 -1l16 -1q1 0 18 0.5t38.5 1.5t33.5 1q15 0 15 -7q0 -6 -11 -7q-3 -1 -9 -1.5t-9 -0.5q-14 -2 -21.5 -8.5t-9.5 -14.5t-3 -25q-1 -14 -1 -182v-150q0 -154 4 -183
q3 -23 9 -32.5t25 -13.5q17 -4 38 -4q11 -1 11 -7q0 -7 -14 -7q-23 0 -50 0.5t-45 1.5t-19 1t-17.5 -0.5t-38.5 -1.5t-34 -1q-16 0 -16 7t13 7q12 0 24 3q18 4 23 48q5 36 5 182zM307 730q-19 0 -29 12t-10 27q0 14 10.5 26.5t29.5 12.5q17 0 27.5 -10.5t10.5 -26.5
q0 -18 -10.5 -29.5t-28.5 -11.5zM84 730q-19 0 -28.5 12t-9.5 27t10 27t29 12q17 0 27.5 -10.5t10.5 -26.5q0 -18 -10.5 -29.5t-28.5 -11.5z" />
    <glyph glyph-name="macron" unicode="&#xf0;" 
d="M122 778h265q12 0 8 -11l-8 -24q-1 -6 -9 -6h-265q-6 0 -8.5 1.5t-1.5 5.5l8 28q1 6 11 6z" />
    <glyph glyph-name="ntilde" unicode="&#xf1;" horiz-adv-x="839" 
d="M128 122v489q0 41 11 41q4 0 31 -27q9 -10 288 -295q40 -39 116 -115l88 -88l-11 416q-1 41 -7.5 57.5t-26.5 21.5q-23 4 -39 4q-12 0 -12 8q0 6 18 6q26 0 60 -2l34 -1q1 0 29 1.5t51 1.5q14 0 14 -6t-9 -8q-2 0 -10.5 -1t-14.5 -2q-18 -4 -24 -18t-6 -57l-2 -502
q0 -19 -0.5 -29.5t-1.5 -16.5t-2.5 -7.5t-4.5 -1.5q-10 0 -66 53q-2 1 -38.5 36.5t-98 96.5t-93.5 92q-104 108 -229 238l13 -391q2 -54 8.5 -75.5t24.5 -25.5q16 -4 41 -4q12 0 12 -7t-16 -7q-24 0 -46.5 0.5t-35.5 1.5t-15 1t-15 -0.5t-33 -1.5t-39 -1q-15 0 -15 7t14 7
q18 0 31 4q16 5 21.5 28t5.5 79zM484 731q-20 0 -74 21.5t-75 21.5q-35 0 -61 -29q-7 -9 -13 -9q-2 0 -2.5 1.5t0 5t3.5 7.5q45 69 90 69q30 0 87 -23q43 -17 61 -17q37 0 70 34q7 8 11 8q3 0 3.5 -4.5t-2.5 -8.5q-48 -77 -98 -77z" />
    <glyph glyph-name="ograve" unicode="&#xf2;" horiz-adv-x="810" 
d="M400 -14q-88 0 -156.5 30.5t-108.5 80t-60 106.5t-20 117q0 42 12.5 86t40 88.5t67 79t99.5 56.5t131 22q152 0 250.5 -86t98.5 -233q0 -146 -98.5 -246.5t-255.5 -100.5zM425 20q25 0 51 5t60.5 23.5t60.5 48t44.5 84.5t18.5 127q0 145 -76.5 229t-184.5 84
q-111 0 -181 -70t-70 -205q0 -147 75.5 -236.5t201.5 -89.5zM466 716q0 -2 -5 -2q-12 0 -78 37t-107 65q-15 12 -14 15q0 5 10 8q27 12 46 15q8 1 11.5 -0.5t12.5 -10.5q4 -4 27.5 -29t46.5 -47.5t42 -38.5q8 -7 8 -12z" />
    <glyph glyph-name="oacute" unicode="&#xf3;" horiz-adv-x="810" 
d="M400 -14q-88 0 -156.5 30.5t-108.5 80t-60 106.5t-20 117q0 42 12.5 86t40 88.5t67 79t99.5 56.5t131 22q152 0 250.5 -86t98.5 -233q0 -146 -98.5 -246.5t-255.5 -100.5zM425 20q25 0 51 5t60.5 23.5t60.5 48t44.5 84.5t18.5 127q0 145 -76.5 229t-184.5 84
q-111 0 -181 -70t-70 -205q0 -147 75.5 -236.5t201.5 -89.5zM506 844q22 -18 33 -35q8 -12 -3 -12q-1 0 -7.5 -1.5t-15 -4t-14.5 -5.5q-59 -27 -128 -69l-3 -1q-3 -2 -5.5 -3.5t-5.5 -2.5t-5 -0.5t-2 3.5q0 5 7 12q97 101 106 108q20 17 26 17q10 0 17 -6z" />
    <glyph glyph-name="ocircumflex" unicode="&#xf4;" horiz-adv-x="810" 
d="M400 -14q-88 0 -156.5 30.5t-108.5 80t-60 106.5t-20 117q0 42 12.5 86t40 88.5t67 79t99.5 56.5t131 22q152 0 250.5 -86t98.5 -233q0 -146 -98.5 -246.5t-255.5 -100.5zM425 20q25 0 51 5t60.5 23.5t60.5 48t44.5 84.5t18.5 127q0 145 -76.5 229t-184.5 84
q-111 0 -181 -70t-70 -205q0 -147 75.5 -236.5t201.5 -89.5zM413 848q3 0 17 -7q3 -2 32 -21.5t54 -37t32 -22.5q11 -8 11 -11q0 -2 -5 -5l-35 -22q-6 -4 -10 0q-47 41 -98 68q-7 4 -12 4q-4 0 -14 -5q-29 -16 -107 -62q-13 -8 -19 -8q-9 0 -3 7q1 2 5 5q65 49 135 108
q14 9 17 9z" />
    <glyph glyph-name="otilde" unicode="&#xf5;" horiz-adv-x="810" 
d="M400 -14q-88 0 -156.5 30.5t-108.5 80t-60 106.5t-20 117q0 42 12.5 86t40 88.5t67 79t99.5 56.5t131 22q152 0 250.5 -86t98.5 -233q0 -146 -98.5 -246.5t-255.5 -100.5zM425 20q25 0 51 5t60.5 23.5t60.5 48t44.5 84.5t18.5 127q0 145 -76.5 229t-184.5 84
q-111 0 -181 -70t-70 -205q0 -147 75.5 -236.5t201.5 -89.5zM470 732q-20 0 -74 21.5t-75 21.5q-35 0 -61 -29q-7 -9 -13 -9q-2 0 -2.5 1.5t0 5t3.5 7.5q45 69 90 69q30 0 87 -23q43 -17 61 -17q37 0 70 34q7 8 11 8q3 0 3.5 -4t-2.5 -9q-48 -77 -98 -77z" />
    <glyph glyph-name="odieresis" unicode="&#xf6;" horiz-adv-x="810" 
d="M400 -14q-88 0 -156.5 30.5t-108.5 80t-60 106.5t-20 117q0 42 12.5 86t40 88.5t67 79t99.5 56.5t131 22q152 0 250.5 -86t98.5 -233q0 -146 -98.5 -246.5t-255.5 -100.5zM425 20q25 0 51 5t60.5 23.5t60.5 48t44.5 84.5t18.5 127q0 145 -76.5 229t-184.5 84
q-111 0 -181 -70t-70 -205q0 -147 75.5 -236.5t201.5 -89.5zM516 750q-19 0 -29 12t-10 27q0 14 10.5 26.5t29.5 12.5q17 0 27.5 -10.5t10.5 -26.5q0 -18 -10.5 -29.5t-28.5 -11.5zM293 750q-19 0 -28.5 12t-9.5 27t10 27t29 12q17 0 27.5 -10.5t10.5 -26.5
q0 -18 -10.5 -29.5t-28.5 -11.5z" />
    <glyph glyph-name="divide" unicode="&#xf7;" horiz-adv-x="661" 
d="M330 494q-18 0 -29 11.5t-11 28.5q0 19 11 30.5t28 11.5q18 0 30 -11t12 -29q1 -18 -10.5 -30t-30.5 -12zM329 223q18 0 30 -11t12 -29q1 -18 -11 -30t-31 -12q-17 0 -28 12t-11 29q0 19 11 30t28 11zM567 333h-472l-1 52h473v-52z" />
    <glyph glyph-name="oslash" unicode="&#xf8;" horiz-adv-x="810" 
d="M736 629l-70 -72q88 -86 88 -224q0 -146 -98.5 -246.5t-255.5 -100.5q-132 0 -221 69l-78 -81q-3 -3 -6 0q-13 7 -23 21q-3 3 0 8l77 79q-94 95 -94 238q0 42 12.5 86t40 88.5t67 79t99.5 56.5t131 22q136 0 230 -69l68 71q3 2 9 0q17 -10 23 -18q3 -4 1 -7zM203 138
l383 396q-73 87 -187 87q-111 0 -181 -70t-70 -205q0 -126 55 -208zM611 500l-383 -395q76 -85 197 -85q25 0 51 5t60.5 23.5t60.5 48t44.5 84.5t18.5 127q0 110 -49 192z" />
    <glyph glyph-name="ugrave" unicode="&#xf9;" horiz-adv-x="727" 
d="M187 394v-119q0 -87 15 -134t46 -74q52 -46 132 -46q87 0 137 58q49 56 49 209v106q0 154 -2 181q-1 17 -3.5 25t-10.5 15t-23 9q-14 2 -28 2q-10 0 -10 6q0 8 14 8q19 0 42 -1t38.5 -1.5t16.5 -0.5t14.5 0.5t31.5 1.5t30 1q14 0 14 -7t-10 -7q-8 0 -18 -1
q-19 -2 -25.5 -13.5t-8.5 -36.5q-1 -27 -1 -181v-89q0 -189 -81 -259q-71 -60 -183 -60q-122 0 -187 60q-74 69 -74 224v124q0 155 -3 182q-1 23 -8 34t-29 14q-12 2 -26 2q-11 0 -11 6q0 8 15 8q19 0 43.5 -1t41.5 -1.5t19 -0.5t40 1.5t54 1.5q14 0 14 -7t-12 -7
q-6 0 -22 -2q-17 -2 -22.5 -13t-7.5 -35q-1 -27 -1 -182zM414 709q0 -2 -5 -2q-12 0 -78 37t-107 65q-15 12 -14 15q0 5 10 8q27 12 46 15q8 1 11.5 -0.5t12.5 -10.5q4 -4 27.5 -29t46.5 -47.5t42 -38.5q8 -7 8 -12z" />
    <glyph glyph-name="uacute" unicode="&#xfa;" horiz-adv-x="727" 
d="M187 394v-119q0 -87 15 -134t46 -74q52 -46 132 -46q87 0 137 58q49 56 49 209v106q0 154 -2 181q-1 17 -3.5 25t-10.5 15t-23 9q-14 2 -28 2q-10 0 -10 6q0 8 14 8q19 0 42 -1t38.5 -1.5t16.5 -0.5t14.5 0.5t31.5 1.5t30 1q14 0 14 -7t-10 -7q-8 0 -18 -1
q-19 -2 -25.5 -13.5t-8.5 -36.5q-1 -27 -1 -181v-89q0 -189 -81 -259q-71 -60 -183 -60q-122 0 -187 60q-74 69 -74 224v124q0 155 -3 182q-1 23 -8 34t-29 14q-12 2 -26 2q-11 0 -11 6q0 8 15 8q19 0 43.5 -1t41.5 -1.5t19 -0.5t40 1.5t54 1.5q14 0 14 -7t-12 -7
q-6 0 -22 -2q-17 -2 -22.5 -13t-7.5 -35q-1 -27 -1 -182zM476 839q22 -18 33 -35q8 -12 -3 -12q-1 0 -7.5 -1.5t-15 -4t-14.5 -5.5q-59 -27 -128 -69l-3 -2q-3 -1 -5.5 -2.5t-5.5 -2.5t-5 -0.5t-2 3.5q0 5 7 12q97 101 106 108q20 17 26 17q10 0 17 -6z" />
    <glyph glyph-name="ucircumflex" unicode="&#xfb;" horiz-adv-x="727" 
d="M187 394v-119q0 -87 15 -134t46 -74q52 -46 132 -46q87 0 137 58q49 56 49 209v106q0 154 -2 181q-1 17 -3.5 25t-10.5 15t-23 9q-14 2 -28 2q-10 0 -10 6q0 8 14 8q19 0 42 -1t38.5 -1.5t16.5 -0.5t14.5 0.5t31.5 1.5t30 1q14 0 14 -7t-10 -7q-8 0 -18 -1
q-19 -2 -25.5 -13.5t-8.5 -36.5q-1 -27 -1 -181v-89q0 -189 -81 -259q-71 -60 -183 -60q-122 0 -187 60q-74 69 -74 224v124q0 155 -3 182q-1 23 -8 34t-29 14q-12 2 -26 2q-11 0 -11 6q0 8 15 8q19 0 43.5 -1t41.5 -1.5t19 -0.5t40 1.5t54 1.5q14 0 14 -7t-12 -7
q-6 0 -22 -2q-17 -2 -22.5 -13t-7.5 -35q-1 -27 -1 -182zM371 848q3 0 17 -7q3 -2 32 -21.5t54 -37t32 -22.5q11 -8 11 -11q0 -2 -5 -5l-35 -22q-6 -4 -10 0q-47 41 -98 68q-7 4 -12 4q-4 0 -14 -5q-29 -16 -107 -62q-13 -8 -19 -8q-9 0 -3 7q1 2 5 5q65 49 135 108
q14 9 17 9z" />
    <glyph glyph-name="udieresis" unicode="&#xfc;" horiz-adv-x="727" 
d="M187 394v-119q0 -87 15 -134t46 -74q52 -46 132 -46q87 0 137 58q49 56 49 209v106q0 154 -2 181q-1 17 -3.5 25t-10.5 15t-23 9q-14 2 -28 2q-10 0 -10 6q0 8 14 8q19 0 42 -1t38.5 -1.5t16.5 -0.5t14.5 0.5t31.5 1.5t30 1q14 0 14 -7t-10 -7q-8 0 -18 -1
q-19 -2 -25.5 -13.5t-8.5 -36.5q-1 -27 -1 -181v-89q0 -189 -81 -259q-71 -60 -183 -60q-122 0 -187 60q-74 69 -74 224v124q0 155 -3 182q-1 23 -8 34t-29 14q-12 2 -26 2q-11 0 -11 6q0 8 15 8q19 0 43.5 -1t41.5 -1.5t19 -0.5t40 1.5t54 1.5q14 0 14 -7t-12 -7
q-6 0 -22 -2q-17 -2 -22.5 -13t-7.5 -35q-1 -27 -1 -182zM479 740q-19 0 -29 12t-10 27q0 14 10.5 26.5t29.5 12.5q17 0 27.5 -10.5t10.5 -26.5q0 -18 -10.5 -29.5t-28.5 -11.5zM256 740q-19 0 -28.5 12t-9.5 27t10 27t29 12q17 0 27.5 -10.5t10.5 -26.5q0 -18 -10.5 -29.5
t-28.5 -11.5z" />
    <glyph glyph-name="yacute" unicode="&#xfd;" horiz-adv-x="579" 
d="M252 142v73q0 54 -22 92q-7 14 -70 114.5t-83 128.5q-34 47 -51 61q-19 14 -47 15q-11 0 -11 8q0 6 12 6q7 0 30 -1t44 -1l20 -1q2 0 13.5 0.5t29 1.5t33.5 1q13 0 13 -6q0 -5 -11 -8q-16 -3 -16 -16q0 -9 13 -33q6 -11 42 -70t75 -122t43 -70q7 15 39 69.5t65.5 110
t37.5 63.5q23 40 23 53q0 3 -1 5.5t-2 4t-4.5 2.5t-4.5 1t-5.5 1t-5.5 1q-11 1 -11 8q0 6 12 6q13 0 33.5 -1.5t27.5 -1.5q6 0 42.5 1.5t45.5 1.5q12 0 12 -6q0 -8 -12 -8q-34 -2 -50 -13q-14 -9 -37 -41q-41 -56 -99.5 -152.5t-70.5 -125.5q-10 -26 -10 -79v-73
q0 -44 2 -80q1 -15 3 -22t9.5 -14.5t22.5 -10.5q17 -4 37 -4q11 0 11 -6q0 -8 -12 -8q-14 0 -30.5 0.5t-30.5 0.5t-26 0.5t-19.5 1t-8.5 0.5h-17q-17 -1 -39 -2t-34 -1q-14 0 -14 8q0 6 10 6q13 0 25 3q22 4 26 48q3 36 3 80zM416 840q22 -18 33 -35q8 -12 -3 -12
q-1 0 -7.5 -1.5t-15 -4t-14.5 -5.5q-59 -27 -128 -69l-3 -1q-3 -2 -5.5 -3.5t-5.5 -2.5t-5 -0.5t-2 3.5q0 5 7 12q97 101 106 108q20 17 26 17q10 0 17 -6z" />
    <glyph glyph-name="thorn" unicode="&#xfe;" horiz-adv-x="573" 
d="M236 575q-1 -35 -1 -75q29 3 75 3q51 0 90 -11t47 -17t25 -19q45 -38 45 -112q0 -83 -61.5 -138.5t-155.5 -55.5q-15 0 -19 1q-9 2 -9 7q0 8 24 8q61 0 103.5 39.5t42.5 101.5q0 78 -42 121q-27 29 -56 38t-69 9q-23 0 -33 -5q-7 -3 -7 -16v-210q0 -148 4 -184
q6 -43 36 -46q17 -3 33 -3q13 0 13 -7t-14 -7q-23 0 -49 0.5t-43.5 1.5t-18.5 1t-17.5 -0.5t-38.5 -1.5t-34 -1q-16 0 -16 7t12 7q15 0 22 2q23 4 27 48q4 36 4 183v150q0 155 -2 182q-3 42 -26 47q-20 4 -27 4q-10 0 -10 5q0 8 15 8q14 0 36 -1t39 -1l16 -1q1 0 21 0.5
t44.5 1.5t36.5 1q14 0 14 -7t-10 -7q-4 0 -26 -2q-23 -3 -31 -13t-9 -36z" />
    <glyph glyph-name="ydieresis" unicode="&#xff;" horiz-adv-x="579" 
d="M252 142v73q0 54 -22 92q-7 14 -70 114.5t-83 128.5q-34 47 -51 61q-19 14 -47 15q-11 0 -11 8q0 6 12 6q7 0 30 -1t44 -1l20 -1q2 0 13.5 0.5t29 1.5t33.5 1q13 0 13 -6q0 -5 -11 -8q-16 -3 -16 -16q0 -9 13 -33q6 -11 42 -70t75 -122t43 -70q7 15 39 69.5t65.5 110
t37.5 63.5q23 40 23 53q0 3 -1 5.5t-2 4t-4.5 2.5t-4.5 1t-5.5 1t-5.5 1q-11 1 -11 8q0 6 12 6q13 0 33.5 -1.5t27.5 -1.5q6 0 42.5 1.5t45.5 1.5q12 0 12 -6q0 -8 -12 -8q-34 -2 -50 -13q-14 -9 -37 -41q-41 -56 -99.5 -152.5t-70.5 -125.5q-10 -26 -10 -79v-73
q0 -44 2 -80q1 -15 3 -22t9.5 -14.5t22.5 -10.5q17 -4 37 -4q11 0 11 -6q0 -8 -12 -8q-14 0 -30.5 0.5t-30.5 0.5t-26 0.5t-19.5 1t-8.5 0.5h-17q-17 -1 -39 -2t-34 -1q-14 0 -14 8q0 6 10 6q13 0 25 3q22 4 26 48q3 36 3 80zM407 740q-19 0 -29 12t-10 27q0 14 10.5 26.5
t29.5 12.5q17 0 27.5 -10.5t10.5 -26.5q0 -18 -10.5 -29.5t-28.5 -11.5zM184 740q-19 0 -28.5 12t-9.5 27t10 27t29 12q17 0 27.5 -10.5t10.5 -26.5q0 -18 -10.5 -29.5t-28.5 -11.5z" />
    <glyph glyph-name="Amacron" unicode="&#x100;" horiz-adv-x="700" 
d="M439 292h-215q-7 0 -10 -8l-60 -177q-14 -39 -14 -67q0 -14 11 -21.5t25 -7.5h9q13 0 13 -6q0 -8 -18 -8q-14 0 -42.5 1.5t-32.5 1.5q-1 0 -43 -1.5t-70 -1.5q-19 0 -19 8q0 6 14 6q8 0 24 2q32 4 50 27.5t34 66.5l227 621q14 39 22 39t22 -36q4 -10 50.5 -132t101 -263
t81.5 -208q40 -98 86 -111q18 -6 39 -6q11 0 11 -6q0 -8 -20 -8q-88 0 -157 2q-30 2 -30 7t7 7q14 5 6 27l-93 246q-3 6 -9 6zM235 328h191q6 0 4 7l-95 270q-7 23 -15 0l-88 -270q-3 -7 3 -7zM218 878h265q12 0 8 -10l-8 -27q-1 -6 -9 -6h-265q-6 0 -8.5 1.5t-1.5 5.5l8 30
q1 6 11 6z" />
    <glyph glyph-name="amacron" unicode="&#x101;" horiz-adv-x="616" 
d="M381 241h-182q-7 0 -10 -8l-44 -125q-17 -48 -17 -71q0 -26 33 -26h7q12 0 12 -7t-15 -7q-12 0 -43.5 1.5t-35.5 1.5q-1 0 -36 -1.5t-60 -1.5q-16 0 -16 7t12 7q14 0 20 1q29 3 45.5 22t31.5 57l200 527q8 22 12 28t9 6q7 0 20 -32q2 -5 87 -219t116 -288q34 -82 76 -97
q13 -5 34 -5q12 0 12 -7t-15 -7q-85 0 -152 2q-25 1 -25 7q0 5 7 7q11 5 4 22l-79 201q-3 5 -8 5zM209 276h160q5 0 3 6l-79 221q-5 15 -11 0l-75 -221q-3 -6 2 -6zM180 778h265q12 0 8 -11l-8 -24q-1 -6 -9 -6h-265q-6 0 -8.5 1.5t-1.5 5.5l8 28q1 6 11 6z" />
    <glyph glyph-name="Abreve" unicode="&#x102;" horiz-adv-x="700" 
d="M439 292h-215q-7 0 -10 -8l-60 -177q-14 -39 -14 -67q0 -14 11 -21.5t25 -7.5h9q13 0 13 -6q0 -8 -18 -8q-14 0 -42.5 1.5t-32.5 1.5q-1 0 -43 -1.5t-70 -1.5q-19 0 -19 8q0 6 14 6q8 0 24 2q32 4 50 27.5t34 66.5l227 621q14 39 22 39t22 -36q4 -10 50.5 -132t101 -263
t81.5 -208q40 -98 86 -111q18 -6 39 -6q11 0 11 -6q0 -8 -20 -8q-88 0 -157 2q-30 2 -30 7t7 7q14 5 6 27l-93 246q-3 6 -9 6zM235 328h191q6 0 4 7l-95 270q-7 23 -15 0l-88 -270q-3 -7 3 -7zM183 899q0 5 6 10q22 25 31 25q4 0 6 -5q14 -26 49.5 -46.5t85.5 -20.5
q88 0 142 60q10 11 15 11q8 -2 -6 -23q-31 -40 -77.5 -63.5t-96.5 -23.5q-76 0 -125 36q-30 22 -30 40z" />
    <glyph glyph-name="abreve" unicode="&#x103;" horiz-adv-x="616" 
d="M381 241h-182q-7 0 -10 -8l-44 -125q-17 -48 -17 -71q0 -26 33 -26h7q12 0 12 -7t-15 -7q-12 0 -43.5 1.5t-35.5 1.5q-1 0 -36 -1.5t-60 -1.5q-16 0 -16 7t12 7q14 0 20 1q29 3 45.5 22t31.5 57l200 527q8 22 12 28t9 6q7 0 20 -32q2 -5 87 -219t116 -288q34 -82 76 -97
q13 -5 34 -5q12 0 12 -7t-15 -7q-85 0 -152 2q-25 1 -25 7q0 5 7 7q11 5 4 22l-79 201q-3 5 -8 5zM209 276h160q5 0 3 6l-79 221q-5 15 -11 0l-75 -221q-3 -6 2 -6zM152 803q0 5 5 11q19 22 29 22q4 0 5 -5q13 -23 46.5 -41.5t79.5 -18.5q83 0 131 54q9 10 14 10q7 0 -3 -16
q-1 -3 -3 -5q-64 -83 -161 -83q-69 0 -119 36q-24 18 -24 36z" />
    <glyph glyph-name="Aogonek" unicode="&#x104;" horiz-adv-x="700" 
d="M95 107l227 621q14 39 22 39t22 -36q4 -10 50.5 -132t101 -263t81.5 -208q40 -98 86 -111q18 -6 39 -6q11 0 11 -6q0 -8 -20 -8h-52q-80 -50 -80 -113q0 -26 15 -39.5t39 -13.5q27 0 46 11q14 8 14 0q0 -5 -7 -13q-33 -38 -94 -38q-37 0 -58.5 20.5t-21.5 51.5
q0 35 36.5 72t86.5 62q-13 1 -40 1.5t-41 0.5q-30 2 -30 7t7 7q14 5 6 27l-93 246q-3 6 -9 6h-215q-7 0 -10 -8l-60 -177q-14 -39 -14 -67q0 -14 11 -21.5t25 -7.5h9q13 0 13 -6q0 -8 -18 -8q-14 0 -42.5 1.5t-32.5 1.5q-1 0 -43 -1.5t-70 -1.5q-19 0 -19 8q0 6 14 6
q8 0 24 2q32 4 50 27.5t34 66.5zM235 328h191q6 0 4 7l-95 270q-7 23 -15 0l-88 -270q-3 -7 3 -7z" />
    <glyph glyph-name="aogonek" unicode="&#x105;" horiz-adv-x="616" 
d="M83 91l200 527q8 22 12 28t9 6q7 0 20 -32q2 -5 87 -219t116 -288q34 -82 76 -97q13 -5 34 -5q12 0 12 -7t-15 -7h-54q-77 -49 -77 -113q0 -53 51 -53q27 0 46 11q14 8 14 0q0 -5 -7 -13q-33 -38 -94 -38q-37 0 -58.5 20.5t-21.5 51.5q0 35 36.5 72.5t87.5 61.5
q-12 1 -37.5 1.5t-37.5 0.5q-25 1 -25 7q0 5 7 7q11 5 4 22l-79 201q-3 5 -8 5h-182q-7 0 -10 -8l-44 -125q-17 -48 -17 -71q0 -26 33 -26h7q12 0 12 -7t-15 -7q-12 0 -43.5 1.5t-35.5 1.5q-1 0 -36 -1.5t-60 -1.5q-16 0 -16 7t12 7q14 0 20 1q29 3 45.5 22t31.5 57z
M209 276h160q5 0 3 6l-79 221q-5 15 -11 0l-75 -221q-3 -6 2 -6z" />
    <glyph glyph-name="Cacute" unicode="&#x106;" horiz-adv-x="805" 
d="M515 -17q-210 0 -330 108q-121 109 -121 296q0 63 26 138t86 135q107 107 305 107q80 0 145 -12q14 -3 106 -15q9 -1 9 -11q0 -3 -1 -9.5t-2 -19t-2 -27.5q-1 -18 -2 -57.5t-1 -45.5q-1 -21 -9 -21t-8 21q0 66 -42 102q-28 24 -82.5 40.5t-117.5 16.5q-155 0 -230 -73
q-51 -49 -70.5 -112.5t-19.5 -148.5q0 -148 102.5 -257t258.5 -109q125 0 174 50q28 29 37 84q3 15 10 15t7 -15q0 -8 -7.5 -57t-14.5 -71q-4 -14 -8 -18.5t-18 -10.5q-57 -23 -180 -23zM575 959q22 -20 32 -40q7 -13 -4 -13q-20 0 -41 -8q-53 -19 -142 -61q-14 -6 -16 -6
q-6 0 -6 4t8 12q86 80 123 104q22 16 29 16q9 0 17 -8z" />
    <glyph glyph-name="cacute" unicode="&#x107;" horiz-adv-x="709" 
d="M455 -14q-187 0 -293 91q-107 93 -107 255q0 52 24 116t77 115q92 89 269 89q55 0 132 -11q64 -10 88 -11q9 0 9 -10q0 -3 -2 -17t-3 -32q0 -13 -0.5 -49.5t-1.5 -42.5q-1 -19 -8 -19q-8 0 -8 19q0 23 -10.5 48t-28.5 39q-24 21 -73 36t-104 15q-128 0 -192 -58
q-46 -42 -63 -94t-17 -125q0 -126 90.5 -219t220.5 -93q111 0 153 41q25 26 33 72q3 15 11 15q5 0 5 -14q0 -7 -7.5 -51.5t-12.5 -59.5q-4 -12 -8 -16t-15 -9q-47 -20 -158 -20zM497 850q22 -18 33 -35q8 -12 -3 -12q-1 0 -7.5 -1.5t-15 -4t-14.5 -5.5q-58 -27 -128 -69
l-3 -1q-3 -2 -5.5 -3.5t-5.5 -2.5t-5 -0.5t-2 3.5q0 5 7 12q97 101 106 108q20 17 26 17q10 0 17 -6z" />
    <glyph glyph-name="Ccircumflex" unicode="&#x108;" horiz-adv-x="805" 
d="M515 -17q-210 0 -330 108q-121 109 -121 296q0 63 26 138t86 135q107 107 305 107q80 0 145 -12q14 -3 106 -15q9 -1 9 -11q0 -3 -1 -9.5t-2 -19t-2 -27.5q-1 -18 -2 -57.5t-1 -45.5q-1 -21 -9 -21t-8 21q0 66 -42 102q-28 24 -82.5 40.5t-117.5 16.5q-155 0 -230 -73
q-51 -49 -70.5 -112.5t-19.5 -148.5q0 -148 102.5 -257t258.5 -109q125 0 174 50q28 29 37 84q3 15 10 15t7 -15q0 -8 -7.5 -57t-14.5 -71q-4 -14 -8 -18.5t-18 -10.5q-57 -23 -180 -23zM467 955q6 0 19 -8q111 -74 129 -87q12 -9 12 -12t-5 -6l-34 -19q-6 -4 -12 0
q-55 44 -106 71q-8 5 -11 5l-16 -7q-70 -35 -119 -63q-16 -9 -21 -9q-8 0 -4 9q2 3 7 7q120 89 143 109q14 10 18 10z" />
    <glyph glyph-name="ccircumflex" unicode="&#x109;" horiz-adv-x="709" 
d="M455 -14q-187 0 -293 91q-107 93 -107 255q0 52 24 116t77 115q92 89 269 89q55 0 132 -11q64 -10 88 -11q9 0 9 -10q0 -3 -2 -17t-3 -32q0 -13 -0.5 -49.5t-1.5 -42.5q-1 -19 -8 -19q-8 0 -8 19q0 23 -10.5 48t-28.5 39q-24 21 -73 36t-104 15q-128 0 -192 -58
q-46 -42 -63 -94t-17 -125q0 -126 90.5 -219t220.5 -93q111 0 153 41q25 26 33 72q3 15 11 15q5 0 5 -14q0 -7 -7.5 -51.5t-12.5 -59.5q-4 -12 -8 -16t-15 -9q-47 -20 -158 -20zM402 848q3 0 17 -7q3 -2 32 -21.5t54 -37t32 -22.5q11 -8 11 -11q0 -2 -5 -5l-35 -22
q-6 -4 -10 0q-47 41 -98 68q-7 4 -12 4q-4 0 -14 -5q-29 -16 -107 -62q-13 -8 -19 -8q-9 0 -3 7q1 2 5 5q65 49 135 108q13 9 17 9z" />
    <glyph glyph-name="Cdotaccent" unicode="&#x10a;" horiz-adv-x="805" 
d="M515 -17q-210 0 -330 108q-121 109 -121 296q0 63 26 138t86 135q107 107 305 107q80 0 145 -12q14 -3 106 -15q9 -1 9 -11q0 -3 -1 -9.5t-2 -19t-2 -27.5q-1 -18 -2 -57.5t-1 -45.5q-1 -21 -9 -21t-8 21q0 66 -42 102q-28 24 -82.5 40.5t-117.5 16.5q-155 0 -230 -73
q-51 -49 -70.5 -112.5t-19.5 -148.5q0 -148 102.5 -257t258.5 -109q125 0 174 50q28 29 37 84q3 15 10 15t7 -15q0 -8 -7.5 -57t-14.5 -71q-4 -14 -8 -18.5t-18 -10.5q-57 -23 -180 -23zM461 848q-20 0 -31 12.5t-11 28.5t11.5 29.5t30.5 13.5q18 0 30.5 -12t12.5 -30
q0 -17 -12 -29.5t-31 -12.5z" />
    <glyph glyph-name="cdotaccent" unicode="&#x10b;" horiz-adv-x="709" 
d="M455 -14q-187 0 -293 91q-107 93 -107 255q0 52 24 116t77 115q92 89 269 89q55 0 132 -11q64 -10 88 -11q9 0 9 -10q0 -3 -2 -17t-3 -32q0 -13 -0.5 -49.5t-1.5 -42.5q-1 -19 -8 -19q-8 0 -8 19q0 23 -10.5 48t-28.5 39q-24 21 -73 36t-104 15q-128 0 -192 -58
q-46 -42 -63 -94t-17 -125q0 -126 90.5 -219t220.5 -93q111 0 153 41q25 26 33 72q3 15 11 15q5 0 5 -14q0 -7 -7.5 -51.5t-12.5 -59.5q-4 -12 -8 -16t-15 -9q-47 -20 -158 -20zM393 748q-20 0 -31 12.5t-11 28.5t11.5 29.5t30.5 13.5q18 0 30.5 -12t12.5 -30
q0 -17 -12 -29.5t-31 -12.5z" />
    <glyph glyph-name="Ccaron" unicode="&#x10c;" horiz-adv-x="805" 
d="M515 -17q-210 0 -330 108q-121 109 -121 296q0 63 26 138t86 135q107 107 305 107q80 0 145 -12q14 -3 106 -15q9 -1 9 -11q0 -3 -1 -9.5t-2 -19t-2 -27.5q-1 -18 -2 -57.5t-1 -45.5q-1 -21 -9 -21t-8 21q0 66 -42 102q-28 24 -82.5 40.5t-117.5 16.5q-155 0 -230 -73
q-51 -49 -70.5 -112.5t-19.5 -148.5q0 -148 102.5 -257t258.5 -109q125 0 174 50q28 29 37 84q3 15 10 15t7 -15q0 -8 -7.5 -57t-14.5 -71q-4 -14 -8 -18.5t-18 -10.5q-57 -23 -180 -23zM463 826q-6 0 -19 8q-5 3 -35.5 23t-57.5 38t-35 24q-12 9 -12 12t5 6l32 21q6 4 11 0
q58 -49 109 -76q8 -5 12 -5t16 6q46 25 116 68q15 9 21 9q9 0 4 -8l-6 -6q-95 -69 -143 -110q-14 -10 -18 -10z" />
    <glyph glyph-name="ccaron" unicode="&#x10d;" horiz-adv-x="709" 
d="M455 -14q-187 0 -293 91q-107 93 -107 255q0 52 24 116t77 115q92 89 269 89q55 0 132 -11q64 -10 88 -11q9 0 9 -10q0 -3 -2 -17t-3 -32q0 -13 -0.5 -49.5t-1.5 -42.5q-1 -19 -8 -19q-8 0 -8 19q0 23 -10.5 48t-28.5 39q-24 21 -73 36t-104 15q-128 0 -192 -58
q-46 -42 -63 -94t-17 -125q0 -126 90.5 -219t220.5 -93q111 0 153 41q25 26 33 72q3 15 11 15q5 0 5 -14q0 -7 -7.5 -51.5t-12.5 -59.5q-4 -12 -8 -16t-15 -9q-47 -20 -158 -20zM394 713q-3 0 -17 7q-4 3 -32 22t-53 36t-32 22q-11 8 -11 11q0 2 5 5l35 22q6 4 10 0
q48 -42 99 -69q7 -4 12 -4q4 0 14 5q29 16 107 62q11 8 19 8q9 0 3 -7q-1 -2 -5 -5q-85 -62 -137 -106q-13 -9 -17 -9z" />
    <glyph glyph-name="Dcaron" unicode="&#x10e;" horiz-adv-x="917" 
d="M178 287v176q0 184 -2 216q-2 28 -9.5 40t-30.5 17q-12 3 -34 3q-11 0 -11 6q0 8 16 8q20 0 47 -0.5t46 -1.5t20 -1q4 0 25.5 1t52.5 1.5t57 0.5h19q44 0 70 -0.5t75 -6.5t85 -17t78 -34t74 -56q97 -101 97 -254q0 -168 -108 -282q-110 -115 -303 -115q-53 0 -139 6
q-18 1 -38.5 2.5t-31.5 2.5t-13 1q-19 0 -40 -1q-11 0 -31 -1t-27 -1q-16 0 -16 8q0 6 10 6q17 2 28 4q22 4 29 55q5 42 5 217zM262 479v-124q0 -179 2 -217q3 -64 11 -76q27 -40 170 -40q145 0 238 93q38 37 59 102.5t21 136.5q0 151 -96 252q-64 68 -142.5 90.5
t-184.5 22.5q-51 0 -65 -7q-12 -5 -12 -20q-1 -34 -1 -213zM441 814q-6 0 -19 8q-5 3 -35.5 23t-57.5 38t-35 24q-12 9 -12 12t5 6l32 21q6 4 11 0q58 -49 109 -76q8 -5 12 -5t16 6q46 25 116 68q15 9 21 9q9 0 4 -8l-6 -6q-95 -69 -143 -110q-14 -10 -18 -10z" />
    <glyph glyph-name="dcaron" unicode="&#x10f;" horiz-adv-x="810" 
d="M155 246v148q0 157 -2 183q-2 21 -10 32t-29 15q-12 2 -29 2q-10 0 -10 6q0 8 15 8q18 0 44 -1t44 -1l19 -1q2 0 19 0.5t44 1.5t52 1h28h33.5t34 -1t38.5 -2.5t37.5 -5t40.5 -8.5t38 -12.5t39 -17t35 -22.5t34 -29q85 -85 85 -215q0 -142 -95 -239q-98 -98 -267 -98
q-62 0 -125 5q-17 1 -34.5 2t-27 2t-10.5 1q-15 0 -34 -1q-10 0 -30.5 -1t-27.5 -1q-14 0 -14 7t11 7t23 3q20 4 26 46q5 31 5 186zM237 410v-101q0 -40 0.5 -82t0.5 -69.5v-31.5q2 -56 10 -67q25 -38 147 -38q130 0 208 78q65 65 65 199q0 132 -86 215q-58 58 -125 76.5
t-157 18.5q-40 0 -51 -7q-11 -5 -11 -17q-1 -29 -1 -174zM395 713q-3 0 -17 7q-4 3 -32 22t-53 36t-32 22q-11 8 -11 11q0 2 5 5l35 22q6 4 10 0q48 -42 99 -69q7 -4 12 -4q4 0 14 5q29 16 107 62q11 8 19 8q9 0 3 -7q-1 -2 -5 -5q-85 -62 -137 -106q-14 -9 -17 -9z" />
    <glyph glyph-name="Dcroat" unicode="&#x110;" horiz-adv-x="927" 
d="M188 405v58q0 184 -2 216q-2 28 -9.5 40t-30.5 17q-12 3 -34 3q-11 0 -11 6q0 8 16 8q20 0 47 -0.5t46 -1.5t20 -1l50 2q49 1 85 1h19q44 0 70 -0.5t75 -6.5t85 -17t78 -34t74 -56q97 -101 97 -254q0 -168 -108 -282q-110 -115 -303 -115q-53 0 -139 6q-18 1 -38.5 2.5
t-31.5 2.5t-13 1q-19 0 -40 -1q-11 0 -31 -1t-27 -1q-16 0 -16 8q0 6 10 6q17 2 28 4q22 4 29 55q5 42 5 217v81h-100q-6 0 -7.5 1.5t-0.5 6.5q2 13 5 23q2 6 17 6h86zM272 368v-13q0 -179 2 -217q3 -64 11 -76q27 -40 170 -40q145 0 238 93q38 37 59 102.5t21 136.5
q0 151 -96 252q-64 68 -142.5 90.5t-184.5 22.5q-51 0 -65 -7q-12 -5 -12 -20q-1 -34 -1 -213v-74h193q6 0 7.5 -1.5t0.5 -5.5q-3 -16 -7 -25q-2 -5 -15 -5h-179z" />
    <glyph glyph-name="dcroat" unicode="&#x111;" horiz-adv-x="810" 
d="M155 346v48q0 157 -2 183q-2 21 -10 32t-29 15q-12 2 -29 2q-10 0 -10 6q0 8 15 8q18 0 44 -1t44 -1l19 -1q2 0 19 0.5t44 1.5t52 1h28h33.5t34 -1t38.5 -2.5t37.5 -5t40.5 -8.5t38 -12.5t39 -17t35 -22.5t34 -29q85 -85 85 -215q0 -142 -95 -239q-98 -98 -267 -98
q-62 0 -125 5q-17 1 -34.5 2t-27 2t-10.5 1q-15 0 -34 -1q-10 0 -30.5 -1t-27.5 -1q-14 0 -14 7t11 7t23 3q20 4 26 46q5 31 5 186v67h-77q-5 0 -6.5 1t-0.5 6q1 2 2 7t2 8.5t2 5.5q1 5 15 5h63zM237 313v-4q0 -40 0.5 -82t0.5 -69.5v-31.5q2 -56 10 -67q25 -38 147 -38
q130 0 208 78q65 65 65 199q0 132 -86 215q-58 58 -125 76.5t-157 18.5q-40 0 -51 -7q-11 -5 -11 -17q-1 -29 -1 -174v-64h172q9 0 7 -6q-4 -19 -7 -23t-13 -4h-159z" />
    <glyph glyph-name="Emacron" unicode="&#x112;" horiz-adv-x="610" 
d="M178 287v176q0 184 -2 216q-2 27 -10.5 39.5t-32.5 17.5q-3 1 -8 1.5t-11.5 1t-9.5 0.5q-13 2 -13 6q0 8 16 8q50 0 113 -3q206 0 229 1q37 2 46 6q8 4 11 4q4 0 4 -9q0 -2 -3.5 -16.5t-4.5 -30.5l-4 -60q-2 -17 -8 -17q-8 0 -8 13q0 20 -5 33q-10 31 -72 37
q-26 3 -137 3q-6 0 -6 -10v-276q0 -10 6 -10q136 0 159 2q38 3 50 17q8 10 12 10q5 0 5 -8q0 -2 -1.5 -9t-3.5 -20t-3 -27q-2 -18 -3 -42.5t-1 -25.5q-2 -15 -7 -15q-7 0 -7 16t-4 28q-7 28 -52 33t-143 5q-7 0 -7 -7v-88v-51.5v-76.5v-43q2 -33 8.5 -49.5t24.5 -23.5
q22 -9 83 -9q60 0 90 9q23 7 34 23.5t17 50.5q3 15 9 15t6 -15q0 -7 -5 -45t-8 -52q-5 -19 -14 -22.5t-40 -3.5q-29 0 -146 3q-120 3 -125 3q-10 0 -35 -2t-39 -1q-16 0 -16 8q0 4 11 6q19 2 23 3q18 4 26.5 23t9.5 71q2 78 2 179zM194 891h265q12 0 8 -10l-8 -27
q-1 -6 -9 -6h-265q-6 0 -8.5 1.5t-1.5 5.5l8 30q1 6 11 6z" />
    <glyph glyph-name="emacron" unicode="&#x113;" horiz-adv-x="542" 
d="M155 244v150q0 155 -2 182q-2 22 -9.5 33t-28.5 15q-12 2 -24 2q-13 0 -13 6q0 8 15 8q9 0 41 -1t62 -2q183 0 203 1q30 1 39 5q9 3 11 3q4 0 4 -7q0 -2 -3.5 -16.5t-4.5 -28.5q-3 -43 -3 -52q0 -15 -7 -15t-7 11q-1 19 -7 32q-5 16 -17 22t-48 8q-26 2 -114 2
q-5 0 -5 -8v-227q0 -10 6 -10q103 0 135 3q36 2 46 15q5 8 11 8q4 0 4 -6q0 -2 -1 -9t-3 -19.5t-3 -24.5q-2 -17 -3 -38.5t-1 -22.5q-1 -11 -7 -11t-6 13q0 12 -3 24q-8 27 -48 30q-46 4 -120 4q-7 0 -7 -7v-73v-43v-59.5v-33.5q2 -30 7.5 -44.5t20.5 -20.5q19 -9 73 -9
q55 0 76 6t29.5 20.5t15.5 45.5q3 14 9 14t6 -15q0 -25 -11 -87q-3 -15 -11 -18.5t-33 -3.5q-37 0 -76 1t-53 1q-105 3 -118 3q-11 0 -32.5 -1.5t-33.5 -1.5q-14 0 -14 7t9 7t20 3q15 3 23 19.5t9 59.5q2 68 2 151zM151 776h265q12 0 8 -11l-8 -24q-2 -6 -9 -6h-265
q-6 0 -8.5 1.5t-1.5 5.5l8 28q1 6 11 6z" />
    <glyph glyph-name="Ebreve" unicode="&#x114;" horiz-adv-x="610" 
d="M178 287v176q0 184 -2 216q-2 27 -10.5 39.5t-32.5 17.5q-3 1 -8 1.5t-11.5 1t-9.5 0.5q-13 2 -13 6q0 8 16 8q50 0 113 -3q206 0 229 1q37 2 46 6q8 4 11 4q4 0 4 -9q0 -2 -3.5 -16.5t-4.5 -30.5l-4 -60q-2 -17 -8 -17q-8 0 -8 13q0 20 -5 33q-10 31 -72 37
q-26 3 -137 3q-6 0 -6 -10v-276q0 -10 6 -10q136 0 159 2q38 3 50 17q8 10 12 10q5 0 5 -8q0 -2 -1.5 -9t-3.5 -20t-3 -27q-2 -18 -3 -42.5t-1 -25.5q-2 -15 -7 -15q-7 0 -7 16t-4 28q-7 28 -52 33t-143 5q-7 0 -7 -7v-88v-51.5v-76.5v-43q2 -33 8.5 -49.5t24.5 -23.5
q22 -9 83 -9q60 0 90 9q23 7 34 23.5t17 50.5q3 15 9 15t6 -15q0 -7 -5 -45t-8 -52q-5 -19 -14 -22.5t-40 -3.5q-29 0 -146 3q-120 3 -125 3q-10 0 -35 -2t-39 -1q-16 0 -16 8q0 4 11 6q19 2 23 3q18 4 26.5 23t9.5 71q2 78 2 179zM162 906q0 5 6 10q22 25 31 25q3 0 6 -5
q14 -26 49.5 -46.5t85.5 -20.5q88 0 142 60q10 11 15 11q8 -2 -6 -23q-31 -40 -77.5 -63.5t-96.5 -23.5q-76 0 -125 36q-30 22 -30 40z" />
    <glyph glyph-name="ebreve" unicode="&#x115;" horiz-adv-x="542" 
d="M155 244v150q0 155 -2 182q-2 22 -9.5 33t-28.5 15q-12 2 -24 2q-13 0 -13 6q0 8 15 8q9 0 41 -1t62 -2q183 0 203 1q30 1 39 5q9 3 11 3q4 0 4 -7q0 -2 -3.5 -16.5t-4.5 -28.5q-3 -43 -3 -52q0 -15 -7 -15t-7 11q-1 19 -7 32q-5 16 -17 22t-48 8q-26 2 -114 2
q-5 0 -5 -8v-227q0 -10 6 -10q103 0 135 3q36 2 46 15q5 8 11 8q4 0 4 -6q0 -2 -1 -9t-3 -19.5t-3 -24.5q-2 -17 -3 -38.5t-1 -22.5q-1 -11 -7 -11t-6 13q0 12 -3 24q-8 27 -48 30q-46 4 -120 4q-7 0 -7 -7v-73v-43v-59.5v-33.5q2 -30 7.5 -44.5t20.5 -20.5q19 -9 73 -9
q55 0 76 6t29.5 20.5t15.5 45.5q3 14 9 14t6 -15q0 -25 -11 -87q-3 -15 -11 -18.5t-33 -3.5q-37 0 -76 1t-53 1q-105 3 -118 3q-11 0 -32.5 -1.5t-33.5 -1.5q-14 0 -14 7t9 7t20 3q15 3 23 19.5t9 59.5q2 68 2 151zM138 791q0 5 5 11q19 22 29 22q4 0 5 -5
q13 -23 46.5 -41.5t79.5 -18.5q83 0 131 54q9 10 14 10q7 0 -3 -16q-1 -3 -3 -5q-64 -83 -161 -83q-69 0 -119 36q-24 18 -24 36z" />
    <glyph glyph-name="Edotaccent" unicode="&#x116;" horiz-adv-x="610" 
d="M178 287v176q0 184 -2 216q-2 27 -10.5 39.5t-32.5 17.5q-3 1 -8 1.5t-11.5 1t-9.5 0.5q-13 2 -13 6q0 8 16 8q50 0 113 -3q206 0 229 1q37 2 46 6q8 4 11 4q4 0 4 -9q0 -2 -3.5 -16.5t-4.5 -30.5l-4 -60q-2 -17 -8 -17q-8 0 -8 13q0 20 -5 33q-10 31 -72 37
q-26 3 -137 3q-6 0 -6 -10v-276q0 -10 6 -10q136 0 159 2q38 3 50 17q8 10 12 10q5 0 5 -8q0 -2 -1.5 -9t-3.5 -20t-3 -27q-2 -18 -3 -42.5t-1 -25.5q-2 -15 -7 -15q-7 0 -7 16t-4 28q-7 28 -52 33t-143 5q-7 0 -7 -7v-88v-51.5v-76.5v-43q2 -33 8.5 -49.5t24.5 -23.5
q22 -9 83 -9q60 0 90 9q23 7 34 23.5t17 50.5q3 15 9 15t6 -15q0 -7 -5 -45t-8 -52q-5 -19 -14 -22.5t-40 -3.5q-29 0 -146 3q-120 3 -125 3q-10 0 -35 -2t-39 -1q-16 0 -16 8q0 4 11 6q19 2 23 3q18 4 26.5 23t9.5 71q2 78 2 179zM326 838q-20 0 -31 12.5t-11 28.5
t11.5 29.5t30.5 13.5q18 0 30.5 -12t12.5 -30q0 -17 -12 -29.5t-31 -12.5z" />
    <glyph glyph-name="edotaccent" unicode="&#x117;" horiz-adv-x="542" 
d="M155 244v150q0 155 -2 182q-2 22 -9.5 33t-28.5 15q-12 2 -24 2q-13 0 -13 6q0 8 15 8q9 0 41 -1t62 -2q183 0 203 1q30 1 39 5q9 3 11 3q4 0 4 -7q0 -2 -3.5 -16.5t-4.5 -28.5q-3 -43 -3 -52q0 -15 -7 -15t-7 11q-1 19 -7 32q-5 16 -17 22t-48 8q-26 2 -114 2
q-5 0 -5 -8v-227q0 -10 6 -10q103 0 135 3q36 2 46 15q5 8 11 8q4 0 4 -6q0 -2 -1 -9t-3 -19.5t-3 -24.5q-2 -17 -3 -38.5t-1 -22.5q-1 -11 -7 -11t-6 13q0 12 -3 24q-8 27 -48 30q-46 4 -120 4q-7 0 -7 -7v-73v-43v-59.5v-33.5q2 -30 7.5 -44.5t20.5 -20.5q19 -9 73 -9
q55 0 76 6t29.5 20.5t15.5 45.5q3 14 9 14t6 -15q0 -25 -11 -87q-3 -15 -11 -18.5t-33 -3.5q-37 0 -76 1t-53 1q-105 3 -118 3q-11 0 -32.5 -1.5t-33.5 -1.5q-14 0 -14 7t9 7t20 3q15 3 23 19.5t9 59.5q2 68 2 151zM290 738q-20 0 -31 12.5t-11 28.5t11.5 29.5t30.5 13.5
q18 0 30.5 -12t12.5 -30q0 -17 -12 -29.5t-31 -12.5z" />
    <glyph glyph-name="Eogonek" unicode="&#x118;" horiz-adv-x="610" 
d="M262 375v-88v-51.5v-76.5v-43q2 -33 8.5 -49.5t24.5 -23.5q22 -9 83 -9q60 0 90 9q23 7 34 23.5t17 50.5q3 15 9 15t6 -15q0 -7 -5 -45t-8 -52q-5 -18 -13 -22t-35 -4q-75 -50 -75 -110q0 -26 15 -39.5t39 -13.5q27 0 46 11q14 8 14 0q0 -5 -7 -13q-33 -38 -94 -38
q-37 0 -58.5 20.5t-21.5 51.5q0 35 34 70.5t83 60.5q-22 0 -127 3q-120 3 -125 3q-10 0 -35 -2t-39 -1q-16 0 -16 8q0 4 11 6q19 2 23 3q18 4 26.5 23t9.5 71q2 78 2 179v176q0 184 -2 216q-2 27 -10.5 39.5t-32.5 17.5q-3 1 -8 1.5t-11.5 1t-9.5 0.5q-13 2 -13 6q0 8 16 8
q50 0 113 -3q206 0 229 1q37 2 46 6q8 4 11 4q4 0 4 -9q0 -2 -3.5 -16.5t-4.5 -30.5l-4 -60q-2 -17 -8 -17q-8 0 -8 13q0 20 -5 33q-10 31 -72 37q-26 3 -137 3q-6 0 -6 -10v-276q0 -10 6 -10q136 0 159 2q38 3 50 17q8 10 12 10q5 0 5 -8q0 -2 -1.5 -9t-3.5 -20t-3 -27
q-2 -18 -3 -42.5t-1 -25.5q-2 -15 -7 -15q-7 0 -7 16t-4 28q-7 28 -52 33t-143 5q-7 0 -7 -7z" />
    <glyph glyph-name="eogonek" unicode="&#x119;" horiz-adv-x="542" 
d="M237 316v-73v-43v-59.5v-33.5q2 -30 7.5 -44.5t20.5 -20.5q19 -9 73 -9q55 0 76 6t29.5 20.5t15.5 45.5q3 14 9 14t6 -15q0 -25 -11 -87q-3 -14 -10.5 -18t-30.5 -4q-74 -48 -74 -111q0 -53 51 -53q27 0 46 11q14 8 14 0q0 -5 -7 -13q-33 -38 -94 -38q-37 0 -58.5 20.5
t-21.5 51.5q0 35 35 71t84 61q-28 0 -61 1t-46 1q-105 3 -118 3q-11 0 -32.5 -1.5t-33.5 -1.5q-14 0 -14 7t9 7t20 3q15 3 23 19.5t9 59.5q2 68 2 151v150q0 155 -2 182q-2 22 -9.5 33t-28.5 15q-12 2 -24 2q-13 0 -13 6q0 8 15 8q9 0 41 -1t62 -2q183 0 203 1q30 1 39 5
q9 3 11 3q4 0 4 -7q0 -2 -3.5 -16.5t-4.5 -28.5q-3 -43 -3 -52q0 -15 -7 -15t-7 11q-1 19 -7 32q-5 16 -17 22t-48 8q-26 2 -114 2q-5 0 -5 -8v-227q0 -10 6 -10q103 0 135 3q36 2 46 15q5 8 11 8q4 0 4 -6q0 -2 -1 -9t-3 -19.5t-3 -24.5q-2 -17 -3 -38.5t-1 -22.5
q-1 -11 -7 -11t-6 13q0 12 -3 24q-8 27 -48 30q-46 4 -120 4q-7 0 -7 -7z" />
    <glyph glyph-name="Ecaron" unicode="&#x11a;" horiz-adv-x="610" 
d="M178 287v176q0 184 -2 216q-2 27 -10.5 39.5t-32.5 17.5q-3 1 -8 1.5t-11.5 1t-9.5 0.5q-13 2 -13 6q0 8 16 8q50 0 113 -3q206 0 229 1q37 2 46 6q8 4 11 4q4 0 4 -9q0 -2 -3.5 -16.5t-4.5 -30.5l-4 -60q-2 -17 -8 -17q-8 0 -8 13q0 20 -5 33q-10 31 -72 37
q-26 3 -137 3q-6 0 -6 -10v-276q0 -10 6 -10q136 0 159 2q38 3 50 17q8 10 12 10q5 0 5 -8q0 -2 -1.5 -9t-3.5 -20t-3 -27q-2 -18 -3 -42.5t-1 -25.5q-2 -15 -7 -15q-7 0 -7 16t-4 28q-7 28 -52 33t-143 5q-7 0 -7 -7v-88v-51.5v-76.5v-43q2 -33 8.5 -49.5t24.5 -23.5
q22 -9 83 -9q60 0 90 9q23 7 34 23.5t17 50.5q3 15 9 15t6 -15q0 -7 -5 -45t-8 -52q-5 -19 -14 -22.5t-40 -3.5q-29 0 -146 3q-120 3 -125 3q-10 0 -35 -2t-39 -1q-16 0 -16 8q0 4 11 6q19 2 23 3q18 4 26.5 23t9.5 71q2 78 2 179zM325 813q-6 0 -19 8q-5 3 -35.5 23
t-57.5 38t-35 24q-12 9 -12 12t5 6l32 21q6 4 11 0q58 -49 109 -76q8 -5 12 -5t16 6q46 25 116 68q15 9 21 9q9 0 4 -8q-2 -3 -6 -6q-95 -69 -143 -110q-14 -10 -18 -10z" />
    <glyph glyph-name="ecaron" unicode="&#x11b;" horiz-adv-x="542" 
d="M155 244v150q0 155 -2 182q-2 22 -9.5 33t-28.5 15q-12 2 -24 2q-13 0 -13 6q0 8 15 8q9 0 41 -1t62 -2q183 0 203 1q30 1 39 5q9 3 11 3q4 0 4 -7q0 -2 -3.5 -16.5t-4.5 -28.5q-3 -43 -3 -52q0 -15 -7 -15t-7 11q-1 19 -7 32q-5 16 -17 22t-48 8q-26 2 -114 2
q-5 0 -5 -8v-227q0 -10 6 -10q103 0 135 3q36 2 46 15q5 8 11 8q4 0 4 -6q0 -2 -1 -9t-3 -19.5t-3 -24.5q-2 -17 -3 -38.5t-1 -22.5q-1 -11 -7 -11t-6 13q0 12 -3 24q-8 27 -48 30q-46 4 -120 4q-7 0 -7 -7v-73v-43v-59.5v-33.5q2 -30 7.5 -44.5t20.5 -20.5q19 -9 73 -9
q55 0 76 6t29.5 20.5t15.5 45.5q3 14 9 14t6 -15q0 -25 -11 -87q-3 -15 -11 -18.5t-33 -3.5q-37 0 -76 1t-53 1q-105 3 -118 3q-11 0 -32.5 -1.5t-33.5 -1.5q-14 0 -14 7t9 7t20 3q15 3 23 19.5t9 59.5q2 68 2 151zM287 713q-3 0 -17 7q-4 3 -32 22t-53 36t-32 22
q-11 8 -11 11q0 2 5 5l35 22q6 4 10 0q48 -42 99 -69q7 -4 12 -4q4 0 14 5q29 16 107 62q11 8 19 8q9 0 3 -7q-1 -2 -5 -5q-85 -62 -137 -106q-14 -9 -17 -9z" />
    <glyph glyph-name="Gcircumflex" unicode="&#x11c;" horiz-adv-x="862" 
d="M737 194v-112q0 -33 -2 -41t-11 -13q-85 -45 -212 -45q-207 0 -329 107q-50 43 -84.5 120t-34.5 165q0 113 47 198t120 131q101 63 266 63q72 0 153 -17q34 -8 81 -10q12 -1 12 -9q0 -3 -1.5 -18.5t-3.5 -47.5t-2 -76q0 -21 -9 -21q-5 0 -7 15q-3 37 -21 66
q-21 32 -83 56.5t-152 24.5q-130 0 -214 -66q-45 -36 -72 -102.5t-27 -151.5q0 -93 34.5 -167t71.5 -110q110 -107 262 -107q78 0 114 21q20 11 20 35v170q0 61 -7.5 78t-37.5 25q-12 3 -34 3q-8 0 -8 6q0 8 16 8q20 0 47 -1t46 -1.5t20 -0.5t19.5 0.5t42 1.5t36.5 1
q16 0 16 -8q0 -6 -8 -6q-7 0 -25 -3q-20 -4 -27.5 -17t-9.5 -40q-2 -32 -2 -104zM457 964q6 0 19 -8q111 -74 129 -87q12 -9 12 -12t-5 -6l-34 -19q-6 -4 -12 0q-55 44 -106 71q-8 5 -11 5l-16 -7q-70 -35 -119 -63q-16 -9 -21 -9q-8 0 -4 9q2 3 7 7q120 89 143 109
q14 10 18 10z" />
    <glyph glyph-name="gcircumflex" unicode="&#x11d;" horiz-adv-x="761" 
d="M652 161v-90q0 -29 -2 -35.5t-10 -11.5q-75 -38 -184 -38q-185 0 -293 90q-46 38 -77 101t-31 142q0 97 42.5 169.5t108.5 112.5q87 51 223 51q59 0 143 -14q38 -7 76 -9q8 0 8 -8q0 -3 -2 -17.5t-3.5 -44t-1.5 -68.5q0 -18 -8 -18q-5 0 -7 12q0 34 -19 62t-74 49
t-133 21q-35 0 -58 -2t-59 -14.5t-67 -36.5q-39 -30 -61.5 -85.5t-22.5 -128.5q0 -78 30.5 -140.5t60.5 -91.5q96 -93 227 -93q62 0 95 17q17 10 17 30v144q0 50 -7 65t-33 19q-12 2 -24 2t-12 7t15 7q18 0 42.5 -0.5t41.5 -1t18 -0.5t18 0.5t38.5 1t33.5 0.5q14 0 14 -7
t-12 -7q-9 0 -17 -1q-17 -2 -23.5 -14t-8.5 -36q-2 -29 -2 -90zM398 848q3 0 17 -7q3 -2 32 -21.5t54 -37t32 -22.5q11 -8 11 -11q0 -2 -5 -5l-35 -22q-6 -4 -10 0q-47 41 -98 68q-7 4 -12 4q-4 0 -14 -5q-29 -16 -107 -62q-13 -8 -19 -8q-9 0 -3 7q1 2 5 5q65 49 135 108
q13 9 17 9z" />
    <glyph glyph-name="Gbreve" unicode="&#x11e;" horiz-adv-x="862" 
d="M737 194v-112q0 -33 -2 -41t-11 -13q-85 -45 -212 -45q-207 0 -329 107q-50 43 -84.5 120t-34.5 165q0 113 47 198t120 131q101 63 266 63q72 0 153 -17q34 -8 81 -10q12 -1 12 -9q0 -3 -1.5 -18.5t-3.5 -47.5t-2 -76q0 -21 -9 -21q-5 0 -7 15q-3 37 -21 66
q-21 32 -83 56.5t-152 24.5q-130 0 -214 -66q-45 -36 -72 -102.5t-27 -151.5q0 -93 34.5 -167t71.5 -110q110 -107 262 -107q78 0 114 21q20 11 20 35v170q0 61 -7.5 78t-37.5 25q-12 3 -34 3q-8 0 -8 6q0 8 16 8q20 0 47 -1t46 -1.5t20 -0.5t19.5 0.5t42 1.5t36.5 1
q16 0 16 -8q0 -6 -8 -6q-7 0 -25 -3q-20 -4 -27.5 -17t-9.5 -40q-2 -32 -2 -104zM292 926q0 5 6 10q22 25 31 25q3 0 6 -5q14 -26 49.5 -46.5t85.5 -20.5q88 0 142 60q10 11 15 11q8 -2 -6 -23q-31 -40 -77.5 -63.5t-96.5 -23.5q-76 0 -125 36q-30 22 -30 40z" />
    <glyph glyph-name="gbreve" unicode="&#x11f;" horiz-adv-x="761" 
d="M652 161v-90q0 -29 -2 -35.5t-10 -11.5q-75 -38 -184 -38q-185 0 -293 90q-46 38 -77 101t-31 142q0 97 42.5 169.5t108.5 112.5q87 51 223 51q59 0 143 -14q38 -7 76 -9q8 0 8 -8q0 -3 -2 -17.5t-3.5 -44t-1.5 -68.5q0 -18 -8 -18q-5 0 -7 12q0 34 -19 62t-74 49
t-133 21q-35 0 -58 -2t-59 -14.5t-67 -36.5q-39 -30 -61.5 -85.5t-22.5 -128.5q0 -78 30.5 -140.5t60.5 -91.5q96 -93 227 -93q62 0 95 17q17 10 17 30v144q0 50 -7 65t-33 19q-12 2 -24 2t-12 7t15 7q18 0 42.5 -0.5t41.5 -1t18 -0.5t18 0.5t38.5 1t33.5 0.5q14 0 14 -7
t-12 -7q-9 0 -17 -1q-17 -2 -23.5 -14t-8.5 -36q-2 -29 -2 -90zM234 803q0 5 5 11q19 22 29 22q4 0 5 -5q13 -23 46.5 -41.5t79.5 -18.5q83 0 131 54q9 10 14 10q7 0 -3 -16q-1 -3 -3 -5q-64 -83 -161 -83q-69 0 -119 36q-24 18 -24 36z" />
    <glyph glyph-name="Gdotaccent" unicode="&#x120;" horiz-adv-x="862" 
d="M737 194v-112q0 -33 -2 -41t-11 -13q-85 -45 -212 -45q-207 0 -329 107q-50 43 -84.5 120t-34.5 165q0 113 47 198t120 131q101 63 266 63q72 0 153 -17q34 -8 81 -10q12 -1 12 -9q0 -3 -1.5 -18.5t-3.5 -47.5t-2 -76q0 -21 -9 -21q-5 0 -7 15q-3 37 -21 66
q-21 32 -83 56.5t-152 24.5q-130 0 -214 -66q-45 -36 -72 -102.5t-27 -151.5q0 -93 34.5 -167t71.5 -110q110 -107 262 -107q78 0 114 21q20 11 20 35v170q0 61 -7.5 78t-37.5 25q-12 3 -34 3q-8 0 -8 6q0 8 16 8q20 0 47 -1t46 -1.5t20 -0.5t19.5 0.5t42 1.5t36.5 1
q16 0 16 -8q0 -6 -8 -6q-7 0 -25 -3q-20 -4 -27.5 -17t-9.5 -40q-2 -32 -2 -104zM459 838q-20 0 -31 12.5t-11 28.5t11.5 29.5t30.5 13.5q18 0 30.5 -12t12.5 -30q0 -17 -12 -29.5t-31 -12.5z" />
    <glyph glyph-name="gdotaccent" unicode="&#x121;" horiz-adv-x="761" 
d="M652 161v-90q0 -29 -2 -35.5t-10 -11.5q-75 -38 -184 -38q-185 0 -293 90q-46 38 -77 101t-31 142q0 97 42.5 169.5t108.5 112.5q87 51 223 51q59 0 143 -14q38 -7 76 -9q8 0 8 -8q0 -3 -2 -17.5t-3.5 -44t-1.5 -68.5q0 -18 -8 -18q-5 0 -7 12q0 34 -19 62t-74 49
t-133 21q-35 0 -58 -2t-59 -14.5t-67 -36.5q-39 -30 -61.5 -85.5t-22.5 -128.5q0 -78 30.5 -140.5t60.5 -91.5q96 -93 227 -93q62 0 95 17q17 10 17 30v144q0 50 -7 65t-33 19q-12 2 -24 2t-12 7t15 7q18 0 42.5 -0.5t41.5 -1t18 -0.5t18 0.5t38.5 1t33.5 0.5q14 0 14 -7
t-12 -7q-9 0 -17 -1q-17 -2 -23.5 -14t-8.5 -36q-2 -29 -2 -90zM399 748q-20 0 -31 12.5t-11 28.5t11.5 29.5t30.5 13.5q18 0 30.5 -12t12.5 -30q0 -17 -12 -29.5t-31 -12.5z" />
    <glyph glyph-name="uni0122" unicode="&#x122;" horiz-adv-x="862" 
d="M737 194v-112q0 -33 -2 -41t-11 -13q-85 -45 -212 -45q-207 0 -329 107q-50 43 -84.5 120t-34.5 165q0 113 47 198t120 131q101 63 266 63q72 0 153 -17q34 -8 81 -10q12 -1 12 -9q0 -3 -1.5 -18.5t-3.5 -47.5t-2 -76q0 -21 -9 -21q-5 0 -7 15q-3 37 -21 66
q-21 32 -83 56.5t-152 24.5q-130 0 -214 -66q-45 -36 -72 -102.5t-27 -151.5q0 -93 34.5 -167t71.5 -110q110 -107 262 -107q78 0 114 21q20 11 20 35v170q0 61 -7.5 78t-37.5 25q-12 3 -34 3q-8 0 -8 6q0 8 16 8q20 0 47 -1t46 -1.5t20 -0.5t19.5 0.5t42 1.5t36.5 1
q16 0 16 -8q0 -6 -8 -6q-7 0 -25 -3q-20 -4 -27.5 -17t-9.5 -40q-2 -32 -2 -104zM417 -112q0 9 23 28.5t44 19.5q11 0 21.5 -17.5t10.5 -42.5q0 -29 -19 -64.5t-59 -65.5q-27 -21 -27 -7q0 5 7 12q41 40 41 78q0 26 -38 51q-4 3 -4 8z" />
    <glyph glyph-name="uni0123" unicode="&#x123;" horiz-adv-x="761" 
d="M652 161v-90q0 -29 -2 -35.5t-10 -11.5q-75 -38 -184 -38q-185 0 -293 90q-46 38 -77 101t-31 142q0 97 42.5 169.5t108.5 112.5q87 51 223 51q59 0 143 -14q38 -7 76 -9q8 0 8 -8q0 -3 -2 -17.5t-3.5 -44t-1.5 -68.5q0 -18 -8 -18q-5 0 -7 12q0 34 -19 62t-74 49
t-133 21q-35 0 -58 -2t-59 -14.5t-67 -36.5q-39 -30 -61.5 -85.5t-22.5 -128.5q0 -78 30.5 -140.5t60.5 -91.5q96 -93 227 -93q62 0 95 17q17 10 17 30v144q0 50 -7 65t-33 19q-12 2 -24 2t-12 7t15 7q18 0 42.5 -0.5t41.5 -1t18 -0.5t18 0.5t38.5 1t33.5 0.5q14 0 14 -7
t-12 -7q-9 0 -17 -1q-17 -2 -23.5 -14t-8.5 -36q-2 -29 -2 -90zM390 -117q0 9 23 28.5t44 19.5q11 0 21.5 -17.5t10.5 -42.5q0 -29 -19 -64.5t-59 -65.5q-27 -21 -27 -7q0 5 7 12q41 40 41 78q0 26 -38 51q-4 3 -4 8z" />
    <glyph glyph-name="Hcircumflex" unicode="&#x124;" horiz-adv-x="958" 
d="M268 436h424q6 0 6 6v21q0 184 -2 216q-2 27 -10.5 39.5t-32.5 17.5q-12 3 -34 3q-8 0 -8 6q0 8 16 8q20 0 47 -0.5t46 -1.5t20 -1t19.5 1t42 1.5t36.5 0.5q16 0 16 -8q0 -6 -8 -6q-7 0 -25 -3q-20 -4 -27.5 -17t-9.5 -40q-2 -32 -2 -216v-176q0 -175 5 -217
q3 -25 10.5 -38.5t28.5 -16.5q28 -4 45 -4q8 0 8 -6q0 -8 -16 -8q-24 0 -53.5 0.5t-49 1.5t-20.5 1t-19.5 -0.5t-42 -1.5t-36.5 -1q-16 0 -16 8q0 6 8 6q12 0 30 4q22 4 29 55q5 42 5 217v105q0 6 -6 6h-424q-6 0 -6 -6v-105q0 -175 5 -217q3 -25 10.5 -38.5t28.5 -16.5
q28 -4 45 -4q8 0 8 -6q0 -8 -16 -8q-24 0 -53.5 0.5t-49 1.5t-20.5 1t-19.5 -0.5t-42 -1.5t-36.5 -1q-16 0 -16 8q0 6 8 6q12 0 30 4q22 4 29 55q5 42 5 217v176q0 184 -2 216q-2 27 -10.5 39.5t-32.5 17.5q-12 3 -34 3q-8 0 -8 6q0 8 16 8q20 0 47 -0.5t46 -1.5t20 -1
t19.5 1t42 1.5t36.5 0.5q16 0 16 -8q0 -6 -8 -6q-7 0 -25 -3q-20 -4 -27.5 -17t-9.5 -40q-2 -32 -2 -216v-21q0 -6 6 -6zM486 961q6 0 19 -8q111 -74 129 -87q12 -9 12 -12t-5 -6l-34 -19q-6 -4 -12 0q-55 44 -106 71q-8 5 -11 5l-16 -7q-70 -35 -119 -63q-16 -9 -21 -9
q-8 0 -4 9q2 3 7 7q120 89 143 109q14 10 18 10z" />
    <glyph glyph-name="hcircumflex" unicode="&#x125;" horiz-adv-x="846" 
d="M243 372h362q6 0 6 5v18q0 155 -2 182q-2 23 -9 33t-30 14q-14 2 -25 2q-12 0 -12 7t14 7q19 0 44 -1t42.5 -1.5t18.5 -0.5t17.5 0.5t38 1.5t34.5 1q16 0 16 -7t-11 -7q-8 0 -20 -2q-19 -3 -25 -13.5t-8 -34.5q-1 -27 -1 -182v-150q0 -147 4 -183q5 -44 34 -47
q19 -3 35 -3q13 0 13 -7t-15 -7q-22 0 -49 0.5t-45 1.5t-19 1t-18 -0.5t-38 -1.5t-33 -1q-15 0 -15 8q0 6 11 6q15 0 23 2q19 3 25 48q5 36 5 180v89q0 6 -6 6h-363q-5 0 -5 -6v-89q0 -146 5 -182q6 -42 34 -45q20 -3 36 -3q12 0 12 -7t-13 -7q-23 0 -50 0.5t-45.5 1.5
t-19.5 1t-18 -0.5t-39 -1.5t-33 -1q-16 0 -16 7t11 7q12 0 24 3q19 4 25 45q5 30 5 185v148q0 158 -2 185q-3 44 -38 48q-18 2 -27 2q-11 0 -11 6q0 7 15 7q25 0 63 -1.5t41 -1.5q1 0 18 0.5t38.5 1.5t33.5 1q15 0 15 -7q0 -6 -10 -6q-9 0 -20 -2q-18 -3 -24.5 -14.5
t-8.5 -34.5q-1 -27 -1 -181v-18q0 -5 6 -5zM433 848q3 0 17 -7q3 -2 32 -21.5t54 -37t32 -22.5q11 -8 11 -11q0 -2 -5 -5l-35 -22q-6 -4 -10 0q-47 41 -98 68q-7 4 -12 4q-4 0 -14 -5q-29 -16 -107 -62q-13 -8 -19 -8q-9 0 -3 7q1 2 5 5q65 49 135 108q13 9 17 9z" />
    <glyph glyph-name="Hbar" unicode="&#x126;" horiz-adv-x="960" 
d="M782 463v-176q0 -175 5 -217q3 -25 10.5 -38.5t28.5 -16.5q28 -4 45 -4q8 0 8 -6q0 -8 -16 -8q-24 0 -53.5 0.5t-49 1.5t-20.5 1t-19.5 -0.5t-42 -1.5t-36.5 -1q-16 0 -16 8q0 6 8 6q12 0 30 4q22 4 29 55q5 42 5 217v85q0 6 -6 6h-424q-6 0 -6 -6v-85q0 -175 5 -217
q3 -25 10.5 -38.5t28.5 -16.5q28 -4 45 -4q8 0 8 -6q0 -8 -16 -8q-24 0 -53.5 0.5t-49 1.5t-20.5 1t-19.5 -0.5t-42 -1.5t-36.5 -1q-16 0 -16 8q0 6 8 6q12 0 30 4q22 4 29 55q5 42 5 217v176v80h-63q-30 0 -31 4q-1 3 2 13.5t5 12.5q3 3 29 3h58q0 59 -2 103
q-2 27 -10.5 39.5t-32.5 17.5q-12 3 -34 3q-8 0 -8 6q0 8 16 8q20 0 47 -0.5t46 -1.5t20 -1t19.5 1t42 1.5t36.5 0.5q16 0 16 -8q0 -6 -8 -6q-7 0 -25 -3q-20 -4 -27.5 -17t-9.5 -40q-2 -44 -2 -103h436q0 59 -2 103q-2 27 -10.5 39.5t-32.5 17.5q-12 3 -34 3q-8 0 -8 6
q0 8 16 8q20 0 47 -0.5t46 -1.5t20 -1t19.5 1t42 1.5t36.5 0.5q16 0 16 -8q0 -6 -8 -6q-7 0 -25 -3q-20 -4 -27.5 -17t-9.5 -40q-2 -44 -2 -103h68q28 0 29 -3q4 -11 -5 -27q-2 -3 -16 -3h-76v-80zM698 422v41v80h-436v-80v-41q0 -6 6 -6h424q6 0 6 6z" />
    <glyph glyph-name="hbar" unicode="&#x127;" horiz-adv-x="846" 
d="M243 372h362q6 0 6 5v18q0 155 -2 182q-2 23 -9 33t-30 14q-14 2 -25 2q-12 0 -12 7t14 7q19 0 44 -1t42.5 -1.5t18.5 -0.5t17.5 0.5t38 1.5t34.5 1q16 0 16 -7t-11 -7q-8 0 -20 -2q-19 -3 -25 -13.5t-8 -34.5q-1 -27 -1 -182v-150q0 -147 4 -183q5 -44 34 -47
q19 -3 35 -3q13 0 13 -7t-15 -7q-22 0 -49 0.5t-45 1.5t-19 1t-18 -0.5t-38 -1.5t-33 -1q-15 0 -15 8q0 6 11 6q15 0 23 2q19 3 25 48q5 36 5 180v89q0 6 -6 6h-363q-5 0 -5 -6v-89q0 -146 5 -182q6 -42 34 -45q20 -3 36 -3q12 0 12 -7t-13 -7q-23 0 -50 0.5t-45.5 1.5
t-19.5 1t-18 -0.5t-39 -1.5t-33 -1q-16 0 -16 7t11 7q12 0 24 3q19 4 25 45q5 30 5 185v148q0 158 -2 185q-3 44 -38 48q-18 2 -27 2q-11 0 -11 6q0 7 15 7q25 0 63 -1.5t41 -1.5q1 0 18 0.5t38.5 1.5t33.5 1q15 0 15 -7q0 -6 -10 -6q-9 0 -20 -2q-18 -3 -24.5 -14.5
t-8.5 -34.5q-1 -27 -1 -181v-18q0 -5 6 -5zM295 778h265q12 0 8 -11l-8 -24q-2 -6 -9 -6h-265q-6 0 -8.5 1.5t-1.5 5.5l8 28q1 6 11 6z" />
    <glyph glyph-name="Itilde" unicode="&#x128;" horiz-adv-x="440" 
d="M178 287v176q0 184 -2 216q-3 49 -34 56q-15 4 -31 4q-8 0 -8 6q0 8 16 8q15 0 39 -0.5t42.5 -1.5t19.5 -1t19.5 1t42 1.5t36.5 0.5q16 0 16 -8q0 -6 -8 -6q-7 0 -25 -3q-20 -4 -27.5 -17t-9.5 -40q-2 -32 -2 -216v-176q0 -175 5 -217q3 -25 10.5 -38.5t28.5 -16.5
q28 -4 41 -4q12 0 12 -6q0 -8 -15 -8q-24 0 -54 0.5t-49.5 1.5t-20.5 1t-19.5 -0.5t-42 -1.5t-36.5 -1q-16 0 -16 8q0 6 11 6q13 0 26 3q23 5 30 56q5 42 5 217zM290 827q-21 0 -79.5 22.5t-81.5 22.5q-40 0 -65 -31q-9 -10 -15 -10q-2 0 -2.5 1.5t0 5t3.5 8.5q45 73 98 73
q28 0 91 -25q46 -18 68 -18q24 0 39.5 7.5t34.5 28.5q7 9 12 9q10 0 1 -15q-51 -79 -104 -79z" />
    <glyph glyph-name="itilde" unicode="&#x129;" horiz-adv-x="392" 
d="M155 244v150q0 156 -2 183q-3 41 -29 46q-6 1 -13.5 2t-9.5 1q-11 2 -11 7q0 7 15 7q14 0 36 -1t39 -1l16 -1q1 0 18 0.5t38.5 1.5t33.5 1q15 0 15 -7q0 -6 -11 -7q-3 -1 -9 -1.5t-9 -0.5q-14 -2 -21.5 -8.5t-9.5 -14.5t-3 -25q-1 -14 -1 -182v-150q0 -154 4 -183
q3 -23 9 -32.5t25 -13.5q17 -4 38 -4q11 -1 11 -7q0 -7 -14 -7q-23 0 -50 0.5t-45 1.5t-19 1t-17.5 -0.5t-38.5 -1.5t-34 -1q-16 0 -16 7t13 7q12 0 24 3q18 4 23 48q5 36 5 182zM266 722q-20 0 -74 21.5t-75 21.5q-35 0 -61 -29q-7 -9 -13 -9q-2 0 -2.5 1.5t0 5t3.5 7.5
q45 69 90 69q30 0 87 -23q43 -17 61 -17q37 0 70 34q7 8 11 8q3 0 3.5 -4t-2.5 -9q-48 -77 -98 -77z" />
    <glyph glyph-name="Imacron" unicode="&#x12a;" horiz-adv-x="440" 
d="M178 287v176q0 184 -2 216q-3 49 -34 56q-15 4 -31 4q-8 0 -8 6q0 8 16 8q15 0 39 -0.5t42.5 -1.5t19.5 -1t19.5 1t42 1.5t36.5 0.5q16 0 16 -8q0 -6 -8 -6q-7 0 -25 -3q-20 -4 -27.5 -17t-9.5 -40q-2 -32 -2 -216v-176q0 -175 5 -217q3 -25 10.5 -38.5t28.5 -16.5
q28 -4 41 -4q12 0 12 -6q0 -8 -15 -8q-24 0 -54 0.5t-49.5 1.5t-20.5 1t-19.5 -0.5t-42 -1.5t-36.5 -1q-16 0 -16 8q0 6 11 6q13 0 26 3q23 5 30 56q5 42 5 217zM94 886h265q12 0 8 -10l-8 -27q-1 -6 -9 -6h-265q-6 0 -8.5 1.5t-1.5 5.5l8 30q1 6 11 6z" />
    <glyph glyph-name="imacron" unicode="&#x12b;" horiz-adv-x="392" 
d="M155 244v150q0 156 -2 183q-3 41 -29 46q-6 1 -13.5 2t-9.5 1q-11 2 -11 7q0 7 15 7q14 0 36 -1t39 -1l16 -1q1 0 18 0.5t38.5 1.5t33.5 1q15 0 15 -7q0 -6 -11 -7q-3 -1 -9 -1.5t-9 -0.5q-14 -2 -21.5 -8.5t-9.5 -14.5t-3 -25q-1 -14 -1 -182v-150q0 -154 4 -183
q3 -23 9 -32.5t25 -13.5q17 -4 38 -4q11 -1 11 -7q0 -7 -14 -7q-23 0 -50 0.5t-45 1.5t-19 1t-17.5 -0.5t-38.5 -1.5t-34 -1q-16 0 -16 7t13 7q12 0 24 3q18 4 23 48q5 36 5 182zM68 778h265q12 0 8 -11l-8 -24q-1 -6 -9 -6h-265q-6 0 -8.5 1.5t-1.5 5.5l8 28q1 6 11 6z" />
    <glyph glyph-name="degree" unicode="&#x12c;" horiz-adv-x="308" 
d="M253 595q-1 -45 -32.5 -75t-74.5 -30q-45 0 -74.5 29.5t-29.5 71.5q0 44 30.5 74.5t74.5 30.5q48 0 77 -29.5t29 -71.5zM206 595q0 25 -15.5 44t-45.5 19q-27 0 -43 -20t-16 -45q0 -26 17.5 -44t42.5 -18t42.5 18.5t17.5 45.5z" />
    <glyph glyph-name="uni02C60301.cap" unicode="&#x12d;" 
d="M505 1011q14 -13 24 -28q7 -11 -4 -11q-7 0 -37 -12q-40 -16 -102 -47q-10 -6 -16 -6q-7 0 -7 3q0 2 9 13q55 55 88 80q22 16 29 16t16 -8zM256 927q5 0 18 -9q50 -30 113 -75q11 -8 11 -12q0 -3 -4 -6l-28 -19q-6 -3 -10 1q-19 16 -51.5 38t-46.5 29q-7 5 -12 5
q-3 0 -15 -6q-37 -19 -102 -60q-16 -9 -22 -9q-11 0 1 12q2 1 4 3q5 5 64 49t64 49q13 10 16 10z" />
    <glyph glyph-name="Iogonek" unicode="&#x12e;" horiz-adv-x="440" 
d="M262 463v-176q0 -175 5 -217q3 -25 10.5 -38.5t28.5 -16.5q28 -4 41 -4q12 0 12 -6q0 -8 -15 -8q-46 0 -96 2q-44 -53 -44 -111q0 -26 15.5 -40t39.5 -14q26 0 51 17q12 8 12 0q0 -4 -7 -13q-12 -17 -39.5 -32t-58.5 -15q-37 0 -57.5 21t-20.5 52q0 35 26.5 72t61.5 64
h-7q-1 0 -19.5 -0.5t-42 -1.5t-36.5 -1q-16 0 -16 8q0 6 11 6q13 0 26 3q23 5 30 56q5 42 5 217v176q0 184 -2 216q-3 49 -34 56q-15 4 -31 4q-8 0 -8 6q0 8 16 8q15 0 39 -0.5t42.5 -1.5t19.5 -1t19.5 1t42 1.5t36.5 0.5q16 0 16 -8q0 -6 -8 -6q-7 0 -25 -3
q-20 -4 -27.5 -17t-9.5 -40q-2 -32 -2 -216z" />
    <glyph glyph-name="iogonek" unicode="&#x12f;" horiz-adv-x="392" 
d="M237 394v-150q0 -154 4 -183q3 -23 9 -32.5t25 -13.5q17 -4 38 -4q11 -1 11 -7q0 -7 -14 -7h-39q-78 -49 -78 -113q0 -53 51 -53q27 0 46 11q14 8 14 0q0 -5 -7 -13q-33 -38 -94 -38q-37 0 -58.5 20.5t-21.5 51.5q0 36 36.5 73t88.5 62q-12 0 -24.5 0.5t-19.5 1t-8 0.5
t-17.5 -0.5t-38.5 -1.5t-34 -1q-16 0 -16 7t13 7q12 0 24 3q18 4 23 48q5 36 5 182v150q0 156 -2 183q-3 41 -29 46q-6 1 -13.5 2t-9.5 1q-11 2 -11 7q0 7 15 7q14 0 36 -1t39 -1l16 -1q1 0 18 0.5t38.5 1.5t33.5 1q15 0 15 -7q0 -6 -11 -7q-3 -1 -9 -1.5t-9 -0.5
q-14 -2 -21.5 -8.5t-9.5 -14.5t-3 -25q-1 -14 -1 -182z" />
    <glyph glyph-name="Idotaccent" unicode="&#x130;" horiz-adv-x="440" 
d="M178 287v176q0 184 -2 216q-3 49 -34 56q-15 4 -31 4q-8 0 -8 6q0 8 16 8q15 0 39 -0.5t42.5 -1.5t19.5 -1t19.5 1t42 1.5t36.5 0.5q16 0 16 -8q0 -6 -8 -6q-7 0 -25 -3q-20 -4 -27.5 -17t-9.5 -40q-2 -32 -2 -216v-176q0 -175 5 -217q3 -25 10.5 -38.5t28.5 -16.5
q28 -4 41 -4q12 0 12 -6q0 -8 -15 -8q-24 0 -54 0.5t-49.5 1.5t-20.5 1t-19.5 -0.5t-42 -1.5t-36.5 -1q-16 0 -16 8q0 6 11 6q13 0 26 3q23 5 30 56q5 42 5 217zM219 838q-20 0 -31 12.5t-11 28.5t11.5 29.5t30.5 13.5q18 0 30.5 -12t12.5 -30q0 -17 -12 -29.5t-31 -12.5z
" />
    <glyph glyph-name="dotlessi" unicode="&#x131;" horiz-adv-x="392" 
d="M155 244v150q0 156 -2 183q-3 41 -29 46q-6 1 -13.5 2t-9.5 1q-11 2 -11 7q0 7 15 7q14 0 36 -1t39 -1l16 -1q1 0 18 0.5t38.5 1.5t33.5 1q15 0 15 -7q0 -6 -11 -7q-3 -1 -9 -1.5t-9 -0.5q-14 -2 -21.5 -8.5t-9.5 -14.5t-3 -25q-1 -14 -1 -182v-150q0 -154 4 -183
q3 -23 9 -32.5t25 -13.5q17 -4 38 -4q11 -1 11 -7q0 -7 -14 -7q-23 0 -50 0.5t-45 1.5t-19 1t-17.5 -0.5t-38.5 -1.5t-34 -1q-16 0 -16 7t13 7q12 0 24 3q18 4 23 48q5 36 5 182z" />
    <glyph glyph-name="uni02D80303.cap" unicode="&#x132;" 
d="M314 929q-20 0 -73.5 19t-68.5 19q-36 0 -66 -28q-8 -7 -12 -7q-7 0 2 12q15 20 41.5 40t46.5 20q18 0 83 -23q42 -14 59 -14q23 0 37.5 5t32.5 21q6 5 10 5q3 -1 2 -4t-4 -7q-43 -58 -90 -58zM97 876q0 3 4 6q28 17 34 17q4 0 7 -3q38 -47 117 -47q74 0 126 44q8 7 13 7
q7 0 -1 -12l-4 -4q-29 -32 -71.5 -49t-82.5 -17q-68 0 -110 25q-32 19 -32 33z" />
    <glyph glyph-name="uni02D80309.cap" unicode="&#x133;" 
d="M265 1032q29 0 47.5 -15t18.5 -40q0 -49 -86 -78q-15 -5 -15 3q0 4 8 9q43 29 43 60t-39 31q-29 0 -52 -17q-10 -7 -10 0q-2 5 4 10q35 37 81 37zM97 878q0 3 7 8q22 13 30 13q4 0 7 -4q16 -22 46.5 -36.5t68.5 -14.5q80 0 129 49q9 9 13 9q8 0 -1 -14l-3 -5
q-59 -73 -162 -73q-59 0 -102 30q-13 8 -23 20t-10 18z" />
    <glyph glyph-name="Jcircumflex" unicode="&#x134;" horiz-adv-x="414" 
d="M262 463v-240q0 -137 -4.5 -191.5t-25.5 -103.5q-31 -73 -146 -153q-29 -20 -39 -25q-4 -2 -7 -2q-7 0 -7 6t14 15q17 10 35 28q37 37 55 70.5t29.5 107.5t11.5 199v289q0 184 -2 216q-2 27 -10.5 39.5t-32.5 17.5q-12 3 -31 3q-11 0 -11 7t15 7q20 0 47 -0.5t46.5 -1.5
t20.5 -1t19.5 1t42 1.5t36.5 0.5q16 0 16 -8q0 -6 -11 -6q-6 0 -24 -2q-19 -2 -26 -15.5t-9 -42.5q-2 -32 -2 -216zM222 945q6 0 19 -8q111 -74 129 -87q12 -9 12 -12t-5 -6l-34 -19q-6 -4 -12 0q-55 44 -106 71q-8 5 -11 5l-16 -7q-70 -35 -119 -63q-16 -9 -21 -9
q-8 0 -4 9q2 3 7 7q120 89 143 109q14 10 18 10z" />
    <glyph glyph-name="jcircumflex" unicode="&#x135;" horiz-adv-x="372" 
d="M238 394v-191q0 -90 -1 -123t-6.5 -71.5t-19.5 -69.5q-26 -61 -136 -135q-5 -2 -17.5 -10.5t-17.5 -10.5q-1 -1 -6 -1q-7 0 -7 5q0 4 13 13q14 7 28 21q34 33 50.5 61t27.5 92.5t11 175.5v244q0 155 -2 182q-2 21 -10.5 32t-28.5 16q-12 2 -30 2q-7 0 -7 6q0 8 15 8
q19 0 43.5 -1t42.5 -1l17 -1q1 0 18 0.5t39 1.5t34 1q14 0 14 -8q0 -6 -6 -6q-1 0 -23 -2q-30 -7 -33 -49q-2 -27 -2 -181zM200 837q3 0 17 -7q3 -2 32 -21.5t54 -37t32 -22.5q11 -8 11 -11q0 -2 -5 -5l-35 -22q-6 -4 -10 0q-47 41 -98 68q-7 4 -12 4q-4 0 -14 -5
q-29 -16 -107 -62q-13 -8 -19 -8q-9 0 -3 7q1 2 5 5q65 49 135 108q13 9 17 9z" />
    <glyph glyph-name="uni0136" unicode="&#x136;" horiz-adv-x="773" 
d="M258 463v-64q14 13 55.5 56.5t96.5 101t76 78.5q42 43 53 58.5t11 25.5q0 14 -13 19q-9 4 -9 9q0 6 15 6q14 0 28 -1.5t32 -1.5q17 0 58.5 1.5t47.5 1.5q17 0 17 -7q0 -6 -11 -7q-30 -3 -51 -12q-36 -14 -104 -80q-183 -176 -228 -227q46 -50 150.5 -157t141.5 -141
q61 -57 95 -79t70 -29q13 -3 29 -3q14 0 14 -7t-15 -7h-74q-63 0 -91.5 9.5t-65.5 38.5q-43 34 -150.5 147.5t-177.5 197.5v-103q0 -175 5 -217q3 -25 10.5 -38.5t28.5 -16.5q28 -4 40 -4t12 -7t-15 -7q-24 0 -53.5 0.5t-49 1.5t-20.5 1t-18.5 -0.5t-40 -1.5t-35.5 -1
q-16 0 -16 7t11 7q13 0 26 3q23 5 30 56q5 42 5 217v176q0 184 -2 216q-3 49 -34 56q-15 4 -36 4q-11 0 -11 6q0 8 16 8q15 0 40 -0.5t44.5 -1.5t20.5 -1t19.5 1t42 1.5t36.5 0.5q16 0 16 -7q0 -6 -11 -7l-22 -2q-19 -2 -27 -16t-10 -42q-2 -32 -2 -216zM447 -69
q11 0 21.5 -17.5t10.5 -42.5q0 -29 -19 -64.5t-59 -65.5q-27 -21 -27 -7q0 5 7 12q41 40 41 78q0 26 -38 51q-4 3 -4 8q0 9 23 28.5t44 19.5z" />
    <glyph glyph-name="uni0137" unicode="&#x137;" horiz-adv-x="688" 
d="M237 394v-47q120 107 200 194q36 40 44 50.5t8 18.5q0 11 -16 16q-11 3 -11 8q0 6 10 6q2 0 12.5 -1t26 -1.5t29.5 -0.5q17 0 55.5 1.5t42.5 1.5q16 0 16 -6q0 -7 -11 -8q-29 -2 -49 -10q-17 -6 -32.5 -17.5t-56.5 -48.5t-114 -106t-90 -85q156 -161 258 -254
q85 -78 144 -91q5 -1 23 -3q14 -2 14 -8t-16 -6h-65q-56 0 -81 7.5t-57 29.5q-33 24 -128.5 121t-155.5 168v-79q0 -154 4 -183q3 -23 9 -32.5t25 -13.5q17 -4 38 -4q11 -1 11 -7q0 -7 -14 -7q-23 0 -50 0.5t-45 1.5t-19 1t-17.5 -0.5t-38.5 -1.5t-34 -1q-16 0 -16 7t13 7
q12 0 24 3q18 4 23 48q5 36 5 182v150q0 156 -2 183q-3 41 -29 46q-6 1 -13.5 2t-9.5 1q-11 2 -11 7q0 7 15 7q14 0 36 -1t39 -1l16 -1q1 0 18 0.5t38.5 1.5t33.5 1q15 0 15 -7q0 -6 -11 -7q-3 -1 -9 -1.5t-9 -0.5q-14 -2 -21.5 -8.5t-9.5 -14.5t-3 -25q-1 -14 -1 -182z
M430 -69q11 0 21.5 -17.5t10.5 -42.5q0 -29 -19 -64.5t-59 -65.5q-27 -21 -27 -7q0 5 7 12q41 40 41 78q0 26 -38 51q-4 3 -4 8q0 9 23 28.5t44 19.5z" />
    <glyph glyph-name="kgreenlandic" unicode="&#x138;" horiz-adv-x="688" 
d="M237 394v-47q120 107 200 194q36 40 44 50.5t8 18.5q0 11 -16 16q-11 3 -11 8q0 6 10 6q2 0 12.5 -1t26 -1.5t29.5 -0.5q17 0 55.5 1.5t42.5 1.5q16 0 16 -6q0 -7 -11 -8q-29 -2 -49 -10q-17 -6 -32.5 -17.5t-56.5 -48.5t-114 -106t-90 -85q156 -161 258 -254
q85 -78 144 -91q5 -1 23 -3q14 -2 14 -8t-16 -6h-65q-56 0 -81 7.5t-57 29.5q-33 24 -128.5 121t-155.5 168v-79q0 -154 4 -183q3 -23 9 -32.5t25 -13.5q17 -4 38 -4q11 -1 11 -7q0 -7 -14 -7q-23 0 -50 0.5t-45 1.5t-19 1t-17.5 -0.5t-38.5 -1.5t-34 -1q-16 0 -16 7t13 7
q12 0 24 3q18 4 23 48q5 36 5 182v150q0 156 -2 183q-3 41 -29 46q-6 1 -13.5 2t-9.5 1q-11 2 -11 7q0 7 15 7q14 0 36 -1t39 -1l16 -1q1 0 18 0.5t38.5 1.5t33.5 1q15 0 15 -7q0 -6 -11 -7q-3 -1 -9 -1.5t-9 -0.5q-14 -2 -21.5 -8.5t-9.5 -14.5t-3 -25q-1 -14 -1 -182z" />
    <glyph glyph-name="Lacute" unicode="&#x139;" horiz-adv-x="592" 
d="M262 463v-178q0 -115 4.5 -165.5t17.5 -63.5q23 -23 120 -23q49 0 77 5t44 25q21 25 26 60q2 13 9 13q6 0 6 -15q0 -46 -15 -100q-5 -18 -15 -22.5t-48 -4.5q-42 0 -130 3t-138 3q-15 0 -47 -1.5t-51 -1.5q-16 0 -16 8q0 6 8 6q12 0 30 4q22 4 29 55q5 42 5 217v176
q0 184 -2 216q-2 27 -10.5 39.5t-32.5 17.5q-12 3 -34 3q-8 0 -8 6q0 8 16 8q20 0 47 -0.5t46 -1.5t20 -1t22 1t47 1.5t39 0.5q16 0 16 -8q0 -6 -8 -6q-15 0 -33 -3q-21 -4 -29 -17t-10 -40q-2 -32 -2 -216zM349 939q22 -20 32 -40q7 -13 -4 -13q-20 0 -41 -8
q-53 -19 -142 -61q-14 -6 -16 -6q-6 0 -6 4t8 12q86 80 123 104q22 16 29 16q9 0 17 -8z" />
    <glyph glyph-name="lacute" unicode="&#x13a;" horiz-adv-x="524" 
d="M237 394v-152q0 -169 21 -189q23 -20 105 -20q29 0 43.5 1t33.5 7.5t29 19.5q15 23 19 50q2 12 8 12t6 -13q0 -44 -12 -90q-3 -10 -4 -12.5t-6.5 -7t-15 -5t-27.5 -0.5q-30 0 -109.5 2.5t-133.5 2.5q-16 0 -43 -1.5t-45 -1.5q-16 0 -16 8q0 6 11 6q16 0 24 2q21 4 26 47
q4 25 4 184v150q0 154 -2 181q-1 16 -3.5 25t-11.5 16t-25 9q-6 1 -25 1q-11 0 -11 7t15 7q12 0 26.5 -0.5t27.5 -1t24.5 -0.5h18.5l7 -1q5 0 46 1.5t57 1.5q13 0 13 -7t-11 -7q-7 0 -27 -2q-20 -3 -27 -14t-9 -35q-1 -14 -1 -181zM335 840q22 -18 33 -35q8 -12 -3 -12
q-1 0 -7.5 -1.5t-15 -4t-14.5 -5.5q-58 -27 -128 -69l-3 -1q-3 -2 -5.5 -3.5t-5.5 -2.5t-5 -0.5t-2 3.5q0 5 7 12q97 101 106 108q20 17 26 17q10 0 17 -6z" />
    <glyph glyph-name="uni013B" unicode="&#x13b;" horiz-adv-x="592" 
d="M262 463v-178q0 -115 4.5 -165.5t17.5 -63.5q23 -23 120 -23q49 0 77 5t44 25q21 25 26 60q2 13 9 13q6 0 6 -15q0 -46 -15 -100q-5 -18 -15 -22.5t-48 -4.5q-42 0 -130 3t-138 3q-15 0 -47 -1.5t-51 -1.5q-16 0 -16 8q0 6 8 6q12 0 30 4q22 4 29 55q5 42 5 217v176
q0 184 -2 216q-2 27 -10.5 39.5t-32.5 17.5q-12 3 -34 3q-8 0 -8 6q0 8 16 8q20 0 47 -0.5t46 -1.5t20 -1t22 1t47 1.5t39 0.5q16 0 16 -8q0 -6 -8 -6q-15 0 -33 -3q-21 -4 -29 -17t-10 -40q-2 -32 -2 -216zM306 -117q0 9 23 28.5t44 19.5q11 0 21.5 -17.5t10.5 -42.5
q0 -29 -19 -64.5t-59 -65.5q-27 -21 -27 -7q0 5 7 12q41 40 41 78q0 26 -38 51q-4 3 -4 8z" />
    <glyph glyph-name="uni013C" unicode="&#x13c;" horiz-adv-x="524" 
d="M237 394v-152q0 -169 21 -189q23 -20 105 -20q29 0 43.5 1t33.5 7.5t29 19.5q15 23 19 50q2 12 8 12t6 -13q0 -44 -12 -90q-3 -10 -4 -12.5t-6.5 -7t-15 -5t-27.5 -0.5q-30 0 -109.5 2.5t-133.5 2.5q-16 0 -43 -1.5t-45 -1.5q-16 0 -16 8q0 6 11 6q16 0 24 2q21 4 26 47
q4 25 4 184v150q0 154 -2 181q-1 16 -3.5 25t-11.5 16t-25 9q-6 1 -25 1q-11 0 -11 7t15 7q12 0 26.5 -0.5t27.5 -1t24.5 -0.5h18.5l7 -1q5 0 46 1.5t57 1.5q13 0 13 -7t-11 -7q-7 0 -27 -2q-20 -3 -27 -14t-9 -35q-1 -14 -1 -181zM301 -107q0 9 23 28.5t44 19.5
q11 0 21.5 -17.5t10.5 -42.5q0 -29 -19 -64.5t-59 -65.5q-27 -21 -27 -7q0 5 7 12q41 40 41 78q0 26 -38 51q-4 3 -4 8z" />
    <glyph glyph-name="Lcaron" unicode="&#x13d;" horiz-adv-x="592" 
d="M262 463v-178q0 -115 4.5 -165.5t17.5 -63.5q23 -23 120 -23q49 0 77 5t44 25q21 25 26 60q2 13 9 13q6 0 6 -15q0 -46 -15 -100q-5 -18 -15 -22.5t-48 -4.5q-42 0 -130 3t-138 3q-15 0 -47 -1.5t-51 -1.5q-16 0 -16 8q0 6 8 6q12 0 30 4q22 4 29 55q5 42 5 217v176
q0 184 -2 216q-2 27 -10.5 39.5t-32.5 17.5q-12 3 -34 3q-8 0 -8 6q0 8 16 8q20 0 47 -0.5t46 -1.5t20 -1t22 1t47 1.5t39 0.5q16 0 16 -8q0 -6 -8 -6q-15 0 -33 -3q-21 -4 -29 -17t-10 -40q-2 -32 -2 -216zM520 523q-5 -40 -15 -40q-8 0 -11 32q-15 183 -26 218q-2 5 2 7
q10 6 31.5 12.5t29.5 6.5q9 0 9 -20q0 -72 -20 -216z" />
    <glyph glyph-name="lcaron" unicode="&#x13e;" horiz-adv-x="524" 
d="M237 394v-152q0 -169 21 -189q23 -20 105 -20q29 0 43.5 1t33.5 7.5t29 19.5q15 23 19 50q2 12 8 12t6 -13q0 -44 -12 -90q-3 -10 -4 -12.5t-6.5 -7t-15 -5t-27.5 -0.5q-30 0 -109.5 2.5t-133.5 2.5q-16 0 -43 -1.5t-45 -1.5q-16 0 -16 8q0 6 11 6q16 0 24 2q21 4 26 47
q4 25 4 184v150q0 154 -2 181q-1 16 -3.5 25t-11.5 16t-25 9q-6 1 -25 1q-11 0 -11 7t15 7q12 0 26.5 -0.5t27.5 -1t24.5 -0.5h18.5l7 -1q5 0 46 1.5t57 1.5q13 0 13 -7t-11 -7q-7 0 -27 -2q-20 -3 -27 -14t-9 -35q-1 -14 -1 -181zM479 413q-5 -40 -15 -40q-8 0 -11 32
q-15 183 -26 218q-2 5 2 7q10 6 31.5 12.5t29.5 6.5q9 0 9 -20q0 -72 -20 -216z" />
    <glyph glyph-name="Ldot" unicode="&#x13f;" horiz-adv-x="592" 
d="M262 463v-178q0 -115 4.5 -165.5t17.5 -63.5q23 -23 120 -23q49 0 77 5t44 25q21 25 26 60q2 13 9 13q6 0 6 -15q0 -46 -15 -100q-5 -18 -15 -22.5t-48 -4.5q-42 0 -130 3t-138 3q-15 0 -47 -1.5t-51 -1.5q-16 0 -16 8q0 6 8 6q12 0 30 4q22 4 29 55q5 42 5 217v176
q0 184 -2 216q-2 27 -10.5 39.5t-32.5 17.5q-12 3 -34 3q-8 0 -8 6q0 8 16 8q20 0 47 -0.5t46 -1.5t20 -1t22 1t47 1.5t39 0.5q16 0 16 -8q0 -6 -8 -6q-15 0 -33 -3q-21 -4 -29 -17t-10 -40q-2 -32 -2 -216zM459 496q24 0 94 -16q21 -4 21 -12q0 -4 -5 -14q-17 -29 -78 -83
q-13 -10 -14 -10q-4 0 -4 4t5 14q7 24 7 56q0 35 -24 47q-10 5 -10 8q0 6 8 6z" />
    <glyph glyph-name="ldot" unicode="&#x140;" horiz-adv-x="524" 
d="M237 394v-152q0 -169 21 -189q23 -20 105 -20q29 0 43.5 1t33.5 7.5t29 19.5q15 23 19 50q2 12 8 12t6 -13q0 -44 -12 -90q-3 -10 -4 -12.5t-6.5 -7t-15 -5t-27.5 -0.5q-30 0 -109.5 2.5t-133.5 2.5q-16 0 -43 -1.5t-45 -1.5q-16 0 -16 8q0 6 11 6q16 0 24 2q21 4 26 47
q4 25 4 184v150q0 154 -2 181q-1 16 -3.5 25t-11.5 16t-25 9q-6 1 -25 1q-11 0 -11 7t15 7q12 0 26.5 -0.5t27.5 -1t24.5 -0.5h18.5l7 -1q5 0 46 1.5t57 1.5q13 0 13 -7t-11 -7q-7 0 -27 -2q-20 -3 -27 -14t-9 -35q-1 -14 -1 -181zM394 447q24 0 94 -16q21 -5 21 -12
q0 -4 -5 -14q-17 -29 -78 -83q-12 -10 -14 -10q-4 0 -4 4t5 14q7 24 7 56q0 35 -24 47q-10 5 -10 8q0 6 8 6z" />
    <glyph glyph-name="Lslash" unicode="&#x141;" horiz-adv-x="602" 
d="M272 364v-79q0 -115 4.5 -165.5t17.5 -63.5q23 -23 120 -23q49 0 77 5t44 25q21 25 26 60q2 13 9 13q6 0 6 -15q0 -46 -15 -100q-5 -18 -15 -22.5t-48 -4.5q-42 0 -130 3t-138 3q-15 0 -47 -1.5t-51 -1.5q-16 0 -16 8q0 6 8 6q12 0 30 4q22 4 29 55q5 42 5 217v32
l-88 -47q-4 -3 -7 1q-9 13 -9 30q0 3 2 5l102 55v100q0 184 -2 216q-2 27 -10.5 39.5t-32.5 17.5q-12 3 -34 3q-8 0 -8 6q0 8 16 8q20 0 47 -0.5t46 -1.5t20 -1t22 1t47 1.5t39 0.5q16 0 16 -8q0 -6 -8 -6q-15 0 -33 -3q-21 -4 -29 -17t-10 -40q-2 -32 -2 -216v-54l155 84
q3 2 6 -1q8 -12 13 -30q0 -4 -1 -5z" />
    <glyph glyph-name="lslash" unicode="&#x142;" horiz-adv-x="533" 
d="M245 310v-68q0 -169 21 -189q23 -20 105 -20q29 0 43.5 1t33.5 7.5t29 19.5q15 23 19 50q2 12 8 12t6 -13q0 -44 -12 -90q-3 -10 -4 -12.5t-6.5 -7t-15 -5t-27.5 -0.5q-30 0 -109.5 2.5t-133.5 2.5q-16 0 -43 -1.5t-45 -1.5q-16 0 -16 8q0 6 11 6q16 0 24 2q21 4 26 47
q4 25 4 184v24l-76 -40q-4 -2 -6 1q-8 12 -8 29q0 2 2 4l88 46v86q0 154 -2 181q-1 16 -3.5 25t-11.5 16t-25 9q-6 1 -25 1q-11 0 -11 7t15 7q12 0 26.5 -0.5t27.5 -1t24.5 -0.5h18.5l7 -1q5 0 46 1.5t57 1.5q13 0 13 -7t-11 -7q-7 0 -27 -2q-20 -3 -27 -14t-9 -35
q-1 -14 -1 -181v-43l136 72q4 2 5 -1q9 -10 13 -28q1 -3 -1 -4z" />
    <glyph glyph-name="Nacute" unicode="&#x143;" horiz-adv-x="947" 
d="M145 144v148q0 151 0.5 227.5t0.5 81v116.5q0 50 11 50q4 0 9.5 -5t14.5 -15t11 -12q37 -42 318 -343q52 -56 138.5 -151t101.5 -110l-11 508q-1 50 -8.5 69.5t-30.5 25.5q-22 5 -43 5q-14 0 -14 7t20 7q27 0 65 -1.5t39 -1.5q2 0 31.5 1.5t53.5 1.5q18 0 18 -7
q0 -5 -11 -7q-8 -1 -26 -4q-21 -5 -28 -22t-7 -68l-2 -584q0 -25 -0.5 -39t-1.5 -21t-2.5 -9t-4.5 -2q-9 0 -73 64q-6 6 -47 47.5t-103.5 106.5t-110.5 117q-140 151 -261 287l13 -479q1 -61 9.5 -85.5t29.5 -30.5q23 -6 50 -6q8 0 8 -6q0 -8 -18 -8q-25 0 -49.5 0.5
t-39.5 1.5t-17 1l-34 -2q-35 -1 -62 -1q-16 0 -16 8q0 6 8 6q23 0 41 6q18 5 24 31t6 96zM586 939q22 -20 32 -40q6 -13 -4 -13q-20 0 -41 -8q-53 -19 -142 -61q-14 -6 -16 -6q-6 0 -6 4t8 12q86 80 123 104q22 16 29 16q9 0 17 -8z" />
    <glyph glyph-name="nacute" unicode="&#x144;" horiz-adv-x="839" 
d="M128 122v489q0 41 11 41q4 0 31 -27q9 -10 288 -295q40 -39 116 -115l88 -88l-11 416q-1 41 -7.5 57.5t-26.5 21.5q-23 4 -39 4q-12 0 -12 8q0 6 18 6q26 0 60 -2l34 -1q1 0 29 1.5t51 1.5q14 0 14 -6t-9 -8q-2 0 -10.5 -1t-14.5 -2q-18 -4 -24 -18t-6 -57l-2 -502
q0 -19 -0.5 -29.5t-1.5 -16.5t-2.5 -7.5t-4.5 -1.5q-10 0 -66 53q-2 1 -38.5 36.5t-98 96.5t-93.5 92q-104 108 -229 238l13 -391q2 -54 8.5 -75.5t24.5 -25.5q16 -4 41 -4q12 0 12 -7t-16 -7q-24 0 -46.5 0.5t-35.5 1.5t-15 1t-15 -0.5t-33 -1.5t-39 -1q-15 0 -15 7t14 7
q18 0 31 4q16 5 21.5 28t5.5 79zM522 830q22 -18 33 -35q8 -12 -3 -12q-1 0 -7.5 -1.5t-15 -4t-14.5 -5.5q-59 -27 -128 -69l-3 -1q-3 -2 -5.5 -3.5t-5.5 -2.5t-5 -0.5t-2 3.5q0 5 7 12q97 101 106 108q20 17 26 17q10 0 17 -6z" />
    <glyph glyph-name="uni0145" unicode="&#x145;" horiz-adv-x="947" 
d="M145 144v148q0 151 0.5 227.5t0.5 81v116.5q0 50 11 50q4 0 9.5 -5t14.5 -15t11 -12q37 -42 318 -343q52 -56 138.5 -151t101.5 -110l-11 508q-1 50 -8.5 69.5t-30.5 25.5q-22 5 -43 5q-14 0 -14 7t20 7q27 0 65 -1.5t39 -1.5q2 0 31.5 1.5t53.5 1.5q18 0 18 -7
q0 -5 -11 -7q-8 -1 -26 -4q-21 -5 -28 -22t-7 -68l-2 -584q0 -25 -0.5 -39t-1.5 -21t-2.5 -9t-4.5 -2q-9 0 -73 64q-6 6 -47 47.5t-103.5 106.5t-110.5 117q-140 151 -261 287l13 -479q1 -61 9.5 -85.5t29.5 -30.5q23 -6 50 -6q8 0 8 -6q0 -8 -18 -8q-25 0 -49.5 0.5
t-39.5 1.5t-17 1l-34 -2q-35 -1 -62 -1q-16 0 -16 8q0 6 8 6q23 0 41 6q18 5 24 31t6 96zM426 -114q0 9 23 28.5t44 19.5q11 0 21.5 -17.5t10.5 -42.5q0 -29 -19 -64.5t-59 -65.5q-27 -21 -27 -7q0 5 7 12q41 40 41 78q0 26 -38 51q-4 3 -4 8z" />
    <glyph glyph-name="uni0146" unicode="&#x146;" horiz-adv-x="839" 
d="M128 122v489q0 41 11 41q4 0 31 -27q9 -10 288 -295q40 -39 116 -115l88 -88l-11 416q-1 41 -7.5 57.5t-26.5 21.5q-23 4 -39 4q-12 0 -12 8q0 6 18 6q26 0 60 -2l34 -1q1 0 29 1.5t51 1.5q14 0 14 -6t-9 -8q-2 0 -10.5 -1t-14.5 -2q-18 -4 -24 -18t-6 -57l-2 -502
q0 -19 -0.5 -29.5t-1.5 -16.5t-2.5 -7.5t-4.5 -1.5q-10 0 -66 53q-2 1 -38.5 36.5t-98 96.5t-93.5 92q-104 108 -229 238l13 -391q2 -54 8.5 -75.5t24.5 -25.5q16 -4 41 -4q12 0 12 -7t-16 -7q-24 0 -46.5 0.5t-35.5 1.5t-15 1t-15 -0.5t-33 -1.5t-39 -1q-15 0 -15 7t14 7
q18 0 31 4q16 5 21.5 28t5.5 79zM406 -107q0 9 23 28.5t44 19.5q11 0 21.5 -17.5t10.5 -42.5q0 -29 -19 -64.5t-59 -65.5q-27 -21 -27 -7q0 5 7 12q41 40 41 78q0 26 -38 51q-4 3 -4 8z" />
    <glyph glyph-name="Ncaron" unicode="&#x147;" horiz-adv-x="947" 
d="M145 144v148q0 151 0.5 227.5t0.5 81v116.5q0 50 11 50q4 0 9.5 -5t14.5 -15t11 -12q37 -42 318 -343q52 -56 138.5 -151t101.5 -110l-11 508q-1 50 -8.5 69.5t-30.5 25.5q-22 5 -43 5q-14 0 -14 7t20 7q27 0 65 -1.5t39 -1.5q2 0 31.5 1.5t53.5 1.5q18 0 18 -7
q0 -5 -11 -7q-8 -1 -26 -4q-21 -5 -28 -22t-7 -68l-2 -584q0 -25 -0.5 -39t-1.5 -21t-2.5 -9t-4.5 -2q-9 0 -73 64q-6 6 -47 47.5t-103.5 106.5t-110.5 117q-140 151 -261 287l13 -479q1 -61 9.5 -85.5t29.5 -30.5q23 -6 50 -6q8 0 8 -6q0 -8 -18 -8q-25 0 -49.5 0.5
t-39.5 1.5t-17 1l-34 -2q-35 -1 -62 -1q-16 0 -16 8q0 6 8 6q23 0 41 6q18 5 24 31t6 96zM476 802q-6 0 -19 8q-5 3 -35.5 23t-57.5 38t-35 24q-12 9 -12 12t5 6l32 21q6 4 11 0q58 -49 109 -76q8 -5 12 -5t16 6q46 25 116 68q15 9 21 9q9 0 4 -8l-6 -6q-95 -69 -143 -110
q-14 -10 -18 -10z" />
    <glyph glyph-name="ncaron" unicode="&#x148;" horiz-adv-x="839" 
d="M128 122v489q0 41 11 41q4 0 31 -27q9 -10 288 -295q40 -39 116 -115l88 -88l-11 416q-1 41 -7.5 57.5t-26.5 21.5q-23 4 -39 4q-12 0 -12 8q0 6 18 6q26 0 60 -2l34 -1q1 0 29 1.5t51 1.5q14 0 14 -6t-9 -8q-2 0 -10.5 -1t-14.5 -2q-18 -4 -24 -18t-6 -57l-2 -502
q0 -19 -0.5 -29.5t-1.5 -16.5t-2.5 -7.5t-4.5 -1.5q-10 0 -66 53q-2 1 -38.5 36.5t-98 96.5t-93.5 92q-104 108 -229 238l13 -391q2 -54 8.5 -75.5t24.5 -25.5q16 -4 41 -4q12 0 12 -7t-16 -7q-24 0 -46.5 0.5t-35.5 1.5t-15 1t-15 -0.5t-33 -1.5t-39 -1q-15 0 -15 7t14 7
q18 0 31 4q16 5 21.5 28t5.5 79zM419 698q-3 0 -17 7q-4 3 -32 22t-53 36t-32 22q-11 8 -11 11q0 2 5 5l35 22q6 4 10 0q48 -42 99 -69q7 -4 12 -4q4 0 14 5q29 16 107 62q11 8 19 8q9 0 3 -7q-1 -2 -5 -5q-85 -62 -137 -106q-14 -9 -17 -9z" />
    <glyph glyph-name="uni02D80300.cap" unicode="&#x149;" 
d="M222 1004q44 -71 52 -94q4 -9 -2 -9t-15 9q-49 46 -78 65q-24 16 -25 16q-7 2 3 9q13 9 35 19q7 3 13 3q5 0 17 -18zM97 887q0 3 7 8q22 13 30 13q4 0 7 -4q16 -22 46.5 -36.5t68.5 -14.5q80 0 129 49q9 9 13 9q8 0 -1 -14l-3 -5q-59 -73 -162 -73q-59 0 -102 30
q-13 8 -23 20t-10 18z" />
    <glyph glyph-name="uni02D80301.cap" unicode="&#x14a;" 
d="M97 887q0 3 7 8q22 13 30 13q4 0 7 -4q16 -22 46.5 -36.5t68.5 -14.5q80 0 129 49q9 9 13 9q8 0 -1 -14l-3 -5q-59 -73 -162 -73q-59 0 -102 30q-13 8 -23 20t-10 18zM283 1004q12 18 17 18q4 0 12 -3q24 -11 36 -19q9 -6 3 -9q-1 0 -25 -16q-34 -21 -78 -65
q-10 -9 -15 -9q-2 0 -3 1.5t-0.5 3.5t1.5 4q2 7 23 44.5t29 49.5z" />
    <glyph glyph-name="uni0302" unicode="&#x14b;" horiz-adv-x="0" 
d="M7 848q3 0 17 -7q3 -2 32 -21.5t54 -37t32 -22.5q11 -8 11 -11q0 -2 -5 -5l-35 -22q-6 -4 -10 0q-47 41 -98 68q-7 4 -12 4q-4 0 -14 -5q-29 -16 -107 -62q-13 -8 -19 -8q-9 0 -3 7q1 2 5 5q65 49 135 108q14 9 17 9z" />
    <glyph glyph-name="Omacron" unicode="&#x14c;" horiz-adv-x="915" 
d="M452 -17q-79 0 -145 23.5t-110 62.5t-75 91t-44.5 106t-13.5 110q0 64 23.5 130t69 125.5t124.5 97.5t177 38q172 0 282.5 -101.5t110.5 -273.5t-111 -290.5t-288 -118.5zM479 21q31 0 63.5 7.5t72 30t69.5 58.5t50.5 100t20.5 147q0 172 -89 270.5t-215 98.5
q-130 0 -211 -85t-81 -244q0 -172 91 -277.5t229 -105.5zM325 901h265q12 0 8 -10l-8 -27q-2 -6 -9 -6h-265q-6 0 -8.5 1.5t-1.5 5.5l8 30q1 6 11 6z" />
    <glyph glyph-name="omacron" unicode="&#x14d;" horiz-adv-x="810" 
d="M400 -14q-88 0 -156.5 30.5t-108.5 80t-60 106.5t-20 117q0 42 12.5 86t40 88.5t67 79t99.5 56.5t131 22q152 0 250.5 -86t98.5 -233q0 -146 -98.5 -246.5t-255.5 -100.5zM425 20q25 0 51 5t60.5 23.5t60.5 48t44.5 84.5t18.5 127q0 145 -76.5 229t-184.5 84
q-111 0 -181 -70t-70 -205q0 -147 75.5 -236.5t201.5 -89.5zM277 778h265q12 0 8 -11l-8 -24q-2 -6 -9 -6h-265q-6 0 -8.5 1.5t-1.5 5.5l8 28q1 6 11 6z" />
    <glyph glyph-name="uni02C60300.cap" unicode="&#x14e;" 
d="M372 1015q12 6 17 5q6 -2 25 -23q29 -33 71 -95q6 -8 4 -12q-1 -2 -14 4q-34 28 -96 68q-30 17 -34 18q-10 2 -1 11q13 14 28 24zM256 927q5 0 18 -9q50 -30 113 -75q11 -8 11 -12q0 -3 -4 -6l-28 -19q-6 -3 -10 1q-19 16 -51.5 38t-46.5 29q-7 5 -12 5q-3 0 -15 -6
q-37 -19 -102 -60q-16 -9 -22 -9q-11 0 1 12q2 1 4 3q5 5 64 49t64 49q13 10 16 10z" />
    <glyph glyph-name="uni02C60309.cap" unicode="&#x14f;" 
d="M415 1040q30 0 49 -15.5t19 -41.5q0 -49 -88 -80q-16 -5 -16 3q0 4 9 9q45 32 45 61q0 33 -39 33q-33 0 -56 -18q-10 -5 -10 1q0 5 4 9q34 39 83 39zM256 927q5 0 18 -9q50 -30 113 -75q11 -8 11 -12q0 -3 -4 -6l-28 -19q-6 -3 -10 1q-19 16 -51.5 38t-46.5 29
q-7 5 -12 5q-3 0 -15 -6q-37 -19 -102 -60q-16 -9 -22 -9q-11 0 1 12q2 1 4 3q5 5 64 49t64 49q13 10 16 10z" />
    <glyph glyph-name="Ohungarumlaut" unicode="&#x150;" horiz-adv-x="915" 
d="M452 -17q-79 0 -145 23.5t-110 62.5t-75 91t-44.5 106t-13.5 110q0 64 23.5 130t69 125.5t124.5 97.5t177 38q172 0 282.5 -101.5t110.5 -273.5t-111 -290.5t-288 -118.5zM479 21q31 0 63.5 7.5t72 30t69.5 58.5t50.5 100t20.5 147q0 172 -89 270.5t-215 98.5
q-130 0 -211 -85t-81 -244q0 -172 91 -277.5t229 -105.5zM409 936q15 19 19 19q6 0 14 -3q34 -15 44 -22q3 -2 4 -3.5t1 -2.5t-2 -2q-14 -7 -28 -16q-62 -39 -101 -75q-8 -9 -16 -9q-6 0 -2 8q3 7 30.5 50t36.5 56zM594 937q16 18 19 18q8 0 15 -4q23 -10 43 -23
q10 -8 1 -11q-6 -1 -29 -13q-70 -40 -108 -74q-9 -8 -15 -8q-7 0 -2 7q3 16 76 108z" />
    <glyph glyph-name="ohungarumlaut" unicode="&#x151;" horiz-adv-x="810" 
d="M400 -14q-88 0 -156.5 30.5t-108.5 80t-60 106.5t-20 117q0 42 12.5 86t40 88.5t67 79t99.5 56.5t131 22q152 0 250.5 -86t98.5 -233q0 -146 -98.5 -246.5t-255.5 -100.5zM425 20q25 0 51 5t60.5 23.5t60.5 48t44.5 84.5t18.5 127q0 145 -76.5 229t-184.5 84
q-111 0 -181 -70t-70 -205q0 -147 75.5 -236.5t201.5 -89.5zM357 816q15 19 19 19q6 0 14 -3q34 -15 44 -22q3 -2 4 -3.5t1 -2.5t-2 -2q-14 -7 -28 -16q-62 -39 -101 -75q-8 -9 -16 -9q-6 0 -2 8q3 7 30.5 50t36.5 56zM542 817q16 18 19 18q8 0 15 -4q23 -10 43 -23
q10 -8 1 -11q-6 -1 -29 -13q-70 -40 -108 -74q-9 -8 -15 -8q-7 0 -2 7q3 16 76 108z" />
    <glyph glyph-name="OE" unicode="&#x152;" horiz-adv-x="1187" 
d="M159 404q0 -172 91 -277.5t228 -105.5q31 0 63.5 7.5t72.5 30t70 58.5t50.5 100t20.5 147q0 172 -89.5 270.5t-215.5 98.5q-130 0 -210.5 -85t-80.5 -244zM797 750q206 0 229 1q37 2 46 6q8 4 11 4q4 0 4 -9q0 -2 -3.5 -16.5t-4.5 -30.5q0 -4 -1 -15t-1.5 -22t-1.5 -23
q-2 -17 -8 -17q-8 0 -8 13q0 20 -5 33q-9 30 -72 37q-26 3 -141 3q-6 0 -6 -10v-276q0 -10 6 -10q140 0 163 2q38 3 50 17q8 10 12 10q5 0 5 -8q0 -2 -1.5 -9t-3.5 -20t-3 -27q-2 -18 -3 -42.5t-1 -25.5q-1 -15 -7 -15q-7 0 -7 16t-4 28q-7 28 -52 33t-147 5q-7 0 -7 -7v-88
v-51.5v-76.5v-43q2 -33 8.5 -49.5t24.5 -23.5q22 -9 87 -9q60 0 90 9q23 7 34 23.5t17 50.5q3 15 9 15t6 -15q0 -7 -5 -45t-8 -52q-5 -19 -14 -22.5t-40 -3.5q-33 0 -150 3q-14 0 -45.5 1.5t-52.5 1.5q-5 0 -16 -1.5t-17 -1.5q-10 0 -10 7q5 50 5 121q-42 -47 -70 -68
q-98 -74 -236 -74q-98 0 -175 35.5t-122 93.5t-68 125t-23 138q0 52 14.5 104.5t46 104.5t77 92.5t113.5 65.5t149 25q189 0 288 -125q4 -6 4 0q0 36 -0.5 59.5t-1 32.5t-0.5 10q0 9 10 9q4 0 15.5 -1.5t17.5 -1.5z" />
    <glyph glyph-name="oe" unicode="&#x153;" horiz-adv-x="1048" 
d="M148 346q0 -152 78.5 -239t196.5 -87q29 0 58.5 6.5t62.5 26.5t58.5 50t42 83t16.5 120q0 145 -76.5 230t-187.5 85q-109 0 -179 -70.5t-70 -204.5zM701 0q-21 0 -36 -3q-5 -1 -5 6q4 16 4 88q-2 -2 -16.5 -14t-26.5 -22t-36 -23.5t-49 -22.5t-61 -16t-75 -7
q-87 0 -155.5 30t-108.5 79.5t-60.5 106.5t-20.5 118q0 56 21 112t62 106t112 82t160 32q159 1 248 -96h5q0 11 -0.5 29t-1 31t-0.5 15q0 8 8 8q4 0 15 -1t16 -1q185 0 205 1q32 2 39 6q8 4 12 4q3 0 3 -7q0 -2 -3.5 -17.5t-4.5 -29.5q0 -4 -1 -21.5t-2 -28.5q0 -15 -7 -15
q-5 0 -7 11q-3 23 -5 27q-5 16 -18.5 23.5t-48.5 9.5q-26 2 -114 2q-5 0 -5 -8v-227q0 -10 6 -10q103 0 135 3q36 2 46 15q5 8 11 8q4 0 4 -6q0 -2 -1 -9t-3 -19.5t-3 -24.5q-2 -17 -3 -38.5t-1 -22.5q-1 -11 -7 -11t-6 13q0 12 -3 24q-8 27 -48 30q-46 4 -120 4q-7 0 -7 -7
v-73v-43v-59.5v-33.5q1 -54 28 -65q19 -9 73 -9q55 0 76 6t29.5 20.5t15.5 45.5q3 14 9 14t6 -15q0 -25 -11 -87q-3 -15 -11 -18.5t-33 -3.5q-37 0 -76 1t-53 1q-8 0 -40.5 1.5t-54.5 1.5z" />
    <glyph glyph-name="Racute" unicode="&#x154;" horiz-adv-x="754" 
d="M178 287v176q0 184 -2 216q-2 27 -10.5 39.5t-32.5 17.5q-12 3 -34 3q-8 0 -8 6q0 8 16 8q20 0 47 -0.5t46 -1.5t20 -1q3 0 51.5 1.5t66.5 1.5q122 0 183 -44q25 -18 47 -54t22 -82q0 -119 -121 -231q159 -204 208 -256q59 -62 122 -72q19 -3 39 -3q9 0 9 -6q0 -8 -24 -8
h-71q-72 0 -107 19q-20 11 -44.5 36t-36.5 40.5t-54 70.5q-23 31 -62 84.5t-47 63.5q-6 6 -13 6l-123 2q-7 0 -7 -8v-24q0 -175 5 -217q3 -25 10.5 -38.5t28.5 -16.5q28 -4 45 -4q8 0 8 -6q0 -8 -16 -8q-24 0 -53.5 0.5t-49 1.5t-20.5 1h-7q-7 -1 -18 -1.5t-23 -0.5
t-25 -0.5t-21 -0.5q-16 0 -16 8q0 6 8 6q12 0 30 4q22 4 29 55q5 42 5 217zM258 703v-327q0 -8 7 -12q27 -16 105 -16q48 0 75 19q61 42 61 154q0 94 -46.5 147t-126.5 53q-47 0 -67 -6q-8 -3 -8 -12zM480 941q22 -20 32 -40q6 -13 -4 -13q-20 0 -41 -8q-53 -19 -142 -61
q-14 -6 -16 -6q-6 0 -6 4t8 12q86 80 123 104q22 16 29 16q9 0 17 -8z" />
    <glyph glyph-name="racute" unicode="&#x155;" horiz-adv-x="667" 
d="M156 244v150q0 156 -2 183q-2 22 -10 33t-30 15q-12 2 -24 2q-11 0 -11 6q0 7 12 7t27 -0.5t28.5 -1t24.5 -0.5h19l7 -1q2 0 45.5 1.5t59.5 1.5q110 0 164 -38q60 -44 60 -122q0 -103 -106 -189q133 -164 184 -217q52 -53 106 -61q14 -2 31 -2q11 0 11 -7t-18 -7h-70
q-62 0 -91 12q-9 4 -17 9t-17 13.5t-15.5 15t-17.5 19.5t-17 20.5t-19.5 25.5t-20.5 27q-22 28 -56.5 72t-39.5 51q-6 6 -12 6l-103 1q-5 0 -5 -5v-14q0 -153 5 -189q2 -15 4 -23t10.5 -15.5t24.5 -9.5q20 -2 29 -2q13 0 13 -6q0 -8 -14 -8q-23 0 -50 0.5t-45 1.5l-17 1
q-7 0 -39.5 -1.5t-47.5 -1.5q-14 0 -14 8q0 6 12 6q14 0 22 2q22 4 26 38q4 29 4 193zM233 595v-272q0 -9 5 -12q24 -13 89 -13q44 0 67 15q50 32 50 127q0 81 -39.5 125t-107.5 44q-38 0 -58 -5q-6 -2 -6 -9zM431 840q22 -18 33 -35q8 -12 -3 -12q-1 0 -7.5 -1.5t-15 -4
t-14.5 -5.5q-58 -27 -128 -69l-3 -1q-3 -2 -5.5 -3.5t-5.5 -2.5t-5 -0.5t-2 3.5q0 5 7 12q97 101 106 108q20 17 26 17q10 0 17 -6z" />
    <glyph glyph-name="uni0156" unicode="&#x156;" horiz-adv-x="754" 
d="M178 287v176q0 184 -2 216q-2 27 -10.5 39.5t-32.5 17.5q-12 3 -34 3q-8 0 -8 6q0 8 16 8q20 0 47 -0.5t46 -1.5t20 -1q3 0 51.5 1.5t66.5 1.5q122 0 183 -44q25 -18 47 -54t22 -82q0 -119 -121 -231q159 -204 208 -256q59 -62 122 -72q19 -3 39 -3q9 0 9 -6q0 -8 -24 -8
h-71q-72 0 -107 19q-20 11 -44.5 36t-36.5 40.5t-54 70.5q-23 31 -62 84.5t-47 63.5q-6 6 -13 6l-123 2q-7 0 -7 -8v-24q0 -175 5 -217q3 -25 10.5 -38.5t28.5 -16.5q28 -4 45 -4q8 0 8 -6q0 -8 -16 -8q-24 0 -53.5 0.5t-49 1.5t-20.5 1h-7q-7 -1 -18 -1.5t-23 -0.5
t-25 -0.5t-21 -0.5q-16 0 -16 8q0 6 8 6q12 0 30 4q22 4 29 55q5 42 5 217zM258 703v-327q0 -8 7 -12q27 -16 105 -16q48 0 75 19q61 42 61 154q0 94 -46.5 147t-126.5 53q-47 0 -67 -6q-8 -3 -8 -12zM367 -117q0 9 23 28.5t44 19.5q11 0 21.5 -17.5t10.5 -42.5
q0 -29 -19 -64.5t-59 -65.5q-27 -21 -27 -7q0 5 7 12q41 40 41 78q0 26 -38 51q-4 3 -4 8z" />
    <glyph glyph-name="uni0157" unicode="&#x157;" horiz-adv-x="667" 
d="M156 244v150q0 156 -2 183q-2 22 -10 33t-30 15q-12 2 -24 2q-11 0 -11 6q0 7 12 7t27 -0.5t28.5 -1t24.5 -0.5h19l7 -1q2 0 45.5 1.5t59.5 1.5q110 0 164 -38q60 -44 60 -122q0 -103 -106 -189q133 -164 184 -217q52 -53 106 -61q14 -2 31 -2q11 0 11 -7t-18 -7h-70
q-62 0 -91 12q-9 4 -17 9t-17 13.5t-15.5 15t-17.5 19.5t-17 20.5t-19.5 25.5t-20.5 27q-22 28 -56.5 72t-39.5 51q-6 6 -12 6l-103 1q-5 0 -5 -5v-14q0 -153 5 -189q2 -15 4 -23t10.5 -15.5t24.5 -9.5q20 -2 29 -2q13 0 13 -6q0 -8 -14 -8q-23 0 -50 0.5t-45 1.5l-17 1
q-7 0 -39.5 -1.5t-47.5 -1.5q-14 0 -14 8q0 6 12 6q14 0 22 2q22 4 26 38q4 29 4 193zM233 595v-272q0 -9 5 -12q24 -13 89 -13q44 0 67 15q50 32 50 127q0 81 -39.5 125t-107.5 44q-38 0 -58 -5q-6 -2 -6 -9zM332 -107q0 9 23 28.5t44 19.5q11 0 21.5 -17.5t10.5 -42.5
q0 -29 -19 -64.5t-59 -65.5q-27 -21 -27 -7q0 5 7 12q41 40 41 78q0 26 -38 51q-4 3 -4 8z" />
    <glyph glyph-name="Rcaron" unicode="&#x158;" horiz-adv-x="754" 
d="M178 287v176q0 184 -2 216q-2 27 -10.5 39.5t-32.5 17.5q-12 3 -34 3q-8 0 -8 6q0 8 16 8q20 0 47 -0.5t46 -1.5t20 -1q3 0 51.5 1.5t66.5 1.5q122 0 183 -44q25 -18 47 -54t22 -82q0 -119 -121 -231q159 -204 208 -256q59 -62 122 -72q19 -3 39 -3q9 0 9 -6q0 -8 -24 -8
h-71q-72 0 -107 19q-20 11 -44.5 36t-36.5 40.5t-54 70.5q-23 31 -62 84.5t-47 63.5q-6 6 -13 6l-123 2q-7 0 -7 -8v-24q0 -175 5 -217q3 -25 10.5 -38.5t28.5 -16.5q28 -4 45 -4q8 0 8 -6q0 -8 -16 -8q-24 0 -53.5 0.5t-49 1.5t-20.5 1h-7q-7 -1 -18 -1.5t-23 -0.5
t-25 -0.5t-21 -0.5q-16 0 -16 8q0 6 8 6q12 0 30 4q22 4 29 55q5 42 5 217zM258 703v-327q0 -8 7 -12q27 -16 105 -16q48 0 75 19q61 42 61 154q0 94 -46.5 147t-126.5 53q-47 0 -67 -6q-8 -3 -8 -12zM343 816q-6 0 -19 8q-5 3 -35.5 23t-57.5 38t-35 24q-12 9 -12 12t5 6
l32 21q6 4 11 0q58 -49 109 -76q8 -5 12 -5t16 6q46 25 116 68q15 9 21 9q9 0 4 -8q-2 -3 -6 -6q-95 -69 -143 -110q-14 -10 -18 -10z" />
    <glyph glyph-name="rcaron" unicode="&#x159;" horiz-adv-x="667" 
d="M156 244v150q0 156 -2 183q-2 22 -10 33t-30 15q-12 2 -24 2q-11 0 -11 6q0 7 12 7t27 -0.5t28.5 -1t24.5 -0.5h19l7 -1q2 0 45.5 1.5t59.5 1.5q110 0 164 -38q60 -44 60 -122q0 -103 -106 -189q133 -164 184 -217q52 -53 106 -61q14 -2 31 -2q11 0 11 -7t-18 -7h-70
q-62 0 -91 12q-9 4 -17 9t-17 13.5t-15.5 15t-17.5 19.5t-17 20.5t-19.5 25.5t-20.5 27q-22 28 -56.5 72t-39.5 51q-6 6 -12 6l-103 1q-5 0 -5 -5v-14q0 -153 5 -189q2 -15 4 -23t10.5 -15.5t24.5 -9.5q20 -2 29 -2q13 0 13 -6q0 -8 -14 -8q-23 0 -50 0.5t-45 1.5l-17 1
q-7 0 -39.5 -1.5t-47.5 -1.5q-14 0 -14 8q0 6 12 6q14 0 22 2q22 4 26 38q4 29 4 193zM233 595v-272q0 -9 5 -12q24 -13 89 -13q44 0 67 15q50 32 50 127q0 81 -39.5 125t-107.5 44q-38 0 -58 -5q-6 -2 -6 -9zM314 713q-3 0 -17 7q-4 3 -32 22t-53 36t-32 22q-11 8 -11 11
q0 2 5 5l35 22q6 4 10 0q48 -42 99 -69q7 -4 12 -4q4 0 14 5q29 16 107 62q11 8 19 8q9 0 3 -7q-1 -2 -5 -5q-85 -62 -137 -106q-14 -9 -17 -9z" />
    <glyph glyph-name="Sacute" unicode="&#x15a;" horiz-adv-x="570" 
d="M248 -17q-79 0 -134 27q-10 5 -12.5 11t-2.5 27q0 26 5 106q1 16 8 16t7 -11q0 -23 3 -37q11 -52 52 -77t96 -25q68 0 105.5 40t37.5 93q0 51 -24.5 88t-90.5 92l-45 37q-75 61 -102.5 111t-27.5 106q0 81 56 130.5t151 49.5q51 0 93 -10q24 -5 35 -5q10 0 10 -7l-1 -13
q-1 -13 -2 -38t-1 -55q0 -23 -7 -23q-6 0 -8 13q-3 31 -13 50q-29 53 -125 53q-53 0 -88 -31.5t-35 -84.5q0 -43 25 -77.5t97 -90.5l28 -22q85 -67 115.5 -119t30.5 -116q0 -40 -19.5 -86.5t-65.5 -79.5q-60 -42 -151 -42zM423 959q22 -20 32 -40q7 -13 -4 -13q-20 0 -41 -8
q-53 -19 -142 -61q-14 -6 -16 -6q-6 0 -6 4t8 12q86 80 123 104q22 16 29 16q9 0 17 -8z" />
    <glyph glyph-name="sacute" unicode="&#x15b;" horiz-adv-x="512" 
d="M224 -14q-70 0 -119 22q-9 4 -11 9.5t-2 24.5q0 38 4 94q2 14 8 14q7 0 7 -10q0 -18 3 -30q9 -46 45.5 -68t84.5 -22q58 0 90.5 32.5t32.5 74.5t-21.5 74t-77.5 77l-40 31q-68 54 -92 97t-24 92q0 69 50.5 111.5t134.5 42.5q46 0 81 -8q24 -5 34 -5q9 0 9 -6l-1 -13
q-1 -12 -2 -35t-1 -49q0 -21 -7 -21q-5 0 -7 11q-3 31 -12 47q-26 47 -112 47q-46 0 -75.5 -26t-29.5 -70q0 -35 22 -63t85 -76l23 -18q75 -58 103 -103t28 -101q0 -35 -17.5 -74.5t-58.5 -67.5q-55 -35 -135 -35zM381 842q22 -18 33 -35q8 -12 -3 -12q-1 0 -7.5 -1.5
t-15 -4t-14.5 -5.5q-58 -27 -128 -69l-3 -1q-3 -2 -5.5 -3.5t-5.5 -2.5t-5 -0.5t-2 3.5q0 5 7 12q97 101 106 108q20 17 26 17q10 0 17 -6z" />
    <glyph glyph-name="Scircumflex" unicode="&#x15c;" horiz-adv-x="570" 
d="M248 -17q-79 0 -134 27q-10 5 -12.5 11t-2.5 27q0 26 5 106q1 16 8 16t7 -11q0 -23 3 -37q11 -52 52 -77t96 -25q68 0 105.5 40t37.5 93q0 51 -24.5 88t-90.5 92l-45 37q-75 61 -102.5 111t-27.5 106q0 81 56 130.5t151 49.5q51 0 93 -10q24 -5 35 -5q10 0 10 -7l-1 -13
q-1 -13 -2 -38t-1 -55q0 -23 -7 -23q-6 0 -8 13q-3 31 -13 50q-29 53 -125 53q-53 0 -88 -31.5t-35 -84.5q0 -43 25 -77.5t97 -90.5l28 -22q85 -67 115.5 -119t30.5 -116q0 -40 -19.5 -86.5t-65.5 -79.5q-60 -42 -151 -42zM311 963q6 0 19 -8q111 -74 129 -87q12 -9 12 -12
t-5 -6l-34 -19q-6 -4 -12 0q-55 44 -106 71q-8 5 -11 5l-16 -7q-70 -35 -119 -63q-16 -9 -21 -9q-8 0 -4 9q2 3 7 7q120 89 143 109q14 10 18 10z" />
    <glyph glyph-name="scircumflex" unicode="&#x15d;" horiz-adv-x="512" 
d="M224 -14q-70 0 -119 22q-9 4 -11 9.5t-2 24.5q0 38 4 94q2 14 8 14q7 0 7 -10q0 -18 3 -30q9 -46 45.5 -68t84.5 -22q58 0 90.5 32.5t32.5 74.5t-21.5 74t-77.5 77l-40 31q-68 54 -92 97t-24 92q0 69 50.5 111.5t134.5 42.5q46 0 81 -8q24 -5 34 -5q9 0 9 -6l-1 -13
q-1 -12 -2 -35t-1 -49q0 -21 -7 -21q-5 0 -7 11q-3 31 -12 47q-26 47 -112 47q-46 0 -75.5 -26t-29.5 -70q0 -35 22 -63t85 -76l23 -18q75 -58 103 -103t28 -101q0 -35 -17.5 -74.5t-58.5 -67.5q-55 -35 -135 -35zM279 839q3 0 17 -7q3 -2 32 -21.5t54 -37t32 -22.5
q11 -8 11 -11q0 -2 -5 -5l-35 -22q-6 -4 -10 0q-47 41 -98 68q-7 4 -12 4q-4 0 -14 -5q-29 -16 -107 -62q-13 -8 -19 -8q-9 0 -3 7q1 2 5 5q65 49 135 108q13 9 17 9z" />
    <glyph glyph-name="uni015E" unicode="&#x15e;" horiz-adv-x="570" 
d="M310 448l28 -22q85 -67 115.5 -119t30.5 -116q0 -40 -19.5 -86.5t-65.5 -79.5q-39 -27 -88 -36q-11 -10 -30.5 -27.5t-23.5 -20.5q105 -16 105 -77q0 -40 -44.5 -64.5t-106.5 -24.5q-13 0 -13 8q0 4 19 8q77 15 77 66q0 50 -79 62q-11 2 -11 7t12 13l53 45q-7 -1 -21 -1
q-79 0 -134 27q-10 5 -12.5 11t-2.5 27q0 26 5 106q1 16 8 16t7 -11q0 -23 3 -37q11 -52 52 -77t96 -25q68 0 105.5 40t37.5 93q0 51 -24.5 88t-90.5 92l-45 37q-75 61 -102.5 111t-27.5 106q0 81 56 130.5t151 49.5q51 0 93 -10q24 -5 35 -5q10 0 10 -7l-1 -13
q-1 -13 -2 -38t-1 -55q0 -23 -7 -23q-6 0 -8 13q-3 31 -13 50q-29 53 -125 53q-53 0 -88 -31.5t-35 -84.5q0 -43 25 -77.5t97 -90.5z" />
    <glyph glyph-name="uni015F" unicode="&#x15f;" horiz-adv-x="512" 
d="M281 385l23 -18q75 -58 103 -103t28 -101q0 -35 -17.5 -74.5t-58.5 -67.5q-31 -19 -72 -29q-10 -9 -31 -27.5t-27 -23.5q105 -16 105 -77q0 -40 -44.5 -64.5t-106.5 -24.5q-13 0 -13 8q0 4 19 8q77 15 77 66q0 50 -79 62q-11 2 -11 7t12 13l56 48q-7 -1 -20 -1
q-70 0 -119 22q-9 4 -11 9.5t-2 24.5q0 38 4 94q2 14 8 14q7 0 7 -10q0 -18 3 -30q9 -46 45.5 -68t84.5 -22q58 0 90.5 32.5t32.5 74.5t-21.5 74t-77.5 77l-40 31q-68 54 -92 97t-24 92q0 69 50.5 111.5t134.5 42.5q46 0 81 -8q24 -5 34 -5q9 0 9 -6l-1 -13q-1 -12 -2 -35
t-1 -49q0 -21 -7 -21q-5 0 -7 11q-3 31 -12 47q-26 47 -112 47q-46 0 -75.5 -26t-29.5 -70q0 -35 22 -63t85 -76z" />
    <glyph glyph-name="Scaron" unicode="&#x160;" horiz-adv-x="570" 
d="M248 -17q-79 0 -134 27q-10 5 -12.5 11t-2.5 27q0 26 5 106q1 16 8 16t7 -11q0 -23 3 -37q11 -52 52 -77t96 -25q68 0 105.5 40t37.5 93q0 51 -24.5 88t-90.5 92l-45 37q-75 61 -102.5 111t-27.5 106q0 81 56 130.5t151 49.5q51 0 93 -10q24 -5 35 -5q10 0 10 -7l-1 -13
q-1 -13 -2 -38t-1 -55q0 -23 -7 -23q-6 0 -8 13q-3 31 -13 50q-29 53 -125 53q-53 0 -88 -31.5t-35 -84.5q0 -43 25 -77.5t97 -90.5l28 -22q85 -67 115.5 -119t30.5 -116q0 -40 -19.5 -86.5t-65.5 -79.5q-60 -42 -151 -42zM310 826q-6 0 -19 8q-5 3 -35.5 23t-57.5 38
t-35 24q-12 9 -12 12t5 6l32 21q6 4 11 0q58 -49 109 -76q8 -5 12 -5t16 6q46 25 116 68q15 9 21 9q9 0 4 -8q-2 -3 -6 -6q-95 -69 -143 -110q-14 -10 -18 -10z" />
    <glyph glyph-name="scaron" unicode="&#x161;" horiz-adv-x="512" 
d="M224 -14q-70 0 -119 22q-9 4 -11 9.5t-2 24.5q0 38 4 94q2 14 8 14q7 0 7 -10q0 -18 3 -30q9 -46 45.5 -68t84.5 -22q58 0 90.5 32.5t32.5 74.5t-21.5 74t-77.5 77l-40 31q-68 54 -92 97t-24 92q0 69 50.5 111.5t134.5 42.5q46 0 81 -8q24 -5 34 -5q9 0 9 -6l-1 -13
q-1 -12 -2 -35t-1 -49q0 -21 -7 -21q-5 0 -7 11q-3 31 -12 47q-26 47 -112 47q-46 0 -75.5 -26t-29.5 -70q0 -35 22 -63t85 -76l23 -18q75 -58 103 -103t28 -101q0 -35 -17.5 -74.5t-58.5 -67.5q-55 -35 -135 -35zM274 713q-3 0 -17 7q-4 3 -32 22t-53 36t-32 22
q-11 8 -11 11q0 2 5 5l35 22q6 4 10 0q48 -42 99 -69q7 -4 12 -4q4 0 14 5q29 16 107 62q11 8 19 8q9 0 3 -7q-1 -2 -5 -5q-85 -62 -137 -106q-13 -9 -17 -9z" />
    <glyph glyph-name="uni0162" unicode="&#x162;" horiz-adv-x="691" 
d="M180 750h375q44 0 71 5q6 1 12.5 2t10 2t5.5 1q5 0 5 -12q0 -17 -1.5 -62t-1.5 -48q0 -13 -7 -13t-8 17q0 2 -0.5 5.5t-0.5 5.5q-5 53 -123 55q-21 0 -63 1t-63 1v-423q0 -175 5 -217q3 -25 10.5 -38.5t28.5 -16.5q28 -4 45 -4q8 0 8 -6q0 -8 -16 -8q-13 0 -39 0.5
t-37 0.5q-49 -42 -65 -57q105 -16 105 -77q0 -40 -44.5 -64.5t-106.5 -24.5q-13 0 -13 8q0 4 19 8q77 15 77 66q0 50 -79 62q-11 2 -11 7t12 13l71 61h-12q-1 0 -19.5 -0.5t-42 -1.5t-36.5 -1q-16 0 -16 8q0 6 8 6q12 0 30 4q22 4 29 55q5 42 5 217v423q-24 0 -74 -1t-74 -1
q-47 -1 -68.5 -7.5t-33.5 -24.5q-11 -17 -17 -31q-4 -10 -10 -10q-5 0 -5 9q0 16 22 104q6 19 10 19q2 0 15 -5.5t29 -6.5q48 -5 79 -5z" />
    <glyph glyph-name="uni0163" unicode="&#x163;" horiz-adv-x="612" 
d="M158 637h328q49 0 72 5q17 4 19 4q6 0 6 -9q0 -17 -1 -59t-1 -43q0 -12 -7 -12t-7 12q0 4 -1 14q-3 31 -23.5 40.5t-94.5 10.5q-20 0 -52.5 0.5t-45.5 0.5v-357q0 -139 5 -185q2 -15 3.5 -21.5t8 -13t18.5 -9.5q16 -4 39 -4q12 0 12 -6q0 -8 -13 -8q-11 0 -33.5 0.5
t-32.5 0.5q-10 -9 -34.5 -30.5t-30.5 -26.5q105 -16 105 -77q0 -40 -44.5 -64.5t-106.5 -24.5q-13 0 -13 8q0 4 19 8q77 15 77 66q0 50 -79 62q-11 2 -11 7t12 13l71 60q-7 1 -13 1q-1 0 -18 -0.5t-38.5 -1.5t-32.5 -1q-15 0 -15 7t11 7q14 0 22 1q14 2 18.5 12t7.5 37
q4 36 4 183v357q-86 0 -126 -1q-45 -1 -62.5 -8t-29.5 -24q-7 -11 -15 -31q-3 -8 -9 -8q-5 0 -5 9q-1 5 20 99q4 16 9 16q3 0 18.5 -5t25.5 -6q44 -5 64 -5z" />
    <glyph glyph-name="Tcaron" unicode="&#x164;" horiz-adv-x="691" 
d="M391 710v-423q0 -175 5 -217q3 -25 10.5 -38.5t28.5 -16.5q28 -4 45 -4q8 0 8 -6q0 -8 -16 -8q-24 0 -53.5 0.5t-49 1.5t-20.5 1t-19.5 -0.5t-42 -1.5t-36.5 -1q-16 0 -16 8q0 6 8 6q12 0 30 4q22 4 29 55q5 42 5 217v423q-24 0 -74 -1t-74 -1q-47 -1 -68.5 -7.5
t-33.5 -24.5q-11 -17 -17 -31q-4 -10 -10 -10q-5 0 -5 9q0 16 22 104q6 19 10 19q2 0 15 -5.5t29 -6.5q48 -5 79 -5h375q44 0 71 5q6 1 12.5 2t10 2t5.5 1q5 0 5 -12q0 -17 -1.5 -62t-1.5 -48q0 -13 -7 -13t-8 17q0 2 -0.5 5.5t-0.5 5.5q-5 53 -123 55q-21 0 -63 1t-63 1z
M342 812q-6 0 -19 8q-5 3 -35.5 23t-57.5 38t-35 24q-12 9 -12 12t5 6l32 21q6 4 11 0q58 -49 109 -76q8 -5 12 -5t16 6q46 25 116 68q15 9 21 9q9 0 4 -8q-2 -3 -6 -6q-95 -69 -143 -110q-14 -10 -18 -10z" />
    <glyph glyph-name="tcaron" unicode="&#x165;" horiz-adv-x="612" 
d="M350 601v-357q0 -139 5 -185q2 -15 3.5 -21.5t8 -13t18.5 -9.5q16 -4 39 -4q12 0 12 -6q0 -8 -13 -8q-23 0 -50 0.5t-45 1.5l-19 1q-1 0 -18 -0.5t-38.5 -1.5t-32.5 -1q-15 0 -15 7t11 7q14 0 22 1q14 2 18.5 12t7.5 37q4 36 4 183v357q-86 0 -126 -1q-45 -1 -62.5 -8
t-29.5 -24q-7 -11 -15 -31q-3 -8 -9 -8q-5 0 -5 9q-1 5 20 99q4 16 9 16q3 0 18.5 -5t25.5 -6q44 -5 64 -5h328q49 0 72 5q17 4 19 4q6 0 6 -9q0 -17 -1 -59t-1 -43q0 -12 -7 -12t-7 12q0 4 -1 14q-3 31 -23.5 40.5t-94.5 10.5q-20 0 -52.5 0.5t-45.5 0.5zM301 704
q-3 0 -17 7q-4 3 -32 22t-53 36t-32 22q-11 8 -11 11q0 2 5 5l35 22q6 4 10 0q48 -42 99 -69q7 -4 12 -4q4 0 14 5q29 16 107 62q11 8 19 8q9 0 3 -7q-1 -2 -5 -5q-85 -62 -137 -106q-14 -9 -17 -9z" />
    <glyph glyph-name="uni02C60303.cap" unicode="&#x166;" 
d="M314 944q-19 0 -71.5 17.5t-70.5 17.5q-36 0 -65 -27q-9 -8 -12 -8q-2 0 -2.5 1.5t0 4.5t3.5 6q54 60 89 60q18 0 84 -20q42 -14 58 -14q22 0 35 5.5t31 21.5q9 7 11 7t2.5 -2t-0.5 -5t-3 -6q-15 -22 -42 -40.5t-47 -18.5zM254 907q5 0 17 -6q110 -55 119 -60
q12 -6 12 -9t-4 -5l-29 -20q-5 -4 -10 0q-54 34 -108 54q-8 3 -13 3q-4 0 -15 -4q-30 -12 -102 -47q-16 -8 -24 -8t-1 8l8 7q46 30 132 79q12 8 18 8z" />
    <glyph glyph-name="uni00200323.cap" unicode="&#x167;" 
d="M249 -168q-20 0 -31 12.5t-11 29.5q0 16 11.5 29t30.5 13q18 0 30.5 -11.5t12.5 -29.5q0 -17 -12 -30t-31 -13z" />
    <glyph glyph-name="Utilde" unicode="&#x168;" horiz-adv-x="830" 
d="M207 463v-140q0 -100 19.5 -156.5t55.5 -90.5q34 -32 69 -43.5t82 -11.5q45 0 87.5 19.5t69.5 52.5q58 72 58 245v125q0 184 -2 216q-2 27 -10.5 39.5t-32.5 17.5q-12 3 -34 3q-8 0 -8 6q0 8 16 8q20 0 45 -0.5t42.5 -1.5t18.5 -1t33.5 1.5t50.5 1.5q16 0 16 -8
q0 -6 -8 -6q-7 0 -25 -3q-20 -4 -27.5 -17t-9.5 -40q-2 -32 -2 -216v-107q0 -99 -19 -175t-73 -124q-83 -74 -206 -74q-131 0 -206 71q-87 83 -87 263v146q0 184 -2 216q-2 27 -10.5 39.5t-32.5 17.5q-12 3 -34 3q-8 0 -8 6q0 8 16 8q27 0 71 -1l44 -2q2 0 41.5 1.5
t57.5 1.5q16 0 16 -8q0 -6 -8 -6q-7 0 -25 -3q-19 -3 -27 -16t-10 -41q-2 -32 -2 -216zM495 827q-21 0 -79.5 22.5t-81.5 22.5q-40 0 -65 -31q-9 -10 -15 -10q-2 0 -2.5 1.5t0 5t3.5 8.5q45 73 98 73q28 0 91 -25q47 -18 68 -18q24 0 39.5 7.5t34.5 28.5q8 9 12 9
q10 0 1 -15q-51 -79 -104 -79z" />
    <glyph glyph-name="utilde" unicode="&#x169;" horiz-adv-x="727" 
d="M187 394v-119q0 -87 15 -134t46 -74q52 -46 132 -46q87 0 137 58q49 56 49 209v106q0 154 -2 181q-1 17 -3.5 25t-10.5 15t-23 9q-14 2 -28 2q-10 0 -10 6q0 8 14 8q19 0 42 -1t38.5 -1.5t16.5 -0.5t14.5 0.5t31.5 1.5t30 1q14 0 14 -7t-10 -7q-8 0 -18 -1
q-19 -2 -25.5 -13.5t-8.5 -36.5q-1 -27 -1 -181v-89q0 -189 -81 -259q-71 -60 -183 -60q-122 0 -187 60q-74 69 -74 224v124q0 155 -3 182q-1 23 -8 34t-29 14q-12 2 -26 2q-11 0 -11 6q0 8 15 8q19 0 43.5 -1t41.5 -1.5t19 -0.5t40 1.5t54 1.5q14 0 14 -7t-12 -7
q-6 0 -22 -2q-17 -2 -22.5 -13t-7.5 -35q-1 -27 -1 -182zM436 722q-20 0 -74 21.5t-75 21.5q-35 0 -61 -29q-7 -9 -13 -9q-2 0 -2.5 1.5t0 5t3.5 7.5q45 69 90 69q30 0 87 -23q43 -17 61 -17q37 0 70 34q7 8 11 8q3 0 3.5 -4t-2.5 -9q-48 -77 -98 -77z" />
    <glyph glyph-name="Umacron" unicode="&#x16a;" horiz-adv-x="830" 
d="M207 463v-140q0 -100 19.5 -156.5t55.5 -90.5q34 -32 69 -43.5t82 -11.5q45 0 87.5 19.5t69.5 52.5q58 72 58 245v125q0 184 -2 216q-2 27 -10.5 39.5t-32.5 17.5q-12 3 -34 3q-8 0 -8 6q0 8 16 8q20 0 45 -0.5t42.5 -1.5t18.5 -1t33.5 1.5t50.5 1.5q16 0 16 -8
q0 -6 -8 -6q-7 0 -25 -3q-20 -4 -27.5 -17t-9.5 -40q-2 -32 -2 -216v-107q0 -99 -19 -175t-73 -124q-83 -74 -206 -74q-131 0 -206 71q-87 83 -87 263v146q0 184 -2 216q-2 27 -10.5 39.5t-32.5 17.5q-12 3 -34 3q-8 0 -8 6q0 8 16 8q27 0 71 -1l44 -2q2 0 41.5 1.5
t57.5 1.5q16 0 16 -8q0 -6 -8 -6q-7 0 -25 -3q-19 -3 -27 -16t-10 -41q-2 -32 -2 -216zM296 890h265q12 0 8 -10l-8 -27q-1 -6 -9 -6h-265q-6 0 -8.5 1.5t-1.5 5.5l8 30q1 6 11 6z" />
    <glyph glyph-name="umacron" unicode="&#x16b;" horiz-adv-x="727" 
d="M187 394v-119q0 -87 15 -134t46 -74q52 -46 132 -46q87 0 137 58q49 56 49 209v106q0 154 -2 181q-1 17 -3.5 25t-10.5 15t-23 9q-14 2 -28 2q-10 0 -10 6q0 8 14 8q19 0 42 -1t38.5 -1.5t16.5 -0.5t14.5 0.5t31.5 1.5t30 1q14 0 14 -7t-10 -7q-8 0 -18 -1
q-19 -2 -25.5 -13.5t-8.5 -36.5q-1 -27 -1 -181v-89q0 -189 -81 -259q-71 -60 -183 -60q-122 0 -187 60q-74 69 -74 224v124q0 155 -3 182q-1 23 -8 34t-29 14q-12 2 -26 2q-11 0 -11 6q0 8 15 8q19 0 43.5 -1t41.5 -1.5t19 -0.5t40 1.5t54 1.5q14 0 14 -7t-12 -7
q-6 0 -22 -2q-17 -2 -22.5 -13t-7.5 -35q-1 -27 -1 -182zM235 778h265q12 0 8 -11l-8 -24q-2 -6 -9 -6h-265q-6 0 -8.5 1.5t-1.5 5.5l8 28q1 6 11 6z" />
    <glyph glyph-name="Ubreve" unicode="&#x16c;" horiz-adv-x="830" 
d="M207 463v-140q0 -100 19.5 -156.5t55.5 -90.5q34 -32 69 -43.5t82 -11.5q45 0 87.5 19.5t69.5 52.5q58 72 58 245v125q0 184 -2 216q-2 27 -10.5 39.5t-32.5 17.5q-12 3 -34 3q-8 0 -8 6q0 8 16 8q20 0 45 -0.5t42.5 -1.5t18.5 -1t33.5 1.5t50.5 1.5q16 0 16 -8
q0 -6 -8 -6q-7 0 -25 -3q-20 -4 -27.5 -17t-9.5 -40q-2 -32 -2 -216v-107q0 -99 -19 -175t-73 -124q-83 -74 -206 -74q-131 0 -206 71q-87 83 -87 263v146q0 184 -2 216q-2 27 -10.5 39.5t-32.5 17.5q-12 3 -34 3q-8 0 -8 6q0 8 16 8q27 0 71 -1l44 -2q2 0 41.5 1.5
t57.5 1.5q16 0 16 -8q0 -6 -8 -6q-7 0 -25 -3q-19 -3 -27 -16t-10 -41q-2 -32 -2 -216zM258 899q0 5 6 10q22 25 31 25q3 0 6 -5q14 -26 49.5 -46.5t85.5 -20.5q88 0 142 60q10 11 15 11q8 -2 -6 -23q-31 -40 -77.5 -63.5t-96.5 -23.5q-76 0 -125 36q-30 22 -30 40z" />
    <glyph glyph-name="ubreve" unicode="&#x16d;" horiz-adv-x="727" 
d="M187 394v-119q0 -87 15 -134t46 -74q52 -46 132 -46q87 0 137 58q49 56 49 209v106q0 154 -2 181q-1 17 -3.5 25t-10.5 15t-23 9q-14 2 -28 2q-10 0 -10 6q0 8 14 8q19 0 42 -1t38.5 -1.5t16.5 -0.5t14.5 0.5t31.5 1.5t30 1q14 0 14 -7t-10 -7q-8 0 -18 -1
q-19 -2 -25.5 -13.5t-8.5 -36.5q-1 -27 -1 -181v-89q0 -189 -81 -259q-71 -60 -183 -60q-122 0 -187 60q-74 69 -74 224v124q0 155 -3 182q-1 23 -8 34t-29 14q-12 2 -26 2q-11 0 -11 6q0 8 15 8q19 0 43.5 -1t41.5 -1.5t19 -0.5t40 1.5t54 1.5q14 0 14 -7t-12 -7
q-6 0 -22 -2q-17 -2 -22.5 -13t-7.5 -35q-1 -27 -1 -182zM215 783q0 5 5 11q19 22 29 22q4 0 5 -5q13 -23 46.5 -41.5t79.5 -18.5q83 0 131 54q9 10 14 10q7 0 -3 -16q-1 -3 -3 -5q-64 -83 -161 -83q-69 0 -119 36q-24 18 -24 36z" />
    <glyph glyph-name="Uring" unicode="&#x16e;" horiz-adv-x="830" 
d="M207 463v-140q0 -100 19.5 -156.5t55.5 -90.5q34 -32 69 -43.5t82 -11.5q45 0 87.5 19.5t69.5 52.5q58 72 58 245v125q0 184 -2 216q-2 27 -10.5 39.5t-32.5 17.5q-12 3 -34 3q-8 0 -8 6q0 8 16 8q20 0 45 -0.5t42.5 -1.5t18.5 -1t33.5 1.5t50.5 1.5q16 0 16 -8
q0 -6 -8 -6q-7 0 -25 -3q-20 -4 -27.5 -17t-9.5 -40q-2 -32 -2 -216v-107q0 -99 -19 -175t-73 -124q-83 -74 -206 -74q-131 0 -206 71q-87 83 -87 263v146q0 184 -2 216q-2 27 -10.5 39.5t-32.5 17.5q-12 3 -34 3q-8 0 -8 6q0 8 16 8q27 0 71 -1l44 -2q2 0 41.5 1.5
t57.5 1.5q16 0 16 -8q0 -6 -8 -6q-7 0 -25 -3q-19 -3 -27 -16t-10 -41q-2 -32 -2 -216zM405 794q-33 0 -52.5 17.5t-19.5 43.5q0 34 31 58.5t79 24.5q35 0 54.5 -16t19.5 -42q0 -39 -34 -62.5t-78 -23.5zM372 866q0 -22 15.5 -35.5t35.5 -13.5q25 0 39.5 14t14.5 36
q0 20 -13.5 33.5t-38.5 13.5q-21 0 -37 -12t-16 -36z" />
    <glyph glyph-name="uring" unicode="&#x16f;" horiz-adv-x="727" 
d="M187 394v-119q0 -87 15 -134t46 -74q52 -46 132 -46q87 0 137 58q49 56 49 209v106q0 154 -2 181q-1 17 -3.5 25t-10.5 15t-23 9q-14 2 -28 2q-10 0 -10 6q0 8 14 8q19 0 42 -1t38.5 -1.5t16.5 -0.5t14.5 0.5t31.5 1.5t30 1q14 0 14 -7t-10 -7q-8 0 -18 -1
q-19 -2 -25.5 -13.5t-8.5 -36.5q-1 -27 -1 -181v-89q0 -189 -81 -259q-71 -60 -183 -60q-122 0 -187 60q-74 69 -74 224v124q0 155 -3 182q-1 23 -8 34t-29 14q-12 2 -26 2q-11 0 -11 6q0 8 15 8q19 0 43.5 -1t41.5 -1.5t19 -0.5t40 1.5t54 1.5q14 0 14 -7t-12 -7
q-6 0 -22 -2q-17 -2 -22.5 -13t-7.5 -35q-1 -27 -1 -182zM361 693q-33 0 -52.5 16.5t-19.5 41.5q0 33 31 56.5t79 23.5q35 0 54.5 -15.5t19.5 -40.5q0 -37 -34 -59.5t-78 -22.5zM328 762q0 -22 15.5 -35.5t35.5 -13.5q25 0 39.5 14t14.5 36q0 20 -13.5 33.5t-38.5 13.5
q-21 0 -37 -12t-16 -36z" />
    <glyph glyph-name="Uhungarumlaut" unicode="&#x170;" horiz-adv-x="830" 
d="M207 463v-140q0 -100 19.5 -156.5t55.5 -90.5q34 -32 69 -43.5t82 -11.5q45 0 87.5 19.5t69.5 52.5q58 72 58 245v125q0 184 -2 216q-2 27 -10.5 39.5t-32.5 17.5q-12 3 -34 3q-8 0 -8 6q0 8 16 8q20 0 45 -0.5t42.5 -1.5t18.5 -1t33.5 1.5t50.5 1.5q16 0 16 -8
q0 -6 -8 -6q-7 0 -25 -3q-20 -4 -27.5 -17t-9.5 -40q-2 -32 -2 -216v-107q0 -99 -19 -175t-73 -124q-83 -74 -206 -74q-131 0 -206 71q-87 83 -87 263v146q0 184 -2 216q-2 27 -10.5 39.5t-32.5 17.5q-12 3 -34 3q-8 0 -8 6q0 8 16 8q27 0 71 -1l44 -2q2 0 41.5 1.5
t57.5 1.5q16 0 16 -8q0 -6 -8 -6q-7 0 -25 -3q-19 -3 -27 -16t-10 -41q-2 -32 -2 -216zM379 933q15 19 19 19q6 0 14 -3q34 -15 44 -22q3 -2 4 -3.5t1 -2.5t-2 -2q-14 -7 -28 -16q-62 -39 -101 -75q-8 -9 -16 -9q-6 0 -2 8q3 7 30.5 50t36.5 56zM564 934q16 18 19 18
q8 0 15 -4q23 -10 43 -23q10 -8 1 -11q-6 -2 -29 -13q-70 -40 -108 -74q-9 -8 -15 -8q-7 0 -2 7q3 16 76 108z" />
    <glyph glyph-name="uhungarumlaut" unicode="&#x171;" horiz-adv-x="727" 
d="M187 394v-119q0 -87 15 -134t46 -74q52 -46 132 -46q87 0 137 58q49 56 49 209v106q0 154 -2 181q-1 17 -3.5 25t-10.5 15t-23 9q-14 2 -28 2q-10 0 -10 6q0 8 14 8q19 0 42 -1t38.5 -1.5t16.5 -0.5t14.5 0.5t31.5 1.5t30 1q14 0 14 -7t-10 -7q-8 0 -18 -1
q-19 -2 -25.5 -13.5t-8.5 -36.5q-1 -27 -1 -181v-89q0 -189 -81 -259q-71 -60 -183 -60q-122 0 -187 60q-74 69 -74 224v124q0 155 -3 182q-1 23 -8 34t-29 14q-12 2 -26 2q-11 0 -11 6q0 8 15 8q19 0 43.5 -1t41.5 -1.5t19 -0.5t40 1.5t54 1.5q14 0 14 -7t-12 -7
q-6 0 -22 -2q-17 -2 -22.5 -13t-7.5 -35q-1 -27 -1 -182zM315 816q15 19 19 19q6 0 14 -3q34 -15 44 -22q3 -2 4 -3.5t1 -2.5t-2 -2q-14 -7 -28 -16q-62 -39 -101 -75q-8 -9 -16 -9q-6 0 -2 8q3 7 30.5 50t36.5 56zM500 817q16 18 19 18q8 0 15 -4q23 -10 43 -23
q10 -8 1 -11q-6 -1 -29 -13q-70 -40 -108 -74q-9 -8 -15 -8q-7 0 -2 7q3 16 76 108z" />
    <glyph glyph-name="Uogonek" unicode="&#x172;" horiz-adv-x="830" 
d="M648 338v125q0 184 -2 216q-2 27 -10.5 39.5t-32.5 17.5q-12 3 -34 3q-8 0 -8 6q0 8 16 8q20 0 45 -0.5t42.5 -1.5t18.5 -1t33.5 1.5t50.5 1.5q16 0 16 -8q0 -6 -8 -6q-7 0 -25 -3q-20 -4 -27.5 -17t-9.5 -40q-2 -32 -2 -216v-107q0 -99 -19 -175t-73 -124
q-29 -25 -62 -43q-103 -67 -103 -130q0 -46 49 -46q25 0 47 11q14 6 14 0q0 -7 -7 -15q-32 -37 -94 -37q-37 0 -58.5 20.5t-21.5 51.5q0 57 107 122q-36 -8 -77 -8q-131 0 -206 71q-87 83 -87 263v146q0 184 -2 216q-2 27 -10.5 39.5t-32.5 17.5q-12 3 -34 3q-8 0 -8 6
q0 8 16 8q27 0 71 -1l44 -2q2 0 41.5 1.5t57.5 1.5q16 0 16 -8q0 -6 -8 -6q-7 0 -25 -3q-19 -3 -27 -16t-10 -41q-2 -32 -2 -216v-140q0 -100 19.5 -156.5t55.5 -90.5q34 -32 69 -43.5t82 -11.5q45 0 87.5 19.5t69.5 52.5q58 72 58 245z" />
    <glyph glyph-name="uogonek" unicode="&#x173;" horiz-adv-x="727" 
d="M566 288v106q0 154 -2 181q-1 17 -3.5 25t-10.5 15t-23 9q-14 2 -28 2q-10 0 -10 6q0 8 14 8q19 0 42 -1t38.5 -1.5t16.5 -0.5t14.5 0.5t31.5 1.5t30 1q14 0 14 -7t-10 -7q-8 0 -18 -1q-19 -2 -25.5 -13.5t-8.5 -36.5q-1 -27 -1 -181v-89q0 -189 -81 -259
q-39 -33 -81 -46q-65 -49 -65 -105q0 -53 51 -53q27 0 46 11q14 8 14 0q0 -5 -7 -13q-33 -38 -94 -38q-37 0 -58.5 20.5t-21.5 51.5q0 58 90 115q-30 -3 -57 -3q-122 0 -187 60q-74 69 -74 224v124q0 155 -3 182q-1 23 -8 34t-29 14q-12 2 -26 2q-11 0 -11 6q0 8 15 8
q19 0 43.5 -1t41.5 -1.5t19 -0.5t40 1.5t54 1.5q14 0 14 -7t-12 -7q-6 0 -22 -2q-17 -2 -22.5 -13t-7.5 -35q-1 -27 -1 -182v-119q0 -87 15 -134t46 -74q52 -46 132 -46q87 0 137 58q49 56 49 209z" />
    <glyph glyph-name="Wcircumflex" unicode="&#x174;" horiz-adv-x="1100" 
d="M276 62l-178 593q-12 39 -23.5 54.5t-31.5 23.5q-16 6 -45 6q-9 0 -9 7t16 7q31 0 75 -1l43 -2q3 0 18.5 1t39 1.5t45.5 0.5q18 0 18 -7t-10 -7q-27 0 -39 -6q-13 -7 -13 -24q0 -8 19 -92q19 -81 135 -487l213 573q17 46 25 46t25 -47l201 -573q4 15 69.5 227.5
t86.5 288.5q11 41 11 64q0 30 -57 30q-9 0 -9 7t17 7q22 0 45.5 -0.5t38.5 -1.5t18 -1l31 2q31 1 50 1q14 0 14 -6q0 -8 -9 -8q-20 0 -34 -5q-20 -7 -34 -32.5t-31 -75.5q-22 -64 -93.5 -283t-90.5 -274q-20 -57 -27 -71.5t-15 -14.5q-7 0 -13 10.5t-17 41.5l-197 559
q-168 -449 -210 -558q-20 -53 -33 -53q-8 0 -14 14t-21 65zM584 941q6 0 19 -8q111 -74 129 -87q12 -9 12 -12t-5 -6l-34 -19q-6 -4 -12 0q-55 44 -106 71q-8 5 -11 5l-16 -7q-70 -35 -119 -63q-16 -9 -21 -9q-8 0 -4 9q2 3 7 7q120 89 143 109q14 10 18 10z" />
    <glyph glyph-name="wcircumflex" unicode="&#x175;" horiz-adv-x="966" 
d="M238 62l-154 493q-11 35 -20 48t-29 19q-15 4 -36 4q-12 0 -12 8q0 6 15 6q23 0 47.5 -1t41 -1.5t19.5 -0.5q2 0 17 0.5t37.5 1.5t43.5 1q14 0 14 -7q0 -8 -14 -8q-21 0 -32 -4q-10 -3 -10 -21q0 -5 17 -77q9 -37 55 -196.5t59 -202.5l185 470q16 43 24 43t24 -44
l177 -470q9 29 64.5 204t70.5 231q8 30 8 42q0 13 -9 19.5t-39 6.5q-13 0 -13 8q0 6 15 6q16 0 35.5 -1t33 -1.5t15.5 -0.5l33 1q33 2 49 2q12 0 12 -6q0 -8 -13 -8q-11 0 -26 -3q-6 -1 -11.5 -4.5t-10 -9.5t-8 -11.5t-7.5 -15.5t-6 -16t-6.5 -18.5t-6.5 -18.5
q-21 -57 -82.5 -238.5t-75.5 -220.5q-31 -84 -41 -84q-11 0 -29 51l-172 456q-79 -193 -183 -456q-20 -51 -31 -51q-7 0 -13 13.5t-22 62.5zM511 835q3 0 17 -7q3 -2 32 -21.5t54 -37t32 -22.5q11 -8 11 -11q0 -2 -5 -5l-35 -22q-6 -4 -10 0q-47 41 -98 68q-7 4 -12 4
q-4 0 -14 -5q-29 -16 -107 -62q-13 -8 -19 -8q-9 0 -3 7q1 2 5 5q65 49 135 108q14 9 17 9z" />
    <glyph glyph-name="Ycircumflex" unicode="&#x176;" horiz-adv-x="654" 
d="M289 170v86q0 54 -23 105q-5 12 -77.5 131t-98.5 157q-35 52 -68 74q-24 16 -43 16q-10 0 -10 7t13 7q11 0 54.5 -1.5t44.5 -1.5q2 0 15 1t32.5 1.5t36.5 0.5q13 0 13 -7q0 -2 -15 -9q-13 -7 -13 -18q0 -15 13 -39q13 -23 92 -159t92 -157q12 27 77.5 141.5t88.5 152.5
q17 27 17 51t-16 28q-15 5 -15 10q0 6 16 6q15 0 39.5 -1.5t26.5 -1.5q1 0 43.5 1.5t53.5 1.5q13 0 13 -6q0 -8 -13 -8q-24 0 -46 -14q-22 -13 -53 -51q-24 -29 -100.5 -157t-90.5 -161q-15 -36 -15 -100v-86q0 -58 3 -100q3 -50 41 -55q28 -4 45 -4q8 0 8 -6q0 -8 -16 -8
q-24 0 -53.5 0.5t-49 1.5t-20.5 1t-19.5 -0.5t-42 -1.5t-36.5 -1q-16 0 -16 8q0 6 8 6q12 0 30 4q28 6 31 55q3 42 3 100zM343 952q6 0 19 -8q111 -74 129 -87q12 -9 12 -12t-5 -6l-34 -19q-6 -4 -12 0q-55 44 -106 71q-8 5 -11 5l-16 -7q-70 -35 -119 -63q-16 -9 -21 -9
q-8 0 -4 9q2 3 7 7q120 89 143 109q14 10 18 10z" />
    <glyph glyph-name="ycircumflex" unicode="&#x177;" horiz-adv-x="579" 
d="M252 142v73q0 54 -22 92q-7 14 -70 114.5t-83 128.5q-34 47 -51 61q-19 14 -47 15q-11 0 -11 8q0 6 12 6q7 0 30 -1t44 -1l20 -1q2 0 13.5 0.5t29 1.5t33.5 1q13 0 13 -6q0 -5 -11 -8q-16 -3 -16 -16q0 -9 13 -33q6 -11 42 -70t75 -122t43 -70q7 15 39 69.5t65.5 110
t37.5 63.5q23 40 23 53q0 3 -1 5.5t-2 4t-4.5 2.5t-4.5 1t-5.5 1t-5.5 1q-11 1 -11 8q0 6 12 6q13 0 33.5 -1.5t27.5 -1.5q6 0 42.5 1.5t45.5 1.5q12 0 12 -6q0 -8 -12 -8q-34 -2 -50 -13q-14 -9 -37 -41q-41 -56 -99.5 -152.5t-70.5 -125.5q-10 -26 -10 -79v-73
q0 -44 2 -80q1 -15 3 -22t9.5 -14.5t22.5 -10.5q17 -4 37 -4q11 0 11 -6q0 -8 -12 -8q-14 0 -30.5 0.5t-30.5 0.5t-26 0.5t-19.5 1t-8.5 0.5h-17q-17 -1 -39 -2t-34 -1q-14 0 -14 8q0 6 10 6q13 0 25 3q22 4 26 48q3 36 3 80zM309 849q3 0 17 -7q3 -2 32 -21.5t54 -37
t32 -22.5q11 -8 11 -11q0 -2 -5 -5l-35 -22q-6 -4 -10 0q-47 41 -98 68q-7 4 -12 4q-4 0 -14 -5q-29 -16 -107 -62q-13 -8 -19 -8q-9 0 -3 7q1 2 5 5q65 49 135 108q13 9 17 9z" />
    <glyph glyph-name="Ydieresis" unicode="&#x178;" horiz-adv-x="654" 
d="M289 170v86q0 54 -23 105q-5 12 -77.5 131t-98.5 157q-35 52 -68 74q-24 16 -43 16q-10 0 -10 7t13 7q11 0 54.5 -1.5t44.5 -1.5q2 0 15 1t32.5 1.5t36.5 0.5q13 0 13 -7q0 -2 -15 -9q-13 -7 -13 -18q0 -15 13 -39q13 -23 92 -159t92 -157q12 27 77.5 141.5t88.5 152.5
q17 27 17 51t-16 28q-15 5 -15 10q0 6 16 6q15 0 39.5 -1.5t26.5 -1.5q1 0 43.5 1.5t53.5 1.5q13 0 13 -6q0 -8 -13 -8q-24 0 -46 -14q-22 -13 -53 -51q-24 -29 -100.5 -157t-90.5 -161q-15 -36 -15 -100v-86q0 -58 3 -100q3 -50 41 -55q28 -4 45 -4q8 0 8 -6q0 -8 -16 -8
q-24 0 -53.5 0.5t-49 1.5t-20.5 1t-19.5 -0.5t-42 -1.5t-36.5 -1q-16 0 -16 8q0 6 8 6q12 0 30 4q28 6 31 55q3 42 3 100zM442 839q-19 0 -29 12t-10 27q0 14 10.5 26.5t29.5 12.5q17 0 27.5 -10.5t10.5 -26.5q0 -18 -10.5 -29.5t-28.5 -11.5zM219 839q-19 0 -28.5 12
t-9.5 27t10 27t29 12q17 0 27.5 -10.5t10.5 -26.5q0 -18 -10.5 -29.5t-28.5 -11.5z" />
    <glyph glyph-name="Zacute" unicode="&#x179;" horiz-adv-x="692" 
d="M184 40h272q73 0 106.5 12t51.5 37q15 22 20 54q3 16 9 16q8 0 8 -23q0 -32 -20 -115q-5 -18 -9 -22t-21 -4q-83 0 -252 2.5t-258 2.5q-18 0 -18 8q0 7 14 28q326 492 439 676h-217q-106 0 -144 -20q-25 -13 -39.5 -36t-17.5 -43q-2 -18 -11 -18q-6 0 -6 13t20 133
q3 19 10 19q3 0 14.5 -3t27.5 -4q71 -3 174 -3h279q20 0 20 -8q0 -6 -4 -12q-166 -263 -448 -690zM499 949q22 -20 32 -40q7 -13 -4 -13q-20 0 -41 -8q-53 -19 -142 -61q-14 -6 -16 -6q-6 0 -6 4t8 12q86 80 123 104q22 16 29 16q9 0 17 -8z" />
    <glyph glyph-name="zacute" unicode="&#x17a;" horiz-adv-x="612" 
d="M173 37h232q68 0 98.5 8.5t42.5 32.5q9 16 15 47q3 14 8 14q7 0 7 -15q0 -41 -18 -104q-5 -17 -9.5 -20.5t-20.5 -3.5q-72 0 -219 2t-227 2q-16 0 -16 7q0 6 12 24q294 433 380 571h-183q-102 0 -133 -11t-44 -75q-4 -16 -10 -16q-5 0 -5 12q0 6 17 117q3 17 10 17
q3 0 14 -2.5t26 -3.5q95 -3 151 -3h244q20 0 20 -6t-7 -16q-336 -506 -385 -578zM448 851q22 -18 33 -35q8 -12 -3 -12q-1 0 -7.5 -1.5t-15 -4t-14.5 -5.5q-58 -27 -128 -69l-3 -2q-3 -1 -5.5 -2.5t-5.5 -2.5t-5 -0.5t-2 3.5q0 5 7 12q97 101 106 108q20 17 26 17
q10 0 17 -6z" />
    <glyph glyph-name="Zdotaccent" unicode="&#x17b;" horiz-adv-x="692" 
d="M184 40h272q73 0 106.5 12t51.5 37q15 22 20 54q3 16 9 16q8 0 8 -23q0 -32 -20 -115q-5 -18 -9 -22t-21 -4q-83 0 -252 2.5t-258 2.5q-18 0 -18 8q0 7 14 28q326 492 439 676h-217q-106 0 -144 -20q-25 -13 -39.5 -36t-17.5 -43q-2 -18 -11 -18q-6 0 -6 13t20 133
q3 19 10 19q3 0 14.5 -3t27.5 -4q71 -3 174 -3h279q20 0 20 -8q0 -6 -4 -12q-166 -263 -448 -690zM363 844q-20 0 -31 12.5t-11 28.5t11.5 29.5t30.5 13.5q18 0 30.5 -12t12.5 -30q0 -17 -12 -29.5t-31 -12.5z" />
    <glyph glyph-name="zdotaccent" unicode="&#x17c;" horiz-adv-x="612" 
d="M173 37h232q68 0 98.5 8.5t42.5 32.5q9 16 15 47q3 14 8 14q7 0 7 -15q0 -41 -18 -104q-5 -17 -9.5 -20.5t-20.5 -3.5q-72 0 -219 2t-227 2q-16 0 -16 7q0 6 12 24q294 433 380 571h-183q-102 0 -133 -11t-44 -75q-4 -16 -10 -16q-5 0 -5 12q0 6 17 117q3 17 10 17
q3 0 14 -2.5t26 -3.5q95 -3 151 -3h244q20 0 20 -6t-7 -16q-336 -506 -385 -578zM315 740q-20 0 -31 12.5t-11 28.5t11.5 29.5t30.5 13.5q18 0 30.5 -12t12.5 -30q0 -17 -12 -29.5t-31 -12.5z" />
    <glyph glyph-name="Zcaron" unicode="&#x17d;" horiz-adv-x="692" 
d="M184 40h272q73 0 106.5 12t51.5 37q15 22 20 54q3 16 9 16q8 0 8 -23q0 -32 -20 -115q-5 -18 -9 -22t-21 -4q-83 0 -252 2.5t-258 2.5q-18 0 -18 8q0 7 14 28q326 492 439 676h-217q-106 0 -144 -20q-25 -13 -39.5 -36t-17.5 -43q-2 -18 -11 -18q-6 0 -6 13t20 133
q3 19 10 19q3 0 14.5 -3t27.5 -4q71 -3 174 -3h279q20 0 20 -8q0 -6 -4 -12q-166 -263 -448 -690zM366 819q-6 0 -19 8q-5 3 -35.5 23t-57.5 38t-35 24q-12 9 -12 12t5 6l32 21q6 4 11 0q58 -49 109 -76q8 -5 12 -5t16 6q46 25 116 68q15 9 21 9q9 0 4 -8l-6 -6
q-95 -69 -143 -110q-14 -10 -18 -10z" />
    <glyph glyph-name="zcaron" unicode="&#x17e;" horiz-adv-x="612" 
d="M173 37h232q68 0 98.5 8.5t42.5 32.5q9 16 15 47q3 14 8 14q7 0 7 -15q0 -41 -18 -104q-5 -17 -9.5 -20.5t-20.5 -3.5q-72 0 -219 2t-227 2q-16 0 -16 7q0 6 12 24q294 433 380 571h-183q-102 0 -133 -11t-44 -75q-4 -16 -10 -16q-5 0 -5 12q0 6 17 117q3 17 10 17
q3 0 14 -2.5t26 -3.5q95 -3 151 -3h244q20 0 20 -6t-7 -16q-336 -506 -385 -578zM317 711q-3 0 -17 7q-4 3 -32 22t-53 36t-32 22q-11 8 -11 11q0 2 5 5l35 22q6 4 10 0q48 -42 99 -69q7 -4 12 -4q4 0 14 5q29 16 107 62q11 8 19 8q9 0 3 -7q-1 -2 -5 -5q-85 -62 -137 -106
q-14 -9 -17 -9z" />
    <glyph glyph-name="uni00200309.cap" unicode="&#x17f;" 
d="M265 967q34 0 56.5 -18t22.5 -46t-25 -52.5t-73 -41.5q-16 -6 -16 1q0 5 9 11q50 29 50 71q0 16 -13 29t-37 13q-34 0 -60 -19q-11 -8 -13 -1q0 6 7 12q43 41 92 41z" />
    <glyph glyph-name="uni00A80300.cap" unicode="&#x180;" 
d="M361 808q-18 0 -27.5 11.5t-9.5 25.5t9.5 26t28.5 12q15 0 26 -10t11 -26q0 -17 -10.5 -28t-27.5 -11zM138 808q-18 0 -27.5 12t-9.5 25q0 15 9.5 26t28.5 11q16 0 26.5 -9.5t10.5 -24.5q0 -17 -10.5 -28.5t-27.5 -11.5zM216 1005q7 -11 29.5 -53t26.5 -51t-3 -9t-15 9
q-55 53 -83 73q-21 14 -27 17q-8 2 3 10q12 9 38 20q5 3 13 3q6 0 18 -19z" />
    <glyph glyph-name="uni00A80301.cap" unicode="&#x181;" 
d="M285 1001q14 19 18 19q7 0 14 -3q22 -10 38 -21q10 -7 3 -9q-6 -3 -27 -17q-27 -20 -83 -73q-9 -10 -16 -10q-6 0 -2 9q2 7 24.5 50t30.5 55zM358 808q-18 0 -27.5 11.5t-9.5 25.5t9.5 26t28.5 12q15 0 26 -10t11 -26q0 -17 -10.5 -28t-27.5 -11zM141 808q-18 0 -27.5 12
t-9.5 25q0 15 9.5 26t28.5 11q16 0 26.5 -9.5t10.5 -24.5q0 -17 -10.5 -28.5t-27.5 -11.5z" />
    <glyph glyph-name="uni00A8030C.cap" unicode="&#x182;" 
d="M246 892q-6 0 -19 8q-54 32 -111 72q-12 7 -12 10t4 7l25 17q5 6 11 0q50 -40 97 -65q5 -4 12 -4q2 0 15 5q19 9 105 57q13 9 22 9q10 0 -2 -12q-2 -1 -4 -3q-6 -6 -65 -47.5t-62 -44.5q-12 -9 -16 -9zM358 808q-18 0 -27.5 11.5t-9.5 25.5t9.5 26t28.5 12q15 0 26 -10
t11 -26q0 -17 -10.5 -28t-27.5 -11zM141 808q-18 0 -27.5 12t-9.5 25q0 15 9.5 26t28.5 11q16 0 26.5 -9.5t10.5 -24.5q0 -17 -10.5 -28.5t-27.5 -11.5z" />
    <glyph glyph-name="uni00A80304.cap" unicode="&#x183;" 
d="M344 807q-18 0 -27.5 11.5t-9.5 26.5q0 13 10 25t28 12q16 0 26.5 -9.5t10.5 -25.5q0 -18 -10 -29t-28 -11zM154 807q-18 0 -27 12t-9 26t9.5 25.5t27.5 11.5q16 0 26.5 -9.5t10.5 -25.5q0 -17 -10.5 -28.5t-27.5 -11.5zM138 975h235q12 0 8 -10l-8 -24q-1 -6 -9 -6h-235
q-6 0 -8.5 1.5t-1.5 5.5l8 27q1 6 11 6z" />
    <glyph glyph-name="uni031B" unicode="&#x184;" horiz-adv-x="435" 
d="M184 664l-20 17q57 25 57 66q0 19 -25 48q-7 5 0 16q8 11 28 26t28 15q7 0 14 -10q11 -17 11 -44q0 -82 -93 -134z" />
    <glyph glyph-name="uni032E" unicode="&#x185;" horiz-adv-x="0" 
d="M-170 -117q0 5 6 10q22 25 31 25q3 0 6 -5q14 -26 49.5 -46.5t85.5 -20.5q88 0 142 60q10 11 15 11q8 -2 -6 -23q-31 -40 -77.5 -63.5t-96.5 -23.5q-76 0 -125 36q-30 22 -30 40z" />
    <glyph glyph-name="uni0331" unicode="&#x186;" horiz-adv-x="0" 
d="M-131 -107h265q12 0 8 -10l-8 -27q-2 -6 -9 -6h-265q-6 0 -8.5 1.5t-1.5 5.5l8 30q1 6 11 6z" />
    <glyph glyph-name="Q.alt" unicode="&#x187;" horiz-adv-x="920" 
d="M607 11q-59 -28 -152 -28q-99 0 -177 35.5t-123 94t-68 125.5t-23 138q0 64 23.5 130t69 125.5t124.5 97.5t177 38q172 0 282.5 -102t110.5 -273q0 -67 -18 -126t-48.5 -100.5t-58 -68t-56.5 -45.5l211 -137q428 -278 692 -278q109 0 182.5 21t150.5 77q10 7 15 7
q7 0 7 -7q0 -5 -11 -14q-164 -132 -424 -132q-149 0 -311 68t-399 232zM479 21q31 0 63.5 7.5t72 30t69.5 58.5t50.5 100t20.5 147q0 172 -89 270.5t-215 98.5q-130 0 -211 -85t-81 -244q0 -172 91 -277.5t229 -105.5z" />
    <glyph glyph-name="ampersand.alt1" unicode="&#x188;" horiz-adv-x="824" 
d="M852 11q14 0 14 -7t-13 -7h-131q-56 0 -100 25q-37 22 -74 52q-101 -91 -230 -91q-119 0 -184.5 55.5t-67.5 141.5q-1 64 35.5 107t115.5 96q3 2 8 5.5t8.5 6t7.5 4.5q-68 96 -69 177q-2 79 55 136q56 55 135 55q64 0 106.5 -39t42.5 -98q0 -54 -37.5 -99.5
t-145.5 -114.5q33 -40 64 -72q110 -119 187 -186q1 1 2.5 3t2.5 3q37 46 60 111.5t23 125.5q0 37 -26 52q-17 10 -41 14q-21 3 -21 8q0 7 17 7q56 0 122 -7q18 -2 18 -20q0 -73 -35 -158.5t-89 -154.5q-1 -1 -3 -3.5t-3 -3.5q56 -45 125 -85q71 -39 121 -39zM342 731
q-44 0 -74 -34t-29 -93q1 -73 68 -162q79 50 108 91.5t29 87.5q0 48 -28.5 79t-73.5 31zM335 33q115 0 187 64q-69 60 -169 170q-55 58 -91 106q-3 -2 -5.5 -4t-5 -4.5t-4.5 -3.5q-58 -45 -77 -84t-18 -85q1 -63 48 -111t135 -48z" />
    <glyph glyph-name="ampersand.alt2" unicode="&#x189;" horiz-adv-x="928" 
d="M894 463q6 0 6 -19q0 -50 -23 -88q-11 -18 -42 -18q-54 0 -86 -1q-8 -56 -24 -100q-39 -112 -131.5 -183t-240.5 -71q-128 0 -209 62.5t-82 163.5q-1 46 18.5 85t45.5 62t59.5 41t51.5 24.5t32 9.5l3 7q-40 9 -76.5 45.5t-36.5 95.5q0 81 69 134.5t182 53.5q78 0 121 -23
q12 -7 7 -25q-6 -19 -15 -84q-1 -16 -8 -16q-8 0 -8 16q0 40 -14 62q-25 36 -106 36q-64 0 -104 -41.5t-38 -103.5q1 -104 109 -133q25 -6 73 -6q20 0 20 -10q0 -11 -21 -11q-44 0 -101 -10q-16 -3 -33 -8t-43.5 -19.5t-46.5 -33.5t-34.5 -52.5t-14.5 -75.5q0 -79 61.5 -140
t178.5 -61q77 0 136.5 27.5t94 74t53.5 97.5t25 109q-13 0 -34 -0.5t-29 -0.5q-124 -3 -140 -71q-3 -17 -9 -17q-9 0 -7 23q3 41 21 68t49 39.5t56 17t61 6.5q142 6 152 7q2 0 8.5 0.5t9 1t8.5 1.5t9.5 3t8.5 5t8 7.5t6.5 11t5.5 14.5q3 11 8 11z" />
    </font>
</defs>
</svg>
